<svg xmlns="http://www.w3.org/2000/svg" viewBox="0 0 172.3 36"><defs><style>.cls-1{fill:#1e1e1e;}.cls-2{fill:#ed2d23;}.cls-3{fill:#00adef;}</style></defs><g id="Слой_2" data-name="Слой 2"><g id="Слой_1-2" data-name="Слой 1"><path class="cls-1" d="M103.1,8.8a3.53,3.53,0,0,1-3.1,1.8,3.71,3.71,0,0,1-3.8-3.7A3.65,3.65,0,0,1,100,3.2a3.37,3.37,0,0,1,3,1.7l.1.2,1-.6-.1-.2a4.49,4.49,0,0,0-4-2.2,4.68,4.68,0,0,0-4.8,4.8,4.74,4.74,0,0,0,4.8,4.8,4.58,4.58,0,0,0,4-2.3l.1-.2Z"/><path class="cls-1" d="M107.8,11.4h1.1V3.2h2.8V2.1H105V3.2h2.8Z"/><path class="cls-1" d="M114.4,8.1h2.1a3,3,0,0,0,3-3,3,3,0,0,0-3-3h-3.2v9.3h1.1Zm0-4.9h2.1a1.84,1.84,0,0,1,1.9,1.9A1.84,1.84,0,0,1,116.5,7h-2.1Z"/><path class="cls-1" d="M130.4,6.8a4.8,4.8,0,0,0-9.6,0,4.8,4.8,0,0,0,9.6,0Zm-4.8,3.7a3.63,3.63,0,0,1-3.7-3.7,3.7,3.7,0,0,1,7.4,0A3.57,3.57,0,0,1,125.6,10.5Z"/><path class="cls-1" d="M139.3,11.4V2.1h-.9l-4.9,7.2V2.1h-1.1v9.3h.9l4.9-7.2v7.2Z"/><path class="cls-1" d="M149.1,11.4h1.1V2.1H149l-3,5.1-3.1-5.1h-1.2v9.3h1.1V4.1l3,4.9h.4l2.9-4.9Z"/><path class="cls-1" d="M102.4,16.3H96.5v5.3a4.89,4.89,0,0,1-.8,3h-.8v2.8H96V25.7h6.3v1.7h1.1V24.6h-.9Zm-1.1,1v7.2H97a6.12,6.12,0,0,0,.6-3V17.3Z"/><path class="cls-1" d="M106.3,21.6c0,2.7-.9,3-1.6,3h-.4v1h.5c1.7,0,2.5-1.3,2.5-4V17.3h3.9v8.3h1.1V16.3h-6Z"/><path class="cls-1" d="M114.3,19.1a2.79,2.79,0,0,0,2.1,2.7l-2.6,3.7h1.3l2.5-3.7h2.1v3.7h1.1V16.2h-3.7A3,3,0,0,0,114.3,19.1Zm2.8-1.8h2.6v3.6h-2.6a1.71,1.71,0,0,1-1.7-1.8A1.77,1.77,0,0,1,117.1,17.3Z"/><path class="cls-1" d="M137.1,16.3h-1.3l-3.5,3.8V16.3h-1.1v3.8l-3.5-3.8h-1.4l4.1,4.5-4.2,4.8h1.4l3.6-4.1v4.1h1.1V21.5l3.6,4.1h1.4L133,20.8Z"/><path class="cls-1" d="M152.5,20.7a2.43,2.43,0,0,0,1.1-2,2.66,2.66,0,0,0-2.9-2.6,2.83,2.83,0,0,0-3,1.9l-.1.2.9.5.1-.2a2,2,0,0,1,2.1-1.3,1.58,1.58,0,0,1,1.8,1.6c0,.9-.7,1.6-1.9,1.6h-.9v1h1.2a1.69,1.69,0,0,1,1.9,1.7c0,1-.8,1.7-2.1,1.7a2.13,2.13,0,0,1-2.3-1.5l-.1-.3-1,.5.1.2a3.11,3.11,0,0,0,3.3,2.1c1.9,0,3.2-1.1,3.2-2.7A3,3,0,0,0,152.5,20.7Z"/><path class="cls-1" d="M161.7,20.3H157v-4h-1.1v9.3H157V21.3h4.7v4.3h1.1V16.3h-1.1Z"/><path class="cls-1" d="M145.3,25.4V16.1h-.9l-4.9,7.2V16.1h-1.1v9.3h.9l4.9-7.2v7.2Z"/><path class="cls-1" d="M172.3,25.4V16.1h-.9l-4.9,7.2V16.1h-1.1v9.3h.9l4.9-7.2v7.2Z"/><path class="cls-1" d="M55,21V2H35V7.6a36.79,36.79,0,0,1-.6,7.3,22.46,22.46,0,0,1-2.5,6.1H29.7l-3.1,6H58V21ZM40.3,15.4A31.5,31.5,0,0,0,41,8h8V21H38.6A29.89,29.89,0,0,0,40.3,15.4Z"/><path class="cls-1" d="M18,2V21H6V2H0V27H24V2Z"/><path class="cls-1" d="M72.8,21.8a7.1,7.1,0,1,1,0-14.2A7,7,0,0,1,78,9.9l2.7-5.2a12.78,12.78,0,1,0-7.9,22.8,12.73,12.73,0,0,0,10.3-5.3l-4.6-3.3A7,7,0,0,1,72.8,21.8Z"/><path class="cls-2" d="M20.34,36H9.8l7.9-15H28.24Z"/><path class="cls-3" d="M85.92,15H75.38l7.9-15H93.82Z"/></g></g></svg>