<svg xmlns="http://www.w3.org/2000/svg" viewBox="0 0 247 50"><defs><style>.cls-1{opacity:0.9;}.cls-2{fill:#2b2d3d;}</style></defs><g id="Слой_2" data-name="Слой 2"><g id="Слой_1-2" data-name="Слой 1"><g class="cls-1"><path class="cls-2" d="M50.14,26.74V8.85L32.21,26.74Zm0,6.25H25.94L8.88,50H50.14ZM0,50,50.14,0H0ZM62,16.28h2l4,10.32h-2l-.81-2.12H60.87L60,26.6H58ZM63,19,61.6,22.56h2.75Zm6.48,7.58V16.28h5.41V18.2H71.43v2h.43a6.39,6.39,0,0,1,2.14.29,2.77,2.77,0,0,1,1.38,1.08,3.21,3.21,0,0,1,.56,1.88,3.14,3.14,0,0,1-.42,1.73,3.25,3.25,0,0,1-1.14,1,4.21,4.21,0,0,1-2,.4Zm2-4.67v2.8h.5a2.73,2.73,0,0,0,1.71-.35,1.29,1.29,0,0,0,.35-.95c0-1-.71-1.5-2.15-1.5ZM87.17,18.1,85.8,19.41a4.32,4.32,0,0,0-3.17-1.48,3.42,3.42,0,0,0-2.5,1,3.39,3.39,0,0,0-1,2.49,3.65,3.65,0,0,0,.45,1.83,3.17,3.17,0,0,0,1.28,1.26,3.77,3.77,0,0,0,1.83.46,3.86,3.86,0,0,0,1.57-.32A5.88,5.88,0,0,0,85.8,23.5l1.33,1.38A7.33,7.33,0,0,1,85,26.43a5.9,5.9,0,0,1-2.33.43,5.38,5.38,0,0,1-4-1.52,5.3,5.3,0,0,1-1.54-3.91,5.33,5.33,0,0,1,.7-2.75,5.17,5.17,0,0,1,2-1.92A5.51,5.51,0,0,1,82.67,16a5.87,5.87,0,0,1,2.46.54A5.8,5.8,0,0,1,87.17,18.1ZM93.79,16a5.15,5.15,0,0,1,3.77,1.58,5.3,5.3,0,0,1,1.58,3.87,5.21,5.21,0,0,1-1.56,3.82,5.41,5.41,0,0,1-7.65-.05,5.43,5.43,0,0,1,1.15-8.5A5.26,5.26,0,0,1,93.79,16Zm0,1.92a3.27,3.27,0,0,0-2.42,1,3.49,3.49,0,0,0-1,2.54,3.29,3.29,0,0,0,1.24,2.7A3.36,3.36,0,0,0,93.8,25a3.15,3.15,0,0,0,2.38-1,3.63,3.63,0,0,0,0-5,3.19,3.19,0,0,0-2.41-1Zm13.92,8.65L104.83,19l-2.91,7.58H99.83l4-10.32h2l4,10.32Zm5.25-6.42h1.34a6.54,6.54,0,0,1,2.33-3.25,5.5,5.5,0,0,1,3-.9A5.41,5.41,0,0,1,125,21.48a5.21,5.21,0,0,1-1.56,3.82,5.15,5.15,0,0,1-3.78,1.56A5.57,5.57,0,0,1,116,25.57a4.74,4.74,0,0,1-1.76-3.48h-1.34V26.6h-2V16.28h2Zm10,1.28A3.53,3.53,0,0,0,122,19,3.15,3.15,0,0,0,119.59,18a3.3,3.3,0,0,0-2.39,1,3.4,3.4,0,0,0-1,2.56,3.3,3.3,0,0,0,1,2.52,3.42,3.42,0,0,0,2.4,1A3.19,3.19,0,0,0,122,24,3.43,3.43,0,0,0,123,21.46Zm2.83-5.18h5.71v1.94h-1.88V26.6h-2V18.22h-1.83Zm20.77,1.92-.82.63a4.27,4.27,0,0,0-1.62-1.33,4.82,4.82,0,0,0-2.08-.46,4.61,4.61,0,0,0-2.29.6,4.25,4.25,0,0,0-1.64,1.59,4.49,4.49,0,0,0-.58,2.25,4.21,4.21,0,0,0,1.3,3.14,4.49,4.49,0,0,0,3.28,1.27,4.61,4.61,0,0,0,3.63-1.7l.82.62a5.39,5.39,0,0,1-1.93,1.52,6.21,6.21,0,0,1-2.59.53,5.32,5.32,0,0,1-5.6-5.48,5.07,5.07,0,0,1,1.6-3.81,5.49,5.49,0,0,1,4-1.54,5.85,5.85,0,0,1,2.61.57A5.07,5.07,0,0,1,146.58,18.2Zm1-.91v-1h5.67v1H151V26.6h-1.05V17.29Zm7.15-1h2.06a12,12,0,0,1,2.39.16,2.63,2.63,0,0,1,1.45.89,2.57,2.57,0,0,1,.56,1.71,2.64,2.64,0,0,1-.54,1.7,2.78,2.78,0,0,1-1.52.9,13.51,13.51,0,0,1-2.63.17h-.74V26.6h-1Zm1,1V20.8l1.76,0a4.52,4.52,0,0,0,1.55-.2,1.48,1.48,0,0,0,.77-.62,1.72,1.72,0,0,0,.29-1,1.66,1.66,0,0,0-.29-.95,1.5,1.5,0,0,0-.74-.62,4.54,4.54,0,0,0-1.51-.18ZM168.24,16a5.4,5.4,0,0,1,3.94,1.56,5.47,5.47,0,0,1,0,7.69,5.53,5.53,0,0,1-7.73,0,5.13,5.13,0,0,1-1.59-3.8,5.52,5.52,0,0,1,.72-2.76,5.37,5.37,0,0,1,2-2A5.31,5.31,0,0,1,168.24,16Zm0,1a4.32,4.32,0,0,0-2.17.59,4.33,4.33,0,0,0-2.18,3.86,4.35,4.35,0,0,0,4.35,4.37,4.39,4.39,0,0,0,2.23-.58,4.24,4.24,0,0,0,1.6-1.6,4.47,4.47,0,0,0,.57-2.24,4.39,4.39,0,0,0-4.4-4.4ZM184,26.6h-1.07V18.7l-6.82,7.9h-.23V16.28h1v8l6.85-8H184Zm-6.55-12.78h.93a1.41,1.41,0,0,0,.64.54,2.12,2.12,0,0,0,1,.19,2.28,2.28,0,0,0,.91-.16,1.8,1.8,0,0,0,.65-.57h.9a1.72,1.72,0,0,1-.79,1,3,3,0,0,1-1.67.43,3.09,3.09,0,0,1-1.69-.42A1.78,1.78,0,0,1,177.41,13.82Zm22.7,4.38-.81.63a4.43,4.43,0,0,0-1.62-1.33A4.82,4.82,0,0,0,195.6,17a4.59,4.59,0,0,0-2.3.6,4.22,4.22,0,0,0-1.63,1.59,4.39,4.39,0,0,0-.58,2.25,4.17,4.17,0,0,0,1.3,3.14,4.46,4.46,0,0,0,3.27,1.27,4.63,4.63,0,0,0,3.64-1.7l.81.62a5.23,5.23,0,0,1-1.93,1.52,6.17,6.17,0,0,1-2.58.53,5.3,5.3,0,0,1-5.6-5.48,5.1,5.1,0,0,1,1.59-3.81,5.49,5.49,0,0,1,4-1.54,5.89,5.89,0,0,1,2.62.57A5,5,0,0,1,200.11,18.2Zm2.08-1.92h5.93v1h-4.89v3.23h4.85v1h-4.85v4.05h4.85v1h-5.89Zm7.71,0H212a12,12,0,0,1,2.39.16,2.66,2.66,0,0,1,1.45.89,2.63,2.63,0,0,1,.56,1.71,2.59,2.59,0,0,1-.55,1.7,2.75,2.75,0,0,1-1.51.9,13.58,13.58,0,0,1-2.63.17h-.74V26.6h-1Zm1,1V20.8l1.75,0a4.44,4.44,0,0,0,1.55-.2A1.54,1.54,0,0,0,215,20a1.73,1.73,0,0,0,.28-1,1.68,1.68,0,0,0-.28-.95,1.59,1.59,0,0,0-.74-.62,4.54,4.54,0,0,0-1.51-.18Zm7.52-1h2a4.71,4.71,0,0,1,1.89.3,2.26,2.26,0,0,1,1,.89,2.48,2.48,0,0,1,.05,2.59,2.57,2.57,0,0,1-1,.92,4,4,0,0,1,1.24.64,2.49,2.49,0,0,1,.68.89,2.7,2.7,0,0,1,.24,1.13,2.76,2.76,0,0,1-.91,2.1,3.37,3.37,0,0,1-2.44.86h-2.85Zm1,1v3.3h.59a4.64,4.64,0,0,0,1.58-.2,1.68,1.68,0,0,0,1.1-1.59,1.36,1.36,0,0,0-.5-1.11,2.48,2.48,0,0,0-1.58-.4Zm0,4.34v3.95h1.28a4.55,4.55,0,0,0,1.66-.22,2,2,0,0,0,.85-.69,1.79,1.79,0,0,0-.14-2.22,2.3,2.3,0,0,0-1.23-.7,9.56,9.56,0,0,0-1.84-.12Zm15.36,5h-1.08V18.7L227,26.6h-.24V16.28h1v8l6.86-8h.23ZM247,18.2l-.82.63a4.27,4.27,0,0,0-1.62-1.33,4.82,4.82,0,0,0-2.08-.46,4.58,4.58,0,0,0-2.29.6,4.22,4.22,0,0,0-1.63,1.59,4.39,4.39,0,0,0-.58,2.25,4.2,4.2,0,0,0,1.29,3.14,4.49,4.49,0,0,0,3.28,1.27,4.59,4.59,0,0,0,3.63-1.7l.82.62a5.31,5.31,0,0,1-1.93,1.52,6.18,6.18,0,0,1-2.59.53,5.32,5.32,0,0,1-5.6-5.48,5.11,5.11,0,0,1,1.6-3.81,5.49,5.49,0,0,1,4-1.54,5.89,5.89,0,0,1,2.62.57A5.11,5.11,0,0,1,247,18.2ZM59.5,34.52h-.57V30.28h1v2.49l2.18-2.49h.51v4.24h-1V32.08Zm5.89-2.71H67V30.28H68v4.24H67V32.76H65.39v1.76H64.32V30.28h1.07Zm4.32,2.71V30.28h1.7a1.52,1.52,0,0,1,1.14.33,1.1,1.1,0,0,1,.31.75.93.93,0,0,1-.62.89,1.08,1.08,0,0,1,.84,1.08,1.12,1.12,0,0,1-.22.72,1.11,1.11,0,0,1-.57.38,3.84,3.84,0,0,1-1,.09ZM70.78,32h.41a.55.55,0,0,0,.4-.13.41.41,0,0,0,.1-.13.32.32,0,0,0,0-.16.34.34,0,0,0,0-.2.48.48,0,0,0-.1-.17.65.65,0,0,0-.15-.1.58.58,0,0,0-.18,0h-.49Zm0,1.75h.53a.58.58,0,0,0,.44-.14.46.46,0,0,0,.13-.29.59.59,0,0,0-.14-.38.67.67,0,0,0-.52-.17h-.44Zm8-1H75.4a1.13,1.13,0,0,0,.4.72,1.28,1.28,0,0,0,.82.26,1.46,1.46,0,0,0,1-.41l.9.42a2.16,2.16,0,0,1-.81.7,2.53,2.53,0,0,1-1.11.23A2.2,2.2,0,0,1,75,34a2.15,2.15,0,0,1-.63-1.58A2.22,2.22,0,0,1,75,30.81a2.13,2.13,0,0,1,1.57-.64,2.25,2.25,0,0,1,1.64.64,2.35,2.35,0,0,1,.62,1.7Zm-1.07-.84a1.11,1.11,0,0,0-.42-.58,1.3,1.3,0,0,0-.72-.22,1.32,1.32,0,0,0-.78.25,1.39,1.39,0,0,0-.39.55Zm6.68-.73-.89.48a1.72,1.72,0,0,0-.49-.36,1.63,1.63,0,0,0-.57-.1,1.32,1.32,0,0,0-1,.36,1.18,1.18,0,0,0-.37.91,1.21,1.21,0,0,0,.35.89,1.49,1.49,0,0,0,2-.15l.84.57a2.59,2.59,0,0,1-3.68.23,2.22,2.22,0,0,1-.33-2.69,2.1,2.1,0,0,1,.86-.81,2.67,2.67,0,0,1,1.24-.3,2.44,2.44,0,0,1,1.13.25A2.22,2.22,0,0,1,84.44,31.14Zm1.16-.86h4v1H88.15v3.23H87.08V31.29H85.6Zm5.81,4.24h-.57V30.28h1v2.49l2.18-2.49h.51v4.24h-1V32.08Zm4.82,0V30.28H97.3V33.5h1.59V30.28H100V33.5H101v1.76h-1v-.74Zm6.54,0h-.56V30.28h1v2.49l2.17-2.49h.51v4.24h-1V32.08Zm6.82-4.35a2.25,2.25,0,0,1,1.13.3,2.11,2.11,0,0,1,.83.82,2.15,2.15,0,0,1,.3,1.11,2.18,2.18,0,0,1-.3,1.11,2.15,2.15,0,0,1-.82.82,2.25,2.25,0,0,1-1.13.3,2.25,2.25,0,0,1-2-1.37,2.09,2.09,0,0,1-.16-.86,2.23,2.23,0,0,1,2.2-2.23Zm0,1a1.11,1.11,0,0,0-.83.35,1.22,1.22,0,0,0-.33.88,1.25,1.25,0,0,0,.33.9,1.08,1.08,0,0,0,.82.34,1.13,1.13,0,0,0,.84-.35,1.37,1.37,0,0,0,0-1.78,1.12,1.12,0,0,0-.38-.26A1.38,1.38,0,0,0,109.61,31.17Zm4.76.64H116V30.28H117v4.24H116V32.76h-1.59v1.76H113.3V30.28h1.07Zm5.38,0h1.59V30.28h1.07v4.24h-1.07V32.76h-1.59v1.76h-1.07V30.28h1.07Zm6.32-1.64a2.25,2.25,0,0,1,1.13.3,2.18,2.18,0,0,1,.83.82,2.14,2.14,0,0,1,.29,1.11,2.21,2.21,0,0,1-.3,1.12,2.1,2.1,0,0,1-.81.81,2.29,2.29,0,0,1-1.14.3,2.25,2.25,0,0,1-.85-.16,2.31,2.31,0,0,1-.71-.49,2.16,2.16,0,0,1-.48-.72,2.09,2.09,0,0,1-.16-.86,2.23,2.23,0,0,1,2.2-2.23Zm0,1a1.09,1.09,0,0,0-.82.35,1.22,1.22,0,0,0-.33.88,1.29,1.29,0,0,0,.32.9,1.17,1.17,0,0,0,1.66,0,1.35,1.35,0,0,0,0-1.78,1.22,1.22,0,0,0-.38-.26A1.44,1.44,0,0,0,126.08,31.17Zm6.09.74h2v1h-2Zm10.19-.77-.89.48a1.48,1.48,0,0,0-.49-.36,1.59,1.59,0,0,0-.57-.1,1.34,1.34,0,0,0-1,.36,1.22,1.22,0,0,0-.37.91,1.18,1.18,0,0,0,.36.89,1.31,1.31,0,0,0,.93.34,1.33,1.33,0,0,0,1.11-.49l.84.57a2.28,2.28,0,0,1-1.93.89,2.31,2.31,0,0,1-1.75-.66,2.14,2.14,0,0,1-.47-.72,2.16,2.16,0,0,1-.17-.83,2.27,2.27,0,0,1,.31-1.14,2.16,2.16,0,0,1,.86-.81,2.58,2.58,0,0,1,1.24-.3,2.51,2.51,0,0,1,1.14.25A2.19,2.19,0,0,1,142.36,31.14Zm1.17-.86h4v1h-1.41v3.23H145V31.29h-1.48Zm6.3,0v.47a1.86,1.86,0,0,1,.63-.43,1.72,1.72,0,0,1,.72-.15,1.86,1.86,0,0,1,1.41.63,2.26,2.26,0,0,1,.58,1.61,2.21,2.21,0,0,1-.6,1.58,1.89,1.89,0,0,1-1.43.64,1.91,1.91,0,0,1-.68-.13,2.08,2.08,0,0,1-.63-.43v2h-1.06V30.28Zm1.12.87a1.11,1.11,0,0,0-.83.35,1.21,1.21,0,0,0-.34.89,1.3,1.3,0,0,0,.34.92,1.1,1.1,0,0,0,.83.34,1.05,1.05,0,0,0,.82-.35,1.25,1.25,0,0,0,.34-.9,1.26,1.26,0,0,0-.33-.9,1,1,0,0,0-.38-.26A1.13,1.13,0,0,0,151,31.15Zm5.68-1a2.29,2.29,0,0,1,1.14.3,2.09,2.09,0,0,1,.82.82,2.15,2.15,0,0,1,.3,1.11,2.18,2.18,0,0,1-.3,1.11,2.06,2.06,0,0,1-.81.82,2.29,2.29,0,0,1-1.14.3,2.25,2.25,0,0,1-.85-.16,2.36,2.36,0,0,1-1.2-1.21,2.27,2.27,0,0,1-.16-.86,2.15,2.15,0,0,1,.73-1.65A2.13,2.13,0,0,1,156.63,30.17Zm0,1a1.11,1.11,0,0,0-.83.35,1.22,1.22,0,0,0-.33.88,1.25,1.25,0,0,0,.33.9,1.09,1.09,0,0,0,.83.34,1.11,1.11,0,0,0,.83-.35,1.24,1.24,0,0,0,.33-.89,1.28,1.28,0,0,0-.32-.89,1.16,1.16,0,0,0-.39-.26A1.38,1.38,0,0,0,156.65,31.17Zm4.26,3.35h-.57V30.28h1v2.49l2.18-2.49h.51v4.24h-1V32.08Zm4.44-4.24h4v1H167.9v3.23h-1.07V31.29h-1.48Zm9.5,2.43h-3.42a1.17,1.17,0,0,0,.39.72,1.31,1.31,0,0,0,.83.26,1.48,1.48,0,0,0,1-.41l.89.42a2.13,2.13,0,0,1-.8.7,2.54,2.54,0,0,1-1.12.23A2.19,2.19,0,0,1,171,34a2.15,2.15,0,0,1-.63-1.58,2.25,2.25,0,0,1,.62-1.61,2.16,2.16,0,0,1,1.58-.64,2.22,2.22,0,0,1,1.63.64,2.32,2.32,0,0,1,.63,1.7Zm-1.07-.84a1.09,1.09,0,0,0-.41-.58,1.33,1.33,0,0,0-.72-.22,1.34,1.34,0,0,0-.78.25,1.4,1.4,0,0,0-.4.55Zm6.32,2.65H179L178,31.84l-1.08,2.68h-1.08l1.81-4.24h.69Zm2.21-2.71h.32a3.82,3.82,0,0,1,1,.1,1.17,1.17,0,0,1,.61.43,1.35,1.35,0,0,1,.25.82,1.42,1.42,0,0,1-.23.82,1,1,0,0,1-.57.43,3.44,3.44,0,0,1-1,.11h-1.5V30.28h1.07Zm0,1.89h.33a1.35,1.35,0,0,0,.41,0,.46.46,0,0,0,.23-.16.42.42,0,0,0,.1-.28c0-.37-.21-.55-.63-.55h-.44ZM187,31.81h1.58V30.28h1.07v4.24h-1.07V32.76H187v1.76H185.9V30.28H187Zm7.46-1.53h1.06v4.24h-1.06v-.45a2.08,2.08,0,0,1-.63.43,1.79,1.79,0,0,1-.68.13A1.89,1.89,0,0,1,191.7,34a2.21,2.21,0,0,1-.6-1.58,2.26,2.26,0,0,1,.58-1.61,1.86,1.86,0,0,1,1.42-.63,1.79,1.79,0,0,1,.72.15,1.93,1.93,0,0,1,.62.43Zm-1.12.87a1.09,1.09,0,0,0-.83.35,1.26,1.26,0,0,0-.33.9,1.25,1.25,0,0,0,.34.9,1.05,1.05,0,0,0,.82.35,1.1,1.1,0,0,0,.83-.34,1.25,1.25,0,0,0,.34-.92,1.18,1.18,0,0,0-.34-.89.92.92,0,0,0-.38-.26A1.17,1.17,0,0,0,193.32,31.15Zm4.56,1.63a1.06,1.06,0,0,1-.56-.42,1.22,1.22,0,0,1-.22-.71,1.33,1.33,0,0,1,.27-.83,1.15,1.15,0,0,1,.64-.44,4.78,4.78,0,0,1,1.17-.1h1.08v4.24h-1.08V33H199l-1,1.53h-1.26l1.17-1.74Zm1.3-.59v-1h-.37c-.4,0-.6.17-.6.5s.22.52.67.52Zm5-1.91h1.07v1.59l1.47-1.59H208l-1.9,2.07L208,34.52H206.6L205.33,33l-.11.14v1.36h-1.07Zm6.88-.11a2.25,2.25,0,0,1,1.13.3,2.18,2.18,0,0,1,.83.82,2.15,2.15,0,0,1,.3,1.11,2.32,2.32,0,0,1-.3,1.12,2.06,2.06,0,0,1-.82.81,2.29,2.29,0,0,1-1.14.3,2.2,2.2,0,0,1-.84-.16,2.36,2.36,0,0,1-.72-.49,2.16,2.16,0,0,1-.48-.72,2.09,2.09,0,0,1-.16-.86,2.23,2.23,0,0,1,2.2-2.23Zm0,1a1.09,1.09,0,0,0-.83.35,1.22,1.22,0,0,0-.33.88,1.25,1.25,0,0,0,.33.9,1.06,1.06,0,0,0,.82.34,1.09,1.09,0,0,0,.83-.35,1.21,1.21,0,0,0,.34-.89,1.24,1.24,0,0,0-.33-.89,1.22,1.22,0,0,0-.38-.26A1.38,1.38,0,0,0,211.05,31.17ZM217.34,33l1.31-2.67h.7l1.06,4.24h-1L218.8,32l-1.26,2.49h-.44L215.86,32l-.57,2.49h-1l1.06-4.24H216Zm5.32,1.57h-1.07V30.28h3.72v4.24h-1.07V31.31h-1.58Zm7.46-4.24h1.06v4.24h-1.06v-.45a2.08,2.08,0,0,1-.63.43,1.79,1.79,0,0,1-.68.13,1.89,1.89,0,0,1-1.43-.64,2.21,2.21,0,0,1-.6-1.58,2.26,2.26,0,0,1,.58-1.61,1.86,1.86,0,0,1,1.42-.63,1.79,1.79,0,0,1,.72.15,1.93,1.93,0,0,1,.62.43Zm-1.12.87a1.09,1.09,0,0,0-.83.35,1.26,1.26,0,0,0-.33.9,1.25,1.25,0,0,0,.34.9,1.05,1.05,0,0,0,.82.35,1.11,1.11,0,0,0,.84-.34,1.28,1.28,0,0,0,.33-.92,1.21,1.21,0,0,0-.33-.89,1,1,0,0,0-.39-.26A1.17,1.17,0,0,0,229,31.15Zm4.91.66h1.58V30.28h1.08v4.24h-1.08V32.76h-1.58v1.76h-1.07V30.28h1.07Zm4.88,2.71h-.57V30.28h1v2.49l2.18-2.49H242v4.24h-1V32.08Zm5.55-1.74a1.09,1.09,0,0,1-.57-.42,1.29,1.29,0,0,1-.22-.71,1.33,1.33,0,0,1,.27-.83,1.15,1.15,0,0,1,.64-.44,4.78,4.78,0,0,1,1.17-.1h1.08v4.24h-1.07V33h-.21l-1,1.53h-1.26Zm1.3-.59v-1h-.37c-.41,0-.61.17-.61.5s.22.52.68.52Z"/></g></g></g></svg>