<svg xmlns="http://www.w3.org/2000/svg" viewBox="0 0 58 76"><defs><style>.cls-1{fill:#005889;fill-rule:evenodd;}</style></defs><g id="Слой_2" data-name="Слой 2"><g id="Режим_изоляции" data-name="Режим изоляции"><path class="cls-1" d="M29.31,48l5-5.47v9.31h6.18v-23H38.24L29,39.47,19.75,28.83H17.53v23H23.7V42.48l5,5.47Zm.53-26.73L29,4.29l-.84,16.93a4,4,0,0,0-3.05,3.94h7.77A4,4,0,0,0,29.84,21.22Zm4.45,11.2V28.83H23.7v3.59l.71.82V29.56h.71v4.49l.7.82V29.56h.71v6.12l.7.81V29.56h.71v7.75l.71.81V29.56h.7v8.56l.71-.81V29.56h.7v6.93l.71-.81V29.56h.71v5.31l.7-.82V29.56h.71v3.68ZM23,28.09H35v-2.2H23ZM45.07,75.94h.58V73.57h1.27v-.42H45.07Zm-1-1.72a.34.34,0,0,1-.09.14.35.35,0,0,1-.13.08l-.15,0H43.3v-.89h.36a.44.44,0,0,1,.3.11.43.43,0,0,1,.12.34A.56.56,0,0,1,44.05,74.22Zm-.31-1.07h-1v2.79h.59V74.87h.49a.9.9,0,0,0,.4-.08.77.77,0,0,0,.27-.19.83.83,0,0,0,.16-.29,1.06,1.06,0,0,0,.05-.31.85.85,0,0,0-.23-.62A1,1,0,0,0,43.74,73.15Zm-2.29,1-.23.68h0L41,74.17l-.38-1H40l.86,2.07H41l-.06.17a.27.27,0,0,1-.1.14.28.28,0,0,1-.13,0H40.6l-.19,0-.09.4a2,2,0,0,0,.55.08.55.55,0,0,0,.35-.1.68.68,0,0,0,.24-.35l.92-2.4h-.57l-.36,1Zm-2.38,1.25a.57.57,0,0,1-.13.08.45.45,0,0,1-.16,0h-.5v-.88h.47a.52.52,0,0,1,.17,0,.29.29,0,0,1,.14.08.3.3,0,0,1,.09.13.43.43,0,0,1,0,.19A.48.48,0,0,1,39.07,75.42Zm.46-1a.87.87,0,0,0-.3-.16,1.58,1.58,0,0,0-.38-.05h-.57v-.68h1.24v-.41H37.7v2.79h1.22a1.13,1.13,0,0,0,.36-.06.83.83,0,0,0,.27-.17.75.75,0,0,0,.18-.28,1,1,0,0,0,.06-.36.86.86,0,0,0-.07-.36A.7.7,0,0,0,39.53,74.45Zm-2.79-.23a.34.34,0,0,1-.09.14.25.25,0,0,1-.12.08l-.15,0H36v-.89h.36a.44.44,0,0,1,.3.11.43.43,0,0,1,.12.34A.45.45,0,0,1,36.74,74.22Zm-.3-1.07h-1v2.79H36V74.87h.49a1,1,0,0,0,.4-.08,1,1,0,0,0,.27-.19,1.18,1.18,0,0,0,.16-.29,1.06,1.06,0,0,0,0-.31.81.81,0,0,0-.23-.62A.94.94,0,0,0,36.44,73.15Zm-2.81,1.53H34.7v-.4H33.63v-.71H34.9v-.42H33.05v2.79H35v-.43H33.63Zm-3.19-1.1h.85v2.36h.57V73.58h.84v-.43H30.44Zm-1.56,1.1h1.06v-.4H28.88v-.71h1.27v-.42H28.3v2.79h1.9v-.43H28.88Zm-3.39,1.26h.58V73.59h1v2.35h.59V73.15H25.49Zm-1.62-.89H25v-.4H23.87Zm-2.56-1.47h.85v2.36h.57V73.58h.85v-.43H21.31Zm-.43,1.24a.53.53,0,0,0-.08-.15.68.68,0,0,0-.12-.12.53.53,0,0,0-.17-.08v0a.51.51,0,0,0,.22-.19,1,1,0,0,0,.13-.3l.19-.8H20.5l-.18.71a.7.7,0,0,1-.08.2.52.52,0,0,1-.1.11.38.38,0,0,1-.13.06h-.47V73.16H19v2.78h.56V74.69h.37a.46.46,0,0,1,.31.1.62.62,0,0,1,.15.29l.23.86h.58l-.25-1A.88.88,0,0,1,20.88,74.82Zm-3.06-.56h-1V73.15H16.2v2.79h.58V74.7h1v1.24h.59V73.15h-.58v1.11Zm-3.57.64.2-.72.16-.62h0l.16.6.2.74Zm0-1.75-.91,2.79h.57l.19-.64h1l.19.64h.59L15,73.15Zm-1.34,2.3a3.62,3.62,0,0,1-.46.06,1.15,1.15,0,0,1-.37-.06.5.5,0,0,1-.24-.19.83.83,0,0,1-.14-.3,2,2,0,0,1,0-.42,1.14,1.14,0,0,1,.19-.73.69.69,0,0,1,.57-.24,2.1,2.1,0,0,1,.56.08l.08-.44a1.92,1.92,0,0,0-.71-.11,1.35,1.35,0,0,0-.64.13,1.14,1.14,0,0,0-.4.35,1.38,1.38,0,0,0-.21.48,2.2,2.2,0,0,0-.06.5,2.47,2.47,0,0,0,.06.56,1.17,1.17,0,0,0,.21.45,1,1,0,0,0,.39.3,1.56,1.56,0,0,0,.62.11,2.25,2.25,0,0,0,.44,0l.21,0a.6.6,0,0,0,.19-.06l-.09-.41-.17,0Zm20-18.19V54.41h-.53l-.63.19V55l.58,0v2.3Zm-3.31-1.15c.12-.16.23-.34.34-.51l.18-.28.16-.24h0v1Zm1.25,1.15v-.73h.4v-.42h-.4v-1.7h-.6l-.16.24-.21.3-.23.34-.23.34-.21.3c-.06.1-.12.17-.16.24v.36h1.25v.73Zm-2.78-1.63,0,0a1.12,1.12,0,0,1-.25.11l-.2,0a.51.51,0,0,1-.2,0,.31.31,0,0,1-.13-.1.52.52,0,0,1-.07-.15,1.1,1.1,0,0,1,0-.18.55.55,0,0,1,.12-.35.42.42,0,0,1,.33-.13.49.49,0,0,1,.25.07.39.39,0,0,1,.14.17.88.88,0,0,1,.07.23,1.85,1.85,0,0,1,0,.23Zm-.16.93a.61.61,0,0,1-.19.2.55.55,0,0,1-.31.08H27.2a1.28,1.28,0,0,1-.28-.07l-.1.42a1,1,0,0,0,.25.07,1.56,1.56,0,0,0,.39,0,1.22,1.22,0,0,0,.56-.12,1.09,1.09,0,0,0,.37-.34,1.33,1.33,0,0,0,.21-.5,2.79,2.79,0,0,0,0-1.15,1.57,1.57,0,0,0-.18-.42,1,1,0,0,0-.33-.28,1,1,0,0,0-.5-.1,1.29,1.29,0,0,0-.4.06.8.8,0,0,0-.32.19.69.69,0,0,0-.2.3,1,1,0,0,0-.08.41,1,1,0,0,0,.07.4.83.83,0,0,0,.17.27.77.77,0,0,0,.27.17,1.14,1.14,0,0,0,.33,0,1.25,1.25,0,0,0,.61-.17h0a2,2,0,0,1-.05.24A1.15,1.15,0,0,1,27.92,56.56Zm-2,.7V54.41h-.53l-.63.19V55l.58,0v2.3ZM57.48,63l-2.81,2.85V63H53.22v5.78h.51L56.53,66v2.83H58V63Zm-9.9,2.91a1.4,1.4,0,1,1,2.79,0A1.4,1.4,0,1,1,47.58,65.93Zm-1.46,0a2.86,2.86,0,1,0,5.71,0A2.86,2.86,0,1,0,46.12,65.93Zm-3,.08h-1V64.36c.32,0,.68,0,1,0C43.9,64.37,43.85,66,43.07,66Zm-2.44-3v5.77h1.43V67.33h1c2.66,0,2.66-4.28,0-4.29Zm-4,5.77h1.4V64.36h1.36V63H35.3v1.32h1.37Zm-4.86.06a2.51,2.51,0,0,0,2.64-2.27h-1.4a1.2,1.2,0,0,1-1.24.93,1.47,1.47,0,0,1-1.38-1.6,1.43,1.43,0,0,1,1.38-1.61,1.16,1.16,0,0,1,1.21.85h1.4A2.5,2.5,0,0,0,31.81,63a2.95,2.95,0,0,0,0,5.89Zm-8-2.94a1.4,1.4,0,1,1,2.79,0A1.4,1.4,0,1,1,23.81,65.93Zm-1.46,0a2.86,2.86,0,1,0,5.71,0A2.86,2.86,0,1,0,22.35,65.93ZM18.44,66V64.36c.33,0,.69,0,1,0,.83,0,.78,1.65,0,1.65Zm1-3H17v5.77h1.43V67.33h1C22.13,67.33,22.13,63.05,19.47,63Zm-5,5.77V64.36h1.35V63H11.69v1.32h1.37v4.45Zm-5.9-2.32h1.89V65.18H8.57v-.82h2.06V63H7.16v5.77H10.7V67.5H8.57v-1Zm-5.87-1L.53,63H0v5.79H1.45V66.24l1.18,1.29h.16L4,66.24v2.57H5.43V63H4.92L2.7,65.53ZM57,62H54.92L56,63ZM23.7,57.26V54.4H13.08L3.23,23,29,3.53,54.76,23,44.93,54.4H34.31v2.86H46.92L58,21.87,29,0,0,21.87,11.08,57.26Z"/></g></g></svg>