<svg xmlns="http://www.w3.org/2000/svg" viewBox="0 0 231.41 101.49"><defs><style>.cls-1{fill:#faac19;}.cls-2{fill:#566770;}</style></defs><g id="Слой_2" data-name="Слой 2"><g id="Layer_1" data-name="Layer 1"><rect class="cls-1" x="2.13" width="9.21" height="13.46" rx="0.97" transform="translate(0 13.46) rotate(-90)"/><rect class="cls-2" x="46.14" y="2.13" width="9.21" height="9.21" rx="0.97" transform="translate(44.02 57.47) rotate(-90)"/><rect class="cls-2" x="134.17" y="2.13" width="9.21" height="9.21" rx="0.97" transform="translate(232.15 109.61) rotate(-135)"/><rect class="cls-1" x="178.19" y="-2.13" width="9.21" height="17.71" rx="1.35" transform="translate(176.06 189.52) rotate(-90)"/><rect class="cls-2" x="222.2" y="2.13" width="9.21" height="9.21" rx="0.97" transform="translate(220.08 233.53) rotate(-90)"/><rect class="cls-1" x="90.16" width="9.21" height="13.46" rx="1.17"/><rect class="cls-1" x="134.17" y="44.02" width="9.21" height="13.46" rx="0.97" transform="translate(88.03 189.52) rotate(-90)"/><rect class="cls-2" x="178.19" y="46.14" width="9.21" height="9.21" rx="0.97" transform="translate(132.05 233.53) rotate(-90)"/><rect class="cls-2" x="2.13" y="46.14" width="9.21" height="9.21" rx="0.97" transform="translate(-24.39 91.38) rotate(-135)"/><rect class="cls-1" x="46.14" y="41.89" width="9.21" height="17.71" rx="1.35" transform="translate(0 101.49) rotate(-90)"/><rect class="cls-2" x="90.16" y="46.14" width="9.21" height="9.21" rx="0.97" transform="translate(44.02 145.5) rotate(-90)"/><rect class="cls-1" x="222.2" y="44.02" width="9.21" height="13.46" rx="1.17"/><rect class="cls-1" x="178.19" y="88.03" width="9.21" height="13.46" rx="0.97" transform="translate(88.03 277.55) rotate(-90)"/><rect class="cls-2" x="222.2" y="90.16" width="9.21" height="9.21" rx="0.97" transform="translate(132.05 321.56) rotate(-90)"/><rect class="cls-2" x="46.14" y="90.16" width="9.21" height="9.21" rx="0.97" transform="translate(19.62 197.65) rotate(-135)"/><rect class="cls-1" x="90.16" y="85.91" width="9.21" height="17.71" rx="1.35" transform="translate(0 189.52) rotate(-90)"/><rect class="cls-2" x="134.17" y="90.16" width="9.21" height="9.21" rx="0.97" transform="translate(44.02 233.53) rotate(-90)"/><rect class="cls-1" x="2.13" y="88.03" width="9.21" height="13.46" rx="1.17"/></g></g></svg>