<svg xmlns="http://www.w3.org/2000/svg" xmlns:xlink="http://www.w3.org/1999/xlink" viewBox="0 0 64.63 64.63"><defs><style>.cls-1{fill:none;}.cls-2{clip-path:url(#clip-path);}.cls-3{fill:#fbac18;}.cls-4{fill:#546770;}</style><clipPath id="clip-path" transform="translate(0)"><rect class="cls-1" width="64.63" height="64.63"/></clipPath></defs><g id="Слой_2" data-name="Слой 2"><g id="icon-work"><g class="cls-2"><path class="cls-3" d="M46.74,52.9l4.83-4.83a1.2,1.2,0,0,0-1.68-1.72v0L45,51.2a1.2,1.2,0,0,0,0,1.7,1.19,1.19,0,0,0,1.69,0h0m10.45.78-4.84,4.84a1.19,1.19,0,0,0,0,1.69,1.2,1.2,0,0,0,1.7,0v0l4.84-4.83a1.2,1.2,0,1,0-1.69-1.71h0m.1-7.31L45.87,57.78a1.2,1.2,0,0,0,1.7,1.7L59,48.06a1.19,1.19,0,0,0,0-1.69,1.21,1.21,0,0,0-1.7,0v0" transform="translate(0)"/></g><g class="cls-2"><path class="cls-4" d="M33.22,0H0V64.63H64.63V0ZM62.83,31.71H49V1.8H62.83ZM36.13,62.83H33.22V33.51h14v8.66A28.62,28.62,0,0,0,36.13,62.83M31.42,31.71H1.8v-14H31.42Zm0,31.12H17.51V33.51H31.42ZM49,33.51H62.83v2.73A28.51,28.51,0,0,0,49,40.88ZM47.2,1.8V31.71h-14V1.8ZM1.8,1.8H31.42V15.71H1.8Zm0,31.71H15.71V62.83H1.8ZM37.93,62.83a26.84,26.84,0,0,1,11-19.72H49v0a26.72,26.72,0,0,1,13.83-5V62.83Z" transform="translate(0)"/></g></g></g></svg>