<svg xmlns="http://www.w3.org/2000/svg" xmlns:xlink="http://www.w3.org/1999/xlink" viewBox="0 0 65.03 64.58"><defs><style>.cls-1{fill:none;}.cls-2{fill:#fbac18;}.cls-3{clip-path:url(#clip-path);}.cls-4{fill:#546770;}</style><clipPath id="clip-path" transform="translate(0 0)"><rect class="cls-1" width="65.03" height="64.57"/></clipPath></defs><g id="Слой_2" data-name="Слой 2"><g id="icon-work"><path class="cls-2" d="M34,.16h2.4V14.48H34Z" transform="translate(0 0)"/><g class="cls-3"><path class="cls-2" d="M26.82,51.94l4.84-4.84A1.2,1.2,0,0,0,30,45.39h0l-4.83,4.84A1.2,1.2,0,1,0,26.81,52h0m10.45.78-4.83,4.83a1.2,1.2,0,1,0,1.68,1.71h0L39,54.41a1.2,1.2,0,0,0-1.68-1.71l0,0m.1-7.32L26,56.82a1.2,1.2,0,0,0,1.7,1.7L39.07,47.1a1.2,1.2,0,0,0-1.68-1.71h0" transform="translate(0 0)"/></g><g class="cls-3"><path class="cls-4" d="M65,33.45,55.79,8.89H38V0H27V8.89H9.15L0,33.45H6.28V64.58h52.8V33.45ZM28.56,1.6h7.82V13.05H28.56Zm-18.3,8.89H27v4.16H38V10.49h16.7l3,7.86H7.33Zm-8,21.36L6.74,20h51.5l4.48,11.9Zm15.3,9.21H47.34V63H17.61ZM57.49,63H48.94V39.46H16V63H7.88V33.45H57.49Z" transform="translate(0 0)"/></g></g></g></svg>