<svg xmlns="http://www.w3.org/2000/svg" xmlns:xlink="http://www.w3.org/1999/xlink" viewBox="0 0 67.69 64.41"><defs><style>.cls-1{fill:none;}.cls-2{clip-path:url(#clip-path);}.cls-3{fill:#fbac18;}.cls-4{fill:#546770;}</style><clipPath id="clip-path" transform="translate(0)"><rect class="cls-1" width="67.69" height="64.41"/></clipPath></defs><g id="Слой_2" data-name="Слой 2"><g id="icon-work"><g class="cls-2"><path class="cls-3" d="M7.37,12.62l4.84-4.84a1.2,1.2,0,1,0-1.69-1.71h0L5.67,10.92a1.2,1.2,0,0,0,1.69,1.71h0m10.45.78L13,18.24a1.19,1.19,0,0,0,0,1.69,1.21,1.21,0,0,0,1.7,0v0l4.84-4.83a1.2,1.2,0,0,0,0-1.7,1.19,1.19,0,0,0-1.69,0h0m.1-7.31L6.51,17.5A1.2,1.2,0,0,0,8.2,19.2L19.62,7.78a1.2,1.2,0,0,0-1.68-1.71h0" transform="translate(0)"/></g><g class="cls-2"><path class="cls-4" d="M55.92,18.31a.81.81,0,0,0-1-.58.76.76,0,0,0-.54.52H41.79a.77.77,0,0,0-1.45,0H27.61a.76.76,0,0,0-.54-.52.79.79,0,0,0-.95.52h-.9c.05-.34.09-.68.11-1h.05V0H.26V17.22h0A12.56,12.56,0,0,0,9.39,28.49l-7.6,29.1-.26,1L.26,63.41l-.26,1H1.35a4.37,4.37,0,0,1,1.14-.93h0l0,0a1.7,1.7,0,0,1,.86-.22,3.75,3.75,0,0,1,2.26.91v.26h9.91v-.28l0,0a2.48,2.48,0,0,1,1.75-.91,3.74,3.74,0,0,1,2.22.87v.3H29.84v-.28l0,0a2.52,2.52,0,0,1,1.75-.91,3.53,3.53,0,0,1,2.22.87v.3H44l.91-3.73h0L55.11,21.62,65.63,62.81H53.37a.8.8,0,0,0,0,1.6H67.69ZM27.1,20.62a1,1,0,0,0,.1-.21l.14-.56H39.9l-.06.2a.57.57,0,0,0,0,.13L34.5,40.53H26.33a5.32,5.32,0,0,0-3.21-1.17,4.13,4.13,0,0,0-1,.18ZM1.87,16.42h0V1.6H23.78V16.42h0a11,11,0,1,1-21.91,0M11,28.82a12.73,12.73,0,0,0,1.86.16,12.57,12.57,0,0,0,12.06-9.13h.77L20.23,40.53H12.38a5.22,5.22,0,0,0-3.21-1.17,3.69,3.69,0,0,0-1,.19Zm3.42,34H6.53a5.28,5.28,0,0,0-3.2-1.17,3.77,3.77,0,0,0-1,.19L7.6,41.75A2.38,2.38,0,0,1,9.22,41a3.64,3.64,0,0,1,2.27.9v.27h8.32Zm14.28,0H20.49a5.17,5.17,0,0,0-3.21-1.17,3.55,3.55,0,0,0-1,.19l5.27-20.1a2.35,2.35,0,0,1,1.6-.77,3.56,3.56,0,0,1,2.22.87v.3h8.69Zm14,0H34.77a5.19,5.19,0,0,0-3.2-1.17,3.69,3.69,0,0,0-1,.19l5.26-20.08A2.42,2.42,0,0,1,37.46,41a3.74,3.74,0,0,1,2.21.86v.31h8.41ZM48.5,40.53H40.61a5.39,5.39,0,0,0-3.2-1.17,3.77,3.77,0,0,0-1,.19l5.17-19.7H53.92Z" transform="translate(0)"/></g></g></g></svg>