<svg xmlns="http://www.w3.org/2000/svg" viewBox="0 0 475.6 309.67"><defs><style>.cls-1,.cls-2{fill:#546770;}.cls-2{opacity:0.3;}</style></defs><g id="Слой_2" data-name="Слой 2"><g id="Layer_1" data-name="Layer 1"><path class="cls-1" d="M471.6,142.4,429.6,60a26.63,26.63,0,0,0-24-14.8H294.4V7.2A7.17,7.17,0,0,0,287.2,0H7.2A7.17,7.17,0,0,0,0,7.2V202.8A7.17,7.17,0,0,0,7.2,210H27.6l23.6,44.8c1.2,31.2,27.2,56,58.4,54.8A56.64,56.64,0,0,0,164,260h34.4v6.8A15.11,15.11,0,0,0,213.2,282h66c8.4,0,14.8-6.8,15.2-15.2V260h17.2A56.63,56.63,0,0,0,424,260h44.4a7.17,7.17,0,0,0,7.2-7.2V160a42.12,42.12,0,0,0-4-17.6Zm-10,71.2L443.2,208V198h18.4Zm-4.4-68H369.6L325.2,124V90h104ZM14.4,14.4H280.8V196H14.4ZM70.8,209.6a56.87,56.87,0,0,0-15.6,22l-11.6-22ZM108,295.2a42.8,42.8,0,1,1,42.8-42.8A42.85,42.85,0,0,1,108,295.2Zm56.4-49.6A53.59,53.59,0,0,0,145.2,210H280.4v14.4H213.6c-8.4,0-14.8,6.8-15.2,15.2v6.8Zm116,20.4a1.28,1.28,0,0,1-1.2,1.2H213.6a1.28,1.28,0,0,1-1.2-1.2V238.8q0-.6,1.2-1.2h66q.6,0,1.2,1.2V266ZM368,295.2a42.8,42.8,0,1,1,42.8-42.8A42.85,42.85,0,0,1,368,295.2Zm56.4-49.6a56.63,56.63,0,0,0-112.4,0H294.8V59.2H406a13.35,13.35,0,0,1,11.6,7.2l4.8,9.6H318a7.1,7.1,0,0,0-7.2,6.8v45.6a7.13,7.13,0,0,0,4,6.4l49.6,24a7.54,7.54,0,0,0,3.2.8h93.6V184H435.6a7.38,7.38,0,0,0-7.2,6.8v22.4a7,7,0,0,0,4.8,6.8l27.6,8.4v17.2Z"/><polygon class="cls-2" points="461.4 213.63 443 208.03 443 198.03 461.4 198.03 461.4 213.63"/><polygon class="cls-2" points="457 145.63 369.4 145.63 325 124.03 325 90.03 429 90.03 457 145.63"/><rect class="cls-2" x="14.2" y="14.43" width="266.4" height="181.6"/><path class="cls-2" d="M70.6,209.63a56.87,56.87,0,0,0-15.6,22l-11.6-22Z"/><circle class="cls-2" cx="107.8" cy="252.43" r="42.8"/><path class="cls-2" d="M164.2,245.63A53.59,53.59,0,0,0,145,210H280.2v14.4H213.4c-8.4,0-14.8,6.8-15.2,15.2v6.8Z"/><path class="cls-2" d="M280.2,266a1.28,1.28,0,0,1-1.2,1.2H213.4a1.28,1.28,0,0,1-1.2-1.2v-27.2q0-.6,1.2-1.2h66q.6,0,1.2,1.2V266Z"/><circle class="cls-2" cx="367.8" cy="252.43" r="42.8"/><path class="cls-2" d="M424.2,245.63a56.63,56.63,0,0,0-112.4,0H294.6V59.23H405.8a13.35,13.35,0,0,1,11.6,7.2l4.8,9.6H317.8a7.1,7.1,0,0,0-7.2,6.8v45.6a7.13,7.13,0,0,0,4,6.4l49.6,24a7.54,7.54,0,0,0,3.2.8H461V184H435.4a7.38,7.38,0,0,0-7.2,6.8v22.4A7,7,0,0,0,433,220l27.6,8.4v17.2Z"/></g></g></svg>