<svg xmlns="http://www.w3.org/2000/svg" viewBox="0 0 470 469.96"><defs><style>.cls-1,.cls-2{fill:#546770;}.cls-2{opacity:0.3;}</style></defs><g id="Слой_2" data-name="Слой 2"><g id="Layer_1" data-name="Layer 1"><path class="cls-1" d="M470,103a103,103,0,0,0-205.74-7H7a7,7,0,0,0-7,7V463a7,7,0,0,0,7,7H367a7,7,0,0,0,7-7h0V205.7A103.12,103.12,0,0,0,470,103Zm-332,7h98v146.3l-44.05-44a7,7,0,0,0-9.89,0h0l-44.05,44Zm112,0h14.26a103.09,103.09,0,0,0,51,82H250Zm-126,0v82H14V110ZM14,456V206H124v67.2A7,7,0,0,0,136,278.11L187,227.06l51.05,51.05A7,7,0,0,0,250,273.16V206H360V456ZM367,192a89,89,0,1,1,89-89A89,89,0,0,1,367,192Z"/><path class="cls-1" d="M407,108H388.2V51a7,7,0,0,0-7-7H352.8a7,7,0,0,0-7,7h0v57H327a7,7,0,0,0-4.95,12l40,40a7,7,0,0,0,9.89,0h0l40-40A7,7,0,0,0,407,108Zm-40,37.1L343.9,122h8.89a7,7,0,0,0,7-7h0V58h14.4v57a7,7,0,0,0,7,7h8.89Z"/><path class="cls-1" d="M131,364H51a7,7,0,0,0-7,7v48a7,7,0,0,0,7,7h80a7,7,0,0,0,7-7V371A7,7,0,0,0,131,364Zm-7,48H58V378h66Z"/><path class="cls-2" d="M367,0A103,103,0,0,0,264.26,96H7a7,7,0,0,0-7,7V463a7,7,0,0,0,7,7H367a7,7,0,0,0,7-7V205.7A103,103,0,0,0,367,0Z"/></g></g></svg>