<svg xmlns="http://www.w3.org/2000/svg" viewBox="0 0 366 470"><defs><style>.cls-1,.cls-2{fill:#546770;}.cls-2{opacity:0.3;}</style></defs><g id="Слой_2" data-name="Слой 2"><g id="Layer_1" data-name="Layer 1"><path class="cls-1" d="M359,0H7A7,7,0,0,0,0,7V463a7,7,0,0,0,7,7H359a7,7,0,0,0,7-7h0V7A7,7,0,0,0,359,0Zm-7,456H14V14H352Z"/><path class="cls-1" d="M41.84,403.16a25,25,0,0,1,25,25,7,7,0,0,0,7,7H292.16a7,7,0,0,0,7-7,25,25,0,0,1,25-25,7,7,0,0,0,7-7V73.84a7,7,0,0,0-7-7h0a25,25,0,0,1-25-25,7,7,0,0,0-7-7H73.84a7,7,0,0,0-7,7h0a25,25,0,0,1-25,25,7,7,0,0,0-7,7h0V396.16A7,7,0,0,0,41.84,403.16Zm7-323A39.11,39.11,0,0,0,80.2,48.84H285.8A39.11,39.11,0,0,0,317.16,80.2V389.8a39.11,39.11,0,0,0-31.37,31.37H80.2A39.11,39.11,0,0,0,48.83,389.8Z"/><path class="cls-1" d="M141.34,106.67h83.32a7,7,0,0,0,0-14H141.34a7,7,0,0,0,0,14Z"/><path class="cls-1" d="M99.67,160.8H266.33a7,7,0,0,0,0-14H99.67a7,7,0,0,0,0,14Z"/><path class="cls-1" d="M99.67,214.93H266.33a7,7,0,0,0,0-14H99.67a7,7,0,0,0,0,14Z"/><path class="cls-1" d="M99.67,269.07H183a7,7,0,0,0,0-14H99.67a7,7,0,0,0,0,14Z"/><path class="cls-1" d="M266.33,359.33c-18,0-22.62-9.34-22.75-9.6a7,7,0,0,0-13.38,1.57,9.51,9.51,0,0,1-5.6,7.56c-.54.15-1.37.37-2.66-1.2-4.44-5.47-9.3-30.4-11.32-46.33a7,7,0,0,0-7-6.12h0a7,7,0,0,0-6.93,6.16c-3.9,32.54-19.87,65.77-20,66.1a7,7,0,0,0,12.47,6.37l.12-.26a268.91,268.91,0,0,0,13.86-36.26,56.87,56.87,0,0,0,7.94,19.2,16.3,16.3,0,0,0,17.15,5.9,20.76,20.76,0,0,0,10.67-7.31,43.3,43.3,0,0,0,27.42,8.25,7,7,0,1,0,0-14Z"/><rect class="cls-2" width="366" height="470" rx="7"/></g></g></svg>