<svg xmlns="http://www.w3.org/2000/svg" viewBox="0 0 402.46 469.53"><defs><style>.cls-1,.cls-2{fill:#546770;}.cls-2{opacity:0.3;}</style></defs><g id="Слой_2" data-name="Слой 2"><g id="Layer_1" data-name="Layer 1"><path class="cls-1" d="M401.66,334.71l-38.8-71.2s-8.4-93.2-11.2-124.4a6.24,6.24,0,0,0-3.2-5.2S159.26,7.51,149.66,1.11a6.81,6.81,0,0,0-9.2,1.6c-14,17.2-55.2,68.8-55.2,68.8a8.39,8.39,0,0,0-1.6,4.4l-1.2,65.2L1.26,262.71a6.68,6.68,0,0,0-.4,7.2l64,117.6c.8,1.2,1.6,2.4,3.2,2.8,0,0,141.6,68.4,162.4,78.4a6.09,6.09,0,0,0,7.2-.8c21.6-16.4,161.6-125.2,161.6-125.2,3.2-1.2,4-4.8,2.4-8Zm-145.2-161.2-88-142.8,162,108Zm2.8,14,79.2-37.2,9.6,106.8-110-20.8Zm92,84.4,32.4,59.2-124.4.4-21.2-81.2Zm-91.6,73.6,115.2-.4-131.2,101.6Zm-244.4-78.4,75.6-113.6,29.2,21.2,18.8,62.4a6.38,6.38,0,0,0,2.8,3.6l17.2,12a6.88,6.88,0,0,0,8-11.2l-15.2-10.4-18.8-62.4a5.82,5.82,0,0,0-2.4-3.6l-34-24.8.8-62,47.6-59.2,100.8,164-24,55.6a8.18,8.18,0,0,0,0,4.4l25.2,95.6-18,114-141.2-68.4,30.4-14.8a6.81,6.81,0,0,0,4-5.2l5.2-30.4a6.91,6.91,0,0,0-13.6-2.4l-4.4,26.8-34.4,16.8Z"/><polygon class="cls-2" points="256.52 173.51 168.52 30.71 330.52 138.71 256.52 173.51"/><polygon class="cls-2" points="259.32 187.51 338.52 150.31 348.12 257.11 238.12 236.31 259.32 187.51"/><polygon class="cls-2" points="351.32 271.91 383.72 331.11 259.32 331.51 238.12 250.31 351.32 271.91"/><polygon class="cls-2" points="259.72 345.51 374.92 345.11 243.72 446.71 259.72 345.51"/><path class="cls-2" d="M15.32,267.11l75.6-113.6,29.2,21.2,18.8,62.4a6.38,6.38,0,0,0,2.8,3.6l17.2,12a6.88,6.88,0,0,0,8-11.2l-15.2-10.4-18.8-62.4a5.82,5.82,0,0,0-2.4-3.6l-34-24.8.8-62,47.6-59.2,100.8,164-24,55.6a8.18,8.18,0,0,0,0,4.4l25.2,95.6-18,114-141.2-68.4,30.4-14.8a6.81,6.81,0,0,0,4-5.2l5.2-30.4a6.91,6.91,0,0,0-13.6-2.4l-4.4,26.8-34.4,16.8Z"/></g></g></svg>