<svg xmlns="http://www.w3.org/2000/svg" viewBox="0 0 512 512"><defs><style>.cls-1,.cls-2{fill:#546770;}.cls-2{opacity:0.3;}</style></defs><g id="Слой_2" data-name="Слой 2"><g id="Layer_1" data-name="Layer 1"><path class="cls-1" d="M505,34.4H248.22A7,7,0,0,0,243,46.08l76.12,84.54H208V22.92A7,7,0,0,0,206,18,60.29,60.29,0,0,0,162.83,0h0a60.29,60.29,0,0,0-43.15,18,7,7,0,0,0-2,4.92v107.7H73.06a36.87,36.87,0,0,0-73.06,7v337.5A36.92,36.92,0,0,0,36.88,512H505a7,7,0,0,0,7-7V41.39A7,7,0,0,0,505,34.4Zm-7,14v260l-11.82-13.13L340.07,132.94h0L263.94,48.4ZM133.14,370l9.54-9.54a28.49,28.49,0,0,1,40.29,0h0l9.54,9.54-11.4,23.36H144.54ZM194,351.72a42.83,42.83,0,0,0-60.53-1.81c-.62.59-1.23,1.19-1.81,1.81v-234H194Zm0-248H131.66v-29H194ZM151.38,407.4h22.9l-11.45,23.47ZM131.66,25.91a46.74,46.74,0,0,1,62.34,0V60.74H131.66ZM14,137.62a22.88,22.88,0,0,1,45.75,0V438.25H36.88a37.3,37.3,0,0,0-22.88,8ZM36.88,498a22.88,22.88,0,0,1-.61-45.75H66.75a7,7,0,0,0,7-7V144.62h43.91v224a9.09,9.09,0,0,0,.7,3.08l38.18,78.2a7,7,0,0,0,12.58,0l22.66-46.42,15.51-31.78a9.34,9.34,0,0,0,.71-3.08v-224H331.75L498,329.28V498Z"/><path class="cls-1" d="M383.48,142.3h0l76.31,84.77A7,7,0,0,0,472,222.4v-141a7,7,0,0,0-7-7H338.06a7,7,0,0,0-5.2,11.68Zm20.93,2.32H458v59.53ZM458,88.4v42.22H391.8l-38-42.22Z"/><path class="cls-1" d="M434,411.82H213a7,7,0,1,0,0,14H434a7,7,0,0,0,0-14Z"/><path class="cls-1" d="M434,361.62H256a7,7,0,0,0,0,14H434a7,7,0,0,0,0-14Z"/><path class="cls-1" d="M434,311.42H256a7,7,0,0,0,0,14H434a7,7,0,0,0,0-14Z"/><path class="cls-2" d="M505,34.4H248.22A7,7,0,0,0,243,46.08l76.12,84.54H208V22.92A7,7,0,0,0,206,18a60.71,60.71,0,0,0-86.29,0,7,7,0,0,0-2,4.92v107.7H73.06a36.87,36.87,0,0,0-73.06,7v337.5A36.92,36.92,0,0,0,36.88,512H505a7,7,0,0,0,7-7V41.39A7,7,0,0,0,505,34.4Z"/></g></g></svg>