<svg xmlns="http://www.w3.org/2000/svg" viewBox="0 0 126 30.89"><defs><style>.cls-1{fill:#302f36;}</style></defs><g id="Слой_2" data-name="Слой 2"><g id="Слой_1-2" data-name="Слой 1"><path class="cls-1" d="M8,26.61H26.37L28,24.79H6.28ZM4.52,22.92H29.7l2-2.2H2.46ZM32,15.87H2.12L0,18.09l.16.17H33.92l.15-.17Zm-6-6.4H8.22l-2.1,2.19h22ZM11.77,30.66H22.7l1.85-2.05H9.86ZM28.93,12.57H5.26L3,15H31.16ZM17.24,0,9.08,8.56H25.2Z"/><path class="cls-1" d="M39.09,6.66a3.58,3.58,0,0,1,.81-2.6,3.54,3.54,0,0,1,2.59-.8c2,0,3,.71,3.31,2.32h-1c-.27-1-1-1.39-2.29-1.39-1.68,0-2.41.73-2.41,2.47s.73,2.47,2.41,2.47c1.3,0,2-.43,2.29-1.39h1c-.29,1.61-1.32,2.32-3.31,2.32a3.54,3.54,0,0,1-2.59-.8A3.58,3.58,0,0,1,39.09,6.66Z"/><path class="cls-1" d="M52.63,4.26h-2.8V10h-1V4.26h-2.8V3.33h6.58Z"/><path class="cls-1" d="M54.46,6.66h2.26c1,0,1.36-.36,1.36-1.2s-.41-1.2-1.36-1.2H54.46Zm-1,3.33V3.33h3.31c1.59,0,2.28.64,2.28,2.13s-.69,2.13-2.28,2.13H54.46V10Z"/><path class="cls-1" d="M60.72,6.66a2.58,2.58,0,0,0,.58,1.88,2.48,2.48,0,0,0,1.84.59A2.51,2.51,0,0,0,65,8.54a2.63,2.63,0,0,0,.57-1.88A2.64,2.64,0,0,0,65,4.77a2.51,2.51,0,0,0-1.84-.58,2.48,2.48,0,0,0-1.84.58A2.59,2.59,0,0,0,60.72,6.66Zm2.42-3.4a3.54,3.54,0,0,1,2.59.8,3.54,3.54,0,0,1,.81,2.6,3.54,3.54,0,0,1-.81,2.6,3.54,3.54,0,0,1-2.59.8,3.57,3.57,0,0,1-2.6-.8,3.58,3.58,0,0,1-.81-2.6,3.58,3.58,0,0,1,.81-2.6,3.57,3.57,0,0,1,2.6-.8"/><path class="cls-1" d="M67.63,10V3.33h1V8.55l4.43-5.22h1V10h-1V4.77L68.62,10Z"/><path class="cls-1" d="M81.46,4.26h-2.8V10h-1V4.26h-2.8V3.33h6.58Z"/><path class="cls-1" d="M87.76,10H82.3V3.33h5.46v.93H83.29v2h4V7.1h-4v2h4.47Z"/><path class="cls-1" d="M88.4,10V9h.34a.52.52,0,0,0,.44-.22,2.82,2.82,0,0,0,.29-1c.08-.55.16-1.36.21-2.43l.08-2h5V10h-1V4.26H90.69l0,1.13c-.21,3.75-.55,4.54-1.82,4.6Z"/><path class="cls-1" d="M97.08,6.75V9.06h2.27c1,0,1.36-.36,1.36-1.16s-.41-1.15-1.36-1.15Zm-1-3.42h1V5.82H99.4c1.6,0,2.29.63,2.29,2.08S101,10,99.4,10H96.09Z"/><path class="cls-1" d="M103.67,10h-1V3.33h1V6.19h4.52V3.33h1V10h-1V7.13h-4.52Z"/><path class="cls-1" d="M117.24,3.33h1V10h-1Zm-5.71,3.42V9.06h2.26c.95,0,1.36-.36,1.36-1.16s-.41-1.15-1.36-1.15Zm-1-3.42h1V5.82h2.32c1.59,0,2.28.63,2.28,2.08S115.44,10,113.85,10h-3.31Z"/><path class="cls-1" d="M121.48,1c0,.62.45,1.1,1.32,1.1s1.31-.46,1.31-1.1H125c0,1.14-.69,1.86-2.18,1.86s-2.19-.73-2.19-1.86Zm-1.89,2.35h1V8.55L125,3.33h1V10h-1V4.77L120.58,10h-1Z"/><path class="cls-1" d="M55.59,15.79H48.18V30.73H46.56V15.79H39.15V14.26H55.59Z"/><path class="cls-1" d="M60.3,15.79v7h6.33c2.75,0,4-1,4-3.49s-1.2-3.5-4-3.5ZM58.68,30.73V14.26h8c3.86,0,5.51,1.53,5.51,5s-1.65,5-5.51,5H60.3v6.4Z"/><path class="cls-1" d="M89,30.73H75.62V14.26H89v1.53H77.24v6H87.78v1.46H77.24v6H89Z"/><path class="cls-1" d="M100,14.09c4.73,0,7.29,1.67,8.07,5.34h-1.67c-.78-2.61-2.83-3.78-6.4-3.78-4.73,0-6.78,2-6.78,6.84s2.05,6.85,6.78,6.85c3.57,0,5.62-1.2,6.4-3.83h1.69c-.82,3.74-3.36,5.38-8.09,5.38-5.86,0-8.4-2.54-8.4-8.4S94.16,14.09,100,14.09Z"/><path class="cls-1" d="M126,15.79h-7.41V30.73H117V15.79h-7.41V14.26H126Z"/></g></g></svg>