<svg xmlns="http://www.w3.org/2000/svg" viewBox="0 0 430.92 61.52"><defs><style>.cls-1,.cls-3{fill:#268ebf;}.cls-2{fill:#0f298f;}.cls-2,.cls-3{fill-rule:evenodd;}.cls-4{fill:#fd0015;}.cls-5{fill:#a9000f;}</style></defs><g id="Слой_2" data-name="Слой 2"><g id="_лой_1" data-name="—лой 1"><rect class="cls-1" x="33.82" width="7.93" height="27.53"/><rect class="cls-1" x="43.21" width="7.93" height="27.53"/><polygon class="cls-2" points="51.14 26.3 43.21 26.3 43.21 45.55 17.35 45.55 17.35 35.22 41.77 35.22 41.77 26.3 33.83 26.3 33.83 27.24 9.37 27.24 9.37 53.53 51.14 53.53 51.14 26.3"/><polygon class="cls-3" points="0 26.91 7.93 26.91 7.93 25.83 32.38 25.83 32.38 0 0 0 0 7.98 24.39 7.98 24.39 17.84 0 17.84 0 26.91"/><rect class="cls-4" x="52.6" width="7.93" height="27.37"/><path d="M255.29,18.48v18a12,12,0,0,0,.54,3.89A5,5,0,0,0,257.64,43a5.57,5.57,0,0,0,3.33.92,18,18,0,0,0,3.21-.33,27.42,27.42,0,0,0,3.5-.92A26.92,26.92,0,0,0,271,41.28l.8,2.28h4.62V18.48h-6.3V35.76a23.19,23.19,0,0,1-4.67,1.81,7.63,7.63,0,0,1-1.88.28,1.72,1.72,0,0,1-2-2V18.48Z"/><path d="M163.55,18.48v18a12,12,0,0,0,.54,3.89A5,5,0,0,0,165.9,43a5.57,5.57,0,0,0,3.33.92,18.12,18.12,0,0,0,3.21-.33,27.29,27.29,0,0,0,3.49-.92,26.46,26.46,0,0,0,3.36-1.35l.73,2.28h4.69V18.48h-6.3V35.76a22.67,22.67,0,0,1-2.36,1.06,22,22,0,0,1-2.31.75,7.63,7.63,0,0,1-1.88.28,1.72,1.72,0,0,1-2-2V18.48Z"/><path d="M126.14,43.89V38.62a6.14,6.14,0,0,0,2.64-.48,3.05,3.05,0,0,0,1.47-1.43,5.29,5.29,0,0,0,.44-2.34V27.74a5.29,5.29,0,0,0-.44-2.34A3.05,3.05,0,0,0,128.78,24a6.14,6.14,0,0,0-2.64-.48V18.22a15.16,15.16,0,0,1,5.25.81,7.68,7.68,0,0,1,5,5.26,12.52,12.52,0,0,1,.49,3.65v6.23a12.52,12.52,0,0,1-.49,3.65,7.73,7.73,0,0,1-5,5.26,15.16,15.16,0,0,1-5.25.81Zm26.22,0h0c.68,0,1.38,0,2.1-.11s1.42-.19,2.09-.32a16.05,16.05,0,0,0,1.83-.48l-.75-5.07a20,20,0,0,1-2.64.5,19.68,19.68,0,0,1-2.48.16,7.41,7.41,0,0,1-2.76-.39,2.51,2.51,0,0,1-1.44-1.3,5.63,5.63,0,0,1-.4-2.41V27.64a5.68,5.68,0,0,1,.4-2.42,2.54,2.54,0,0,1,1.44-1.3,7.66,7.66,0,0,1,2.76-.38c.42,0,.91,0,1.5.06s1.19.12,1.82.22,1.23.22,1.8.37l.76-5.06a17.67,17.67,0,0,0-2-.51c-.7-.13-1.4-.23-2.11-.3s-1.34-.1-1.92-.1a16,16,0,0,0-6.2,1,6.44,6.44,0,0,0-3.39,3.09,11.89,11.89,0,0,0-1,5.4v6.73a11.92,11.92,0,0,0,1,5.4,6.44,6.44,0,0,0,3.39,3.09,16,16,0,0,0,6.2,1ZM99.53,32.63h.94a16.33,16.33,0,0,0,6.34-1.05,7,7,0,0,0,3.54-3.06,10.08,10.08,0,0,0,1.11-5V19a10.54,10.54,0,0,0-1-5A6.74,6.74,0,0,0,107,10.89a15.7,15.7,0,0,0-6.24-1.05H99.53v5.62h.89a7.41,7.41,0,0,1,2.76.42,2.74,2.74,0,0,1,1.47,1.3,5.1,5.1,0,0,1,.43,2.28v3.45a5.38,5.38,0,0,1-.41,2.3,2.69,2.69,0,0,1-1.44,1.35,7.13,7.13,0,0,1-2.81.45h-.89v5.62Zm26.61-14.41a15.06,15.06,0,0,0-5.24.81,7.71,7.71,0,0,0-5,5.26,13.24,13.24,0,0,0-.49,3.65v6.23a13.24,13.24,0,0,0,.49,3.65,7.76,7.76,0,0,0,5,5.26,15.06,15.06,0,0,0,5.24.81V38.62a6.14,6.14,0,0,1-2.64-.48A3,3,0,0,1,122,36.71a5.15,5.15,0,0,1-.45-2.34V27.74A5.15,5.15,0,0,1,122,25.4,3,3,0,0,1,123.5,24a6.14,6.14,0,0,1,2.64-.48V18.22ZM87.61,43.56V9.85H99.53v5.61H94V27h5.54v5.62H94V43.56Z"/><polygon points="206.24 18.45 206.24 27.61 196.98 27.61 196.98 18.43 190.81 18.43 190.81 43.56 196.98 43.56 196.98 33.79 206.24 33.79 206.24 43.56 212.42 43.56 212.42 18.45 206.24 18.45"/><polygon points="240.03 27.61 237.14 27.61 237.14 18.48 237.11 18.48 230.96 18.48 230.94 18.48 230.94 27.61 228.04 27.61 222.63 18.48 215.85 18.48 223.39 31.02 215.96 43.56 222.84 43.56 228.48 33.79 230.94 33.79 230.94 43.56 237.14 43.56 237.14 33.79 239.6 33.79 245.23 43.56 252.12 43.56 244.68 31.02 252.22 18.48 245.44 18.48 240.03 27.61"/><polygon points="297.4 18.51 297.4 27.67 288.14 27.67 288.14 18.48 281.96 18.48 281.96 43.56 288.14 43.56 288.14 33.84 297.4 33.84 297.4 43.56 303.57 43.56 303.57 18.51 297.4 18.51"/><polygon points="403.46 18.49 403.46 27.65 394.2 27.65 394.2 18.46 388.02 18.46 388.02 43.6 394.2 43.6 394.2 33.82 403.46 33.82 403.46 43.6 409.63 43.6 409.63 18.49 403.46 18.49"/><path d="M415.15,18.47V43.61h6.17V23.73h8.79l.81-5.27Z"/><path d="M356.35,26.75c0-2.81-.64-4.92-1.92-6.36a7.2,7.2,0,0,0-5.64-2.16,13,13,0,0,0-2.85.31v5.05a7.3,7.3,0,0,1,1.23-.11,3.6,3.6,0,0,1,1.79.36,2,2,0,0,1,1,1.06,4.12,4.12,0,0,1,.28,1.7v8.68a3.57,3.57,0,0,1-.71,2.47,3,3,0,0,1-2.37.81c-.38,0-.78,0-1.18-.05V43.7H346c.76.06,1.5.09,2.23.09a9.35,9.35,0,0,0,4.64-1,6.14,6.14,0,0,0,2.64-3,11.42,11.42,0,0,0,.84-4.68V26.75Zm-10.41-8.21v5.05a7.73,7.73,0,0,0-.8.19,9.67,9.67,0,0,0-1.9.8,7.76,7.76,0,0,0-1.56,1.11V37.9q.81.18,1.74.33c.61.1,1.23.17,1.86.23l.66,0V43.7c-.74-.05-1.48-.14-2.2-.24s-1.42-.23-2.06-.37V53.23l-6.16.86V18.48h4.9l.6,2.32a13.84,13.84,0,0,1,3.55-1.87,10.27,10.27,0,0,1,1.37-.39Z"/><path d="M308.79,18.48v18a12.25,12.25,0,0,0,.55,3.89,5,5,0,0,0,1.8,2.55,5.59,5.59,0,0,0,3.33.92,18.23,18.23,0,0,0,3.22-.33,27.73,27.73,0,0,0,3.49-.92,25.73,25.73,0,0,0,3.35-1.35l.8,2.28H330V18.48h-6.29V35.76a22.83,22.83,0,0,1-2.37,1.06,21.84,21.84,0,0,1-2.3.75,7.64,7.64,0,0,1-1.89.28,1.72,1.72,0,0,1-2-2V18.48Z"/><path d="M361.36,18.48v18a12,12,0,0,0,.54,3.89A5,5,0,0,0,363.71,43a5.57,5.57,0,0,0,3.33.92,18.23,18.23,0,0,0,3.22-.33,27.73,27.73,0,0,0,3.49-.92,26.31,26.31,0,0,0,3.35-1.35l.8,2.28h4.62V18.48h-6.3V35.76a21.77,21.77,0,0,1-2.36,1.06,21.25,21.25,0,0,1-2.31.75,7.57,7.57,0,0,1-1.88.28,2.09,2.09,0,0,1-1.55-.49,2.06,2.06,0,0,1-.46-1.5V18.48Z"/><rect class="cls-5" x="52.6" y="26.3" width="7.93" height="35.22"/><polygon class="cls-2" points="7.93 26.3 0 26.3 0 61.52 51.16 61.52 51.16 54.94 7.93 54.94 7.93 26.3"/></g></g></svg>