<svg xmlns="http://www.w3.org/2000/svg" viewBox="0 0 1039.37 541.68"><defs><style>.cls-1{fill:#737e85;}.cls-2{fill:#faac1c;}</style></defs><g id="Слой_2" data-name="Слой 2"><g id="Layer_1" data-name="Layer 1"><rect class="cls-1" x="503.76" y="279.34" width="7.47" height="10.92" rx="0.95"/><rect class="cls-1" x="503.76" y="335.03" width="7.47" height="10.92" rx="0.95" transform="translate(1100.85 486.88) rotate(160)"/><rect class="cls-2" x="503.76" y="362.88" width="7.47" height="10.92" rx="0.95" transform="translate(1131.18 433.58) rotate(150)"/><rect class="cls-2" x="503.76" y="307.18" width="7.47" height="10.92" rx="0.95" transform="translate(1061.58 532.41) rotate(170)"/><rect class="cls-2" x="503.76" y="418.58" width="7.47" height="10.92" rx="0.95" transform="translate(1158.54 307.83) rotate(130)"/><rect class="cls-1" x="503.76" y="446.42" width="7.47" height="10.92" rx="0.95" transform="translate(1152.59 238.32) rotate(120)"/><rect class="cls-1" x="503.76" y="390.73" width="7.47" height="10.92" rx="0.95" transform="translate(1150.93 373.47) rotate(140)"/><rect class="cls-2" x="503.76" y="474.27" width="7.47" height="10.92" rx="0.95" transform="translate(1131.87 166.92) rotate(110)"/><rect class="cls-1" x="503.76" y="502.12" width="7.47" height="10.92" rx="0.95" transform="translate(1095.49 95.93) rotate(100)"/><rect class="cls-2" x="503.76" y="529.97" width="7.47" height="10.92" rx="0.95" transform="translate(1042.93 27.93) rotate(90)"/><rect class="cls-1" x="420.23" y="529.97" width="7.47" height="10.92" rx="0.95" transform="translate(1099.65 435.97) rotate(120)"/><rect class="cls-2" x="448.08" y="529.97" width="7.47" height="10.92" rx="0.95" transform="translate(1109.48 293.99) rotate(110)"/><rect class="cls-2" x="420.23" y="502.12" width="7.47" height="10.92" rx="0.95" transform="translate(1085.32 509.07) rotate(130)"/><rect class="cls-1" x="448.08" y="502.12" width="7.47" height="10.92" rx="0.95" transform="translate(1117.3 370.09) rotate(120)"/><rect class="cls-2" x="392.38" y="529.97" width="7.47" height="10.92" rx="0.95" transform="translate(1060.9 576.15) rotate(130)"/><rect class="cls-1" x="392.38" y="502.12" width="7.47" height="10.92" rx="0.95" transform="translate(1025.83 641.79) rotate(140)"/><rect class="cls-2" x="336.69" y="529.97" width="7.47" height="10.92" rx="0.95" transform="translate(902.95 828.91) rotate(150)"/><rect class="cls-1" x="364.54" y="529.97" width="7.47" height="10.92" rx="0.95" transform="translate(994.55 708.87) rotate(140)"/><rect class="cls-1" x="336.69" y="502.12" width="7.47" height="10.92" rx="0.95" transform="translate(833.92 868.12) rotate(160)"/><rect class="cls-2" x="364.54" y="502.12" width="7.47" height="10.92" rx="0.95" transform="translate(941 763.02) rotate(150)"/><rect class="cls-1" x="308.84" y="529.97" width="7.47" height="10.92" rx="0.95" transform="translate(789.43 931.66) rotate(160)"/><rect class="cls-2" x="308.84" y="502.12" width="7.47" height="10.92" rx="0.95" transform="translate(708.54 953.17) rotate(170)"/><rect class="cls-2" x="420.23" y="446.42" width="7.47" height="10.92" rx="0.95" transform="translate(1017.08 631.24) rotate(150)"/><rect class="cls-1" x="448.08" y="446.42" width="7.47" height="10.92" rx="0.95" transform="translate(1088.39 507.63) rotate(140)"/><rect class="cls-1" x="420.23" y="418.58" width="7.47" height="10.92" rx="0.95" transform="translate(967.4 677.49) rotate(160)"/><rect class="cls-2" x="448.08" y="418.58" width="7.47" height="10.92" rx="0.95" transform="translate(1055.12 565.35) rotate(150)"/><rect class="cls-2" x="448.08" y="474.27" width="7.47" height="10.92" rx="0.79" transform="translate(1109.73 441.99) rotate(130)"/><rect class="cls-1" x="420.23" y="474.27" width="7.47" height="10.92" rx="0.95" transform="translate(1057.11 574.71) rotate(140)"/><rect class="cls-1" x="392.38" y="446.42" width="7.47" height="10.92" rx="0.95" transform="translate(922.9 741.04) rotate(160)"/><rect class="cls-2" x="392.38" y="418.58" width="7.47" height="10.92" rx="0.95" transform="translate(859.86 772.84) rotate(170)"/><rect class="cls-2" x="392.38" y="474.27" width="7.47" height="10.92" rx="0.95" transform="translate(979.04 697.13) rotate(150)"/><rect class="cls-1" x="336.69" y="446.42" width="7.47" height="10.92" rx="0.95"/><rect class="cls-2" x="364.54" y="446.42" width="7.47" height="10.92" rx="0.95" transform="translate(809.42 832.95) rotate(170)"/><rect class="cls-2" x="336.69" y="418.58" width="7.47" height="10.92" rx="0.95" transform="translate(78.8 -52.67) rotate(10)"/><rect class="cls-1" x="364.54" y="418.58" width="7.47" height="10.92" rx="0.95"/><rect class="cls-1" x="364.54" y="474.27" width="7.47" height="10.92" rx="0.79" transform="translate(878.41 804.58) rotate(160)"/><rect class="cls-2" x="336.69" y="474.27" width="7.47" height="10.92" rx="0.95" transform="translate(758.98 893.06) rotate(170)"/><rect class="cls-2" x="308.84" y="446.42" width="7.47" height="10.92" rx="0.95" transform="matrix(0.98, 0.17, -0.17, 0.98, 83.22, -47.41)"/><rect class="cls-1" x="308.84" y="418.58" width="7.47" height="10.92" rx="0.95" transform="translate(163.88 -81.33) rotate(20)"/><rect class="cls-1" x="308.84" y="474.27" width="7.47" height="10.92" rx="0.95"/><rect class="cls-1" x="253.14" y="529.97" width="7.47" height="10.92" rx="0.95"/><rect class="cls-2" x="280.99" y="529.97" width="7.47" height="10.92" rx="0.95" transform="translate(658.11 1013.28) rotate(170)"/><rect class="cls-2" x="253.14" y="502.12" width="7.47" height="10.92" rx="0.95" transform="translate(92.04 -36.9) rotate(10)"/><rect class="cls-1" x="280.99" y="502.12" width="7.47" height="10.92" rx="0.95"/><rect class="cls-2" x="225.3" y="529.97" width="7.47" height="10.92" rx="0.95" transform="translate(96.45 -31.64) rotate(10)"/><rect class="cls-1" x="225.3" y="502.12" width="7.47" height="10.92" rx="0.95" transform="translate(187.41 -47.72) rotate(20)"/><rect class="cls-2" x="253.14" y="446.42" width="7.47" height="10.92" rx="0.95" transform="translate(260.36 -67.9) rotate(30)"/><rect class="cls-1" x="280.99" y="446.42" width="7.47" height="10.92" rx="0.95" transform="translate(171.72 -70.13) rotate(20)"/><rect class="cls-1" x="253.14" y="418.58" width="7.47" height="10.92" rx="0.95" transform="translate(332.66 -65.91) rotate(40)"/><rect class="cls-2" x="280.99" y="418.58" width="7.47" height="10.92" rx="0.95" transform="translate(250.16 -85.55) rotate(30)"/><rect class="cls-2" x="280.99" y="474.27" width="7.47" height="10.92" rx="0.79" transform="translate(87.63 -42.15) rotate(10)"/><rect class="cls-1" x="253.14" y="474.27" width="7.47" height="10.92" rx="0.95" transform="matrix(0.94, 0.34, -0.34, 0.94, 179.57, -58.93)"/><rect class="cls-1" x="225.3" y="446.42" width="7.47" height="10.92" rx="0.95" transform="translate(344.05 -41.5) rotate(40)"/><rect class="cls-2" x="225.3" y="418.58" width="7.47" height="10.92" rx="0.95" transform="translate(406.64 -23.98) rotate(50)"/><rect class="cls-2" x="225.3" y="474.27" width="7.47" height="10.92" rx="0.95" transform="translate(270.55 -50.24) rotate(30)"/><rect class="cls-2" x="169.6" y="529.97" width="7.47" height="10.92" rx="0.95" transform="matrix(0.87, 0.5, -0.5, 0.87, 290.94, -14.93)"/><rect class="cls-1" x="197.45" y="529.97" width="7.47" height="10.92" rx="0.95" transform="translate(195.26 -36.52) rotate(20)"/><rect class="cls-1" x="169.6" y="502.12" width="7.47" height="10.92" rx="0.95" transform="translate(366.82 7.33) rotate(40)"/><rect class="cls-2" x="197.45" y="502.12" width="7.47" height="10.92" rx="0.95" transform="translate(280.74 -32.59) rotate(30)"/><rect class="cls-1" x="141.75" y="529.97" width="7.47" height="10.92" rx="0.95" transform="translate(378.2 31.75) rotate(40)"/><rect class="cls-2" x="141.75" y="502.12" width="7.47" height="10.92" rx="0.95" transform="translate(440.8 69.86) rotate(50)"/><rect class="cls-1" x="86.06" y="529.97" width="7.47" height="10.92" rx="0.95" transform="translate(508.59 189.95) rotate(60)"/><rect class="cls-2" x="113.91" y="529.97" width="7.47" height="10.92" rx="0.95" transform="translate(452.18 101.14) rotate(50)"/><rect class="cls-2" x="86.06" y="502.12" width="7.47" height="10.92" rx="0.95" transform="translate(536.05 249.6) rotate(70)"/><rect class="cls-1" x="113.91" y="502.12" width="7.47" height="10.92" rx="0.95" transform="translate(498.4 151.91) rotate(60)"/><rect class="cls-2" x="58.21" y="529.97" width="7.47" height="10.92" rx="0.95" transform="translate(543.9 294.09) rotate(70)"/><rect class="cls-1" x="58.21" y="502.12" width="7.47" height="10.92" rx="0.95" transform="translate(551.06 358.43) rotate(80)"/><rect class="cls-1" x="169.6" y="446.42" width="7.47" height="10.92" rx="0.95" transform="translate(478.01 75.83) rotate(60)"/><rect class="cls-2" x="197.45" y="446.42" width="7.47" height="10.92" rx="0.95" transform="translate(418.03 7.3) rotate(50)"/><rect class="cls-2" x="169.6" y="418.58" width="7.47" height="10.92" rx="0.95" transform="translate(512.52 116.12) rotate(70)"/><rect class="cls-1" x="197.45" y="418.58" width="7.47" height="10.92" rx="0.95" transform="translate(467.82 37.79) rotate(60)"/><rect class="cls-1" x="197.45" y="474.27" width="7.47" height="10.92" rx="0.79" transform="translate(355.43 -17.08) rotate(40)"/><rect class="cls-2" x="169.6" y="474.27" width="7.47" height="10.92" rx="0.95" transform="translate(429.41 38.58) rotate(50)"/><rect class="cls-2" x="141.75" y="446.42" width="7.47" height="10.92" rx="0.95" transform="translate(520.36 160.62) rotate(70)"/><rect class="cls-1" x="141.75" y="418.58" width="7.47" height="10.92" rx="0.95" transform="translate(537.82 207.12) rotate(80)"/><rect class="cls-1" x="141.75" y="474.27" width="7.47" height="10.92" rx="0.95" transform="translate(488.2 113.87) rotate(60)"/><rect class="cls-2" x="86.06" y="446.42" width="7.47" height="10.92" rx="0.95" transform="translate(541.68 362.09) rotate(90)"/><rect class="cls-1" x="113.91" y="446.42" width="7.47" height="10.92" rx="0.95" transform="translate(542.23 257.56) rotate(80)"/><rect class="cls-1" x="86.06" y="418.58" width="7.47" height="10.92" rx="0.95" transform="matrix(-0.17, 0.98, -0.98, -0.17, 522.98, 409.24)"/><rect class="cls-2" x="113.91" y="418.58" width="7.47" height="10.92" rx="0.95" transform="translate(541.68 306.4) rotate(90)"/><rect class="cls-2" x="113.91" y="474.27" width="7.47" height="10.92" rx="0.79" transform="translate(528.21 205.11) rotate(70)"/><rect class="cls-1" x="86.06" y="474.27" width="7.47" height="10.92" rx="0.95" transform="translate(546.64 308) rotate(80)"/><rect class="cls-1" x="58.21" y="446.42" width="7.47" height="10.92" rx="0.95" transform="translate(517.72 469.35) rotate(100)"/><rect class="cls-2" x="58.21" y="418.58" width="7.47" height="10.92" rx="0.95" transform="translate(481.6 510.86) rotate(110)"/><rect class="cls-2" x="58.21" y="474.27" width="7.47" height="10.92" rx="0.95" transform="translate(541.68 417.79) rotate(90)"/><rect class="cls-2" x="2.51" y="529.97" width="7.47" height="10.92" rx="0.95" transform="translate(541.68 529.18) rotate(90)"/><rect class="cls-1" x="30.36" y="529.97" width="7.47" height="10.92" rx="0.95" transform="translate(555.47 408.87) rotate(80)"/><rect class="cls-1" x="2.51" y="502.12" width="7.47" height="10.92" rx="0.95" transform="translate(507.2 589.57) rotate(100)"/><rect class="cls-2" x="30.36" y="502.12" width="7.47" height="10.92" rx="0.95" transform="translate(541.68 473.48) rotate(90)"/><rect class="cls-2" x="2.51" y="446.42" width="7.47" height="10.92" rx="0.95" transform="translate(400.72 672.41) rotate(120)"/><rect class="cls-2" x="30.36" y="446.42" width="7.47" height="10.92" rx="0.95" transform="translate(470.39 574.4) rotate(110)"/><rect class="cls-2" x="2.51" y="418.58" width="7.47" height="10.92" rx="0.95" transform="translate(335.1 691.81) rotate(130)"/><rect class="cls-1" x="30.36" y="418.58" width="7.47" height="10.92" rx="0.95" transform="translate(418.37 606.53) rotate(120)"/><rect class="cls-1" x="30.36" y="474.27" width="7.47" height="10.92" rx="0.79" transform="translate(512.46 529.46) rotate(100)"/><rect class="cls-2" x="2.51" y="474.27" width="7.47" height="10.92" rx="0.95" transform="translate(459.19 637.94) rotate(110)"/><rect class="cls-1" x="420.23" y="362.88" width="7.47" height="10.92" rx="0.95"/><rect class="cls-2" x="448.08" y="362.88" width="7.47" height="10.92" rx="0.95" transform="translate(960.73 652.63) rotate(170)"/><rect class="cls-2" x="420.23" y="335.03" width="7.47" height="10.92" rx="0.95" transform="matrix(0.98, 0.17, -0.17, 0.98, 65.57, -68.45)"/><rect class="cls-1" x="448.08" y="335.03" width="7.47" height="10.92" rx="0.95"/><rect class="cls-1" x="448.08" y="390.73" width="7.47" height="10.92" rx="0.79" transform="translate(1011.89 613.95) rotate(160)"/><rect class="cls-2" x="420.23" y="390.73" width="7.47" height="10.92" rx="0.95" transform="translate(910.29 712.74) rotate(170)"/><rect class="cls-2" x="392.38" y="362.88" width="7.47" height="10.92" rx="0.95" transform="translate(69.98 -63.19) rotate(10)"/><rect class="cls-1" x="392.38" y="335.03" width="7.47" height="10.92" rx="0.95" transform="translate(140.34 -114.95) rotate(20)"/><rect class="cls-1" x="392.38" y="390.73" width="7.47" height="10.92" rx="0.95"/><rect class="cls-2" x="336.69" y="362.88" width="7.47" height="10.92" rx="0.95" transform="translate(229.78 -120.86) rotate(30)"/><rect class="cls-1" x="364.54" y="362.88" width="7.47" height="10.92" rx="0.95" transform="translate(148.19 -103.74) rotate(20)"/><rect class="cls-1" x="336.69" y="335.03" width="7.47" height="10.92" rx="0.95" transform="translate(298.51 -139.16) rotate(40)"/><rect class="cls-2" x="364.54" y="335.03" width="7.47" height="10.92" rx="0.95" transform="translate(219.58 -138.52) rotate(30)"/><rect class="cls-2" x="364.54" y="390.73" width="7.47" height="10.92" rx="0.79" transform="translate(74.39 -57.93) rotate(10)"/><rect class="cls-1" x="336.69" y="390.73" width="7.47" height="10.92" rx="0.95" transform="translate(156.03 -92.54) rotate(20)"/><rect class="cls-1" x="308.84" y="362.88" width="7.47" height="10.92" rx="0.95" transform="translate(309.89 -114.74) rotate(40)"/><rect class="cls-2" x="308.84" y="335.03" width="7.47" height="10.92" rx="0.95" transform="translate(372.49 -117.82) rotate(50)"/><rect class="cls-2" x="308.84" y="390.73" width="7.47" height="10.92" rx="0.95" transform="translate(239.97 -103.21) rotate(30)"/><rect class="cls-2" x="420.23" y="279.34" width="7.47" height="10.92" rx="0.95" transform="translate(199.2 -173.83) rotate(30)"/><rect class="cls-1" x="448.08" y="279.34" width="7.47" height="10.92" rx="0.95" transform="translate(124.65 -137.35) rotate(20)"/><rect class="cls-2" x="448.08" y="307.18" width="7.47" height="10.92" rx="0.79" transform="translate(61.15 -73.71) rotate(10)"/><rect class="cls-1" x="420.23" y="307.18" width="7.47" height="10.92" rx="0.95" transform="translate(132.5 -126.15) rotate(20)"/><rect class="cls-1" x="392.38" y="279.34" width="7.47" height="10.92" rx="0.95" transform="translate(275.74 -187.99) rotate(40)"/><rect class="cls-2" x="392.38" y="307.18" width="7.47" height="10.92" rx="0.95" transform="translate(209.39 -156.17) rotate(30)"/><rect class="cls-1" x="336.69" y="279.34" width="7.47" height="10.92" rx="0.95" transform="translate(416.85 -152.42) rotate(60)"/><rect class="cls-2" x="364.54" y="279.34" width="7.47" height="10.92" rx="0.95" transform="matrix(0.64, 0.77, -0.77, 0.64, 349.72, -180.38)"/><rect class="cls-1" x="364.54" y="307.18" width="7.47" height="10.92" rx="0.79" transform="translate(287.12 -163.58) rotate(40)"/><rect class="cls-2" x="336.69" y="307.18" width="7.47" height="10.92" rx="0.95" transform="translate(361.1 -149.1) rotate(50)"/><rect class="cls-2" x="308.84" y="279.34" width="7.47" height="10.92" rx="0.95" transform="translate(473.29 -106.33) rotate(70)"/><rect class="cls-1" x="308.84" y="307.18" width="7.47" height="10.92" rx="0.95" transform="translate(427.05 -114.38) rotate(60)"/><rect class="cls-1" x="253.14" y="362.88" width="7.47" height="10.92" rx="0.95" transform="translate(447.43 -38.29) rotate(60)"/><rect class="cls-2" x="280.99" y="362.88" width="7.47" height="10.92" rx="0.95" transform="translate(383.87 -86.54) rotate(50)"/><rect class="cls-2" x="253.14" y="335.03" width="7.47" height="10.92" rx="0.95" transform="translate(488.98 -17.35) rotate(70)"/><rect class="cls-1" x="280.99" y="335.03" width="7.47" height="10.92" rx="0.95" transform="translate(437.24 -76.34) rotate(60)"/><rect class="cls-1" x="280.99" y="390.73" width="7.47" height="10.92" rx="0.79" transform="translate(321.28 -90.33) rotate(40)"/><rect class="cls-2" x="253.14" y="390.73" width="7.47" height="10.92" rx="0.95" transform="translate(395.26 -55.26) rotate(50)"/><rect class="cls-2" x="225.3" y="362.88" width="7.47" height="10.92" rx="0.95" transform="translate(496.83 27.14) rotate(70)"/><rect class="cls-1" x="225.3" y="335.03" width="7.47" height="10.92" rx="0.95" transform="translate(524.58 55.81) rotate(80)"/><rect class="cls-1" x="225.3" y="390.73" width="7.47" height="10.92" rx="0.95" transform="translate(457.63 -0.25) rotate(60)"/><rect class="cls-2" x="253.14" y="279.34" width="7.47" height="10.92" rx="0.95" transform="translate(541.68 27.92) rotate(90)"/><rect class="cls-1" x="280.99" y="279.34" width="7.47" height="10.92" rx="0.95" transform="translate(515.76 -45.06) rotate(80)"/><rect class="cls-2" x="280.99" y="307.18" width="7.47" height="10.92" rx="0.79" transform="translate(481.13 -61.84) rotate(70)"/><rect class="cls-1" x="253.14" y="307.18" width="7.47" height="10.92" rx="0.95" transform="translate(520.17 5.38) rotate(80)"/><rect class="cls-1" x="225.3" y="279.34" width="7.47" height="10.92" rx="0.95" transform="translate(549.27 108.7) rotate(100)"/><rect class="cls-2" x="225.3" y="307.18" width="7.47" height="10.92" rx="0.95" transform="translate(541.68 83.61) rotate(90)"/><rect class="cls-2" x="169.6" y="362.88" width="7.47" height="10.92" rx="0.95" transform="translate(541.68 195) rotate(90)"/><rect class="cls-1" x="197.45" y="362.88" width="7.47" height="10.92" rx="0.95" transform="translate(528.99 106.25) rotate(80)"/><rect class="cls-1" x="169.6" y="335.03" width="7.47" height="10.92" rx="0.95" transform="translate(538.76 228.92) rotate(100)"/><rect class="cls-2" x="197.45" y="335.03" width="7.47" height="10.92" rx="0.95" transform="translate(541.68 139.31) rotate(90)"/><rect class="cls-2" x="197.45" y="390.73" width="7.47" height="10.92" rx="0.79" transform="translate(504.67 71.63) rotate(70)"/><rect class="cls-1" x="169.6" y="390.73" width="7.47" height="10.92" rx="0.95" transform="translate(533.41 156.69) rotate(80)"/><rect class="cls-1" x="141.75" y="362.88" width="7.47" height="10.92" rx="0.95" transform="translate(533.5 289.02) rotate(100)"/><rect class="cls-2" x="141.75" y="335.03" width="7.47" height="10.92" rx="0.95" transform="translate(515.21 320.23) rotate(110)"/><rect class="cls-2" x="141.75" y="390.73" width="7.47" height="10.92" rx="0.95" transform="translate(541.68 250.7) rotate(90)"/><rect class="cls-1" x="86.06" y="362.88" width="7.47" height="10.92" rx="0.95" transform="translate(453.68 474.75) rotate(120)"/><rect class="cls-2" x="113.91" y="362.88" width="7.47" height="10.92" rx="0.95" transform="translate(504 383.77) rotate(110)"/><rect class="cls-2" x="86.06" y="335.03" width="7.47" height="10.92" rx="0.95" transform="translate(408.34 490.57) rotate(130)"/><rect class="cls-1" x="113.9" y="335.03" width="7.47" height="10.92" rx="0.95" transform="translate(471.34 408.86) rotate(120)"/><rect class="cls-1" x="113.91" y="390.73" width="7.47" height="10.92" rx="0.79" transform="translate(528.24 349.13) rotate(100)"/><rect class="cls-2" x="86.06" y="390.73" width="7.47" height="10.92" rx="0.95" transform="translate(492.8 447.32) rotate(110)"/><rect class="cls-2" x="58.21" y="362.88" width="7.47" height="10.92" rx="0.95" transform="translate(383.93 557.65) rotate(130)"/><rect class="cls-1" x="58.21" y="335.03" width="7.47" height="10.92" rx="0.95" transform="translate(328.26 561.51) rotate(140)"/><rect class="cls-1" x="58.21" y="390.73" width="7.47" height="10.92" rx="0.95" transform="translate(436.03 540.64) rotate(120)"/><rect class="cls-1" x="169.6" y="279.34" width="7.47" height="10.92" rx="0.95" transform="translate(506.65 277.08) rotate(120)"/><rect class="cls-2" x="197.45" y="279.34" width="7.47" height="10.92" rx="0.95" transform="translate(537.62 193.15) rotate(110)"/><rect class="cls-1" x="197.45" y="307.18" width="7.47" height="10.92" rx="0.79" transform="translate(544.02 168.81) rotate(100)"/><rect class="cls-2" x="169.6" y="307.18" width="7.47" height="10.92" rx="0.95" transform="translate(526.41 256.69) rotate(110)"/><rect class="cls-2" x="141.75" y="279.34" width="7.47" height="10.92" rx="0.95" transform="translate(457.17 356.41) rotate(130)"/><rect class="cls-1" x="141.75" y="307.18" width="7.47" height="10.92" rx="0.95" transform="translate(488.99 342.97) rotate(120)"/><rect class="cls-2" x="86.06" y="279.34" width="7.47" height="10.92" rx="0.95" transform="translate(309.96 486.54) rotate(150)"/><rect class="cls-1" x="113.9" y="279.34" width="7.47" height="10.92" rx="0.95" transform="translate(390.82 427.35) rotate(140)"/><rect class="cls-2" x="113.9" y="307.18" width="7.47" height="10.92" rx="0.79" transform="matrix(-0.64, 0.77, -0.77, -0.64, 432.76, 423.49)"/><rect class="cls-1" x="86.06" y="307.18" width="7.47" height="10.92" rx="0.95" transform="translate(359.54 494.43) rotate(140)"/><rect class="cls-1" x="58.21" y="279.34" width="7.47" height="10.92" rx="0.95" transform="translate(217.56 531.23) rotate(160)"/><rect class="cls-2" x="58.21" y="307.18" width="7.47" height="10.92" rx="0.95" transform="translate(271.91 552.43) rotate(150)"/><rect class="cls-2" x="2.51" y="362.88" width="7.47" height="10.92" rx="0.95" transform="translate(195.83 684.21) rotate(150)"/><rect class="cls-1" x="30.36" y="362.88" width="7.47" height="10.92" rx="0.95" transform="translate(296.98 628.59) rotate(140)"/><rect class="cls-1" x="2.51" y="335.03" width="7.47" height="10.92" rx="0.95" transform="translate(128.58 658.31) rotate(160)"/><rect class="cls-2" x="30.36" y="335.03" width="7.47" height="10.92" rx="0.95" transform="translate(233.87 618.32) rotate(150)"/><rect class="cls-2" x="30.36" y="390.73" width="7.47" height="10.92" rx="0.79" transform="translate(359.51 624.73) rotate(130)"/><rect class="cls-1" x="2.51" y="390.73" width="7.47" height="10.92" rx="0.95" transform="translate(265.7 695.67) rotate(140)"/><rect class="cls-1" x="2.51" y="279.34" width="7.47" height="10.92" rx="0.95" transform="translate(12.5 569.6) rotate(180)"/><rect class="cls-2" x="30.36" y="279.34" width="7.47" height="10.92" rx="0.95" transform="translate(117.13 559.35) rotate(170)"/><rect class="cls-1" x="30.36" y="307.18" width="7.47" height="10.92" rx="0.79" transform="translate(173.07 594.77) rotate(160)"/><rect class="cls-2" x="2.51" y="307.18" width="7.47" height="10.92" rx="0.95" transform="translate(66.69 619.46) rotate(170)"/><rect class="cls-1" x="475.91" y="529.97" width="7.47" height="10.92" rx="0.95" transform="translate(1090.23 156.04) rotate(100)"/><rect class="cls-2" x="475.91" y="502.12" width="7.47" height="10.92" rx="0.95" transform="translate(1120.67 230.46) rotate(110)"/><rect class="cls-2" x="475.91" y="446.42" width="7.47" height="10.92" rx="0.95" transform="translate(1134.13 374.92) rotate(130)"/><rect class="cls-1" x="475.91" y="418.58" width="7.47" height="10.92" rx="0.95" transform="translate(1119.65 440.55) rotate(140)"/><rect class="cls-1" x="475.91" y="474.27" width="7.47" height="10.92" rx="0.79" transform="translate(1134.94 304.21) rotate(120)"/><rect class="cls-1" x="475.91" y="362.88" width="7.47" height="10.92" rx="0.95" transform="translate(1056.35 550.42) rotate(160)"/><rect class="cls-2" x="475.91" y="335.03" width="7.47" height="10.92" rx="0.95" transform="translate(1011.14 592.52) rotate(170)"/><rect class="cls-2" x="475.91" y="390.73" width="7.47" height="10.92" rx="0.79" transform="translate(1093.13 499.47) rotate(150)"/><rect class="cls-2" x="475.91" y="279.34" width="7.47" height="10.92" rx="0.95" transform="translate(56.74 -78.96) rotate(10)"/><rect class="cls-1" x="475.91" y="307.18" width="7.47" height="10.92" rx="0.79"/><rect class="cls-1" x="503.76" y="251.5" width="7.47" height="10.92" rx="0.95"/><rect class="cls-1" x="503.76" y="195.81" width="7.47" height="10.92" rx="0.95" transform="translate(915.55 563.97) rotate(-160)"/><rect class="cls-2" x="503.76" y="167.96" width="7.47" height="10.92" rx="0.95" transform="translate(860.3 577.35) rotate(-150)"/><rect class="cls-2" x="503.76" y="223.65" width="7.47" height="10.92" rx="0.95" transform="translate(967.5 542.87) rotate(-170)"/><rect class="cls-2" x="503.76" y="112.26" width="7.47" height="10.92" rx="0.95" transform="translate(743.53 582.16) rotate(-130)"/><rect class="cls-1" x="503.76" y="84.41" width="7.47" height="10.92" rx="0.95" transform="translate(683.41 574.32) rotate(-120)"/><rect class="cls-1" x="503.76" y="140.11" width="7.47" height="10.92" rx="0.95" transform="translate(802.69 583.3) rotate(-140)"/><rect class="cls-2" x="503.76" y="56.57" width="7.47" height="10.92" rx="0.95" transform="translate(622.79 560.13) rotate(-110)"/><rect class="cls-1" x="503.76" y="28.72" width="7.47" height="10.92" rx="0.95" transform="translate(561.97 539.9) rotate(-100)"/><rect class="cls-2" x="503.76" y="0.87" width="7.47" height="10.92" rx="0.95" transform="matrix(0, -1, 1, 0, 501.17, 513.83)"/><rect class="cls-1" x="420.23" y="0.87" width="7.47" height="10.92" rx="0.95" transform="translate(630.47 376.66) rotate(-120)"/><rect class="cls-2" x="448.08" y="0.87" width="7.47" height="10.92" rx="0.95" transform="translate(600.4 433.06) rotate(-110)"/><rect class="cls-2" x="420.23" y="28.72" width="7.47" height="10.92" rx="0.95" transform="translate(670.31 380.93) rotate(-130)"/><rect class="cls-1" x="448.08" y="28.72" width="7.47" height="10.92" rx="0.95" transform="matrix(-0.5, -0.87, 0.87, -0.5, 648.12, 442.55)"/><rect class="cls-2" x="392.38" y="0.87" width="7.47" height="10.92" rx="0.95" transform="translate(645.89 313.85) rotate(-130)"/><rect class="cls-1" x="392.38" y="28.72" width="7.47" height="10.92" rx="0.95" transform="translate(677.6 314.98) rotate(-140)"/><rect class="cls-2" x="336.69" y="0.87" width="7.47" height="10.92" rx="0.95" transform="translate(632.07 182.03) rotate(-150)"/><rect class="cls-1" x="364.54" y="0.87" width="7.47" height="10.92" rx="0.95" transform="translate(646.31 247.9) rotate(-140)"/><rect class="cls-1" x="336.69" y="28.72" width="7.47" height="10.92" rx="0.95" transform="translate(648.63 182.73) rotate(-160)"/><rect class="cls-2" x="364.54" y="28.72" width="7.47" height="10.92" rx="0.95" transform="translate(670.11 247.91) rotate(-150)"/><rect class="cls-1" x="308.84" y="0.87" width="7.47" height="10.92" rx="0.95" transform="matrix(-0.94, -0.34, 0.34, -0.94, 604.14, 119.19)"/><rect class="cls-2" x="308.84" y="28.72" width="7.47" height="10.92" rx="0.95" transform="translate(614.47 122.12) rotate(-170)"/><rect class="cls-2" x="420.23" y="84.41" width="7.47" height="10.92" rx="0.95" transform="translate(746.2 379.69) rotate(-150)"/><rect class="cls-1" x="448.08" y="84.41" width="7.47" height="10.92" rx="0.95" transform="translate(740.16 449.14) rotate(-140)"/><rect class="cls-1" x="420.23" y="112.26" width="7.47" height="10.92" rx="0.95" transform="translate(782.1 373.35) rotate(-160)"/><rect class="cls-2" x="448.08" y="112.26" width="7.47" height="10.92" rx="0.95" transform="translate(784.24 445.58) rotate(-150)"/><rect class="cls-2" x="448.08" y="56.57" width="7.47" height="10.92" rx="0.79" transform="translate(694.72 448.01) rotate(-130)"/><rect class="cls-1" x="420.23" y="56.57" width="7.47" height="10.92" rx="0.95" transform="translate(708.88 382.06) rotate(-140)"/><rect class="cls-1" x="392.38" y="84.41" width="7.47" height="10.92" rx="0.95" transform="translate(737.61 309.81) rotate(-160)"/><rect class="cls-2" x="392.38" y="112.26" width="7.47" height="10.92" rx="0.95" transform="translate(765.78 302.44) rotate(-170)"/><rect class="cls-2" x="392.38" y="56.57" width="7.47" height="10.92" rx="0.95" transform="translate(708.16 313.8) rotate(-150)"/><rect class="cls-1" x="336.69" y="84.41" width="7.47" height="10.92" rx="0.95"/><rect class="cls-2" x="364.54" y="84.41" width="7.47" height="10.92" rx="0.95" transform="translate(715.34 242.33) rotate(-170)"/><rect class="cls-2" x="336.69" y="112.26" width="7.47" height="10.92" rx="0.95" transform="translate(-15.27 60.9) rotate(-10)"/><rect class="cls-1" x="364.54" y="112.26" width="7.47" height="10.92" rx="0.95"/><rect class="cls-1" x="364.54" y="56.57" width="7.47" height="10.92" rx="0.79" transform="translate(693.12 246.27) rotate(-160)"/><rect class="cls-2" x="336.69" y="56.57" width="7.47" height="10.92" rx="0.95" transform="translate(664.9 182.23) rotate(-170)"/><rect class="cls-2" x="308.84" y="84.41" width="7.47" height="10.92" rx="0.95" transform="translate(-10.86 55.64) rotate(-10)"/><rect class="cls-1" x="308.84" y="112.26" width="7.47" height="10.92" rx="0.95" transform="translate(-21.41 114.01) rotate(-20)"/><rect class="cls-1" x="308.84" y="56.57" width="7.47" height="10.92" rx="0.95"/><rect class="cls-1" x="253.14" y="0.87" width="7.47" height="10.92" rx="0.95"/><rect class="cls-2" x="280.99" y="0.87" width="7.47" height="10.92" rx="0.95" transform="translate(564.03 62.01) rotate(-170)"/><rect class="cls-2" x="253.14" y="28.72" width="7.47" height="10.92" rx="0.95" transform="translate(-2.03 45.13) rotate(-10)"/><rect class="cls-1" x="280.99" y="28.72" width="7.47" height="10.92" rx="0.95"/><rect class="cls-2" x="225.3" y="0.87" width="7.47" height="10.92" rx="0.95" transform="translate(2.38 39.87) rotate(-10)"/><rect class="cls-1" x="225.3" y="28.72" width="7.47" height="10.92" rx="0.95" transform="translate(2.12 80.39) rotate(-20)"/><rect class="cls-2" x="253.14" y="84.41" width="7.47" height="10.92" rx="0.95" transform="translate(-10.52 140.48) rotate(-30)"/><rect class="cls-1" x="280.99" y="84.41" width="7.47" height="10.92" rx="0.95" transform="translate(-13.57 102.8) rotate(-20)"/><rect class="cls-1" x="253.14" y="112.26" width="7.47" height="10.92" rx="0.95" transform="translate(-15.57 192.66) rotate(-40)"/><rect class="cls-2" x="280.99" y="112.26" width="7.47" height="10.92" rx="0.95" transform="translate(-20.72 158.14) rotate(-30)"/><rect class="cls-2" x="280.99" y="56.57" width="7.47" height="10.92" rx="0.79" transform="translate(-6.45 50.39) rotate(-10)"/><rect class="cls-1" x="253.14" y="56.57" width="7.47" height="10.92" rx="0.95" transform="translate(-5.72 91.6) rotate(-20)"/><rect class="cls-1" x="225.3" y="84.41" width="7.47" height="10.92" rx="0.95" transform="translate(-4.19 168.25) rotate(-40)"/><rect class="cls-2" x="225.3" y="112.26" width="7.47" height="10.92" rx="0.95" transform="translate(-8.37 217.5) rotate(-50)"/><rect class="cls-2" x="225.3" y="56.57" width="7.47" height="10.92" rx="0.95" transform="translate(-0.33 122.83) rotate(-30)"/><rect class="cls-2" x="169.6" y="0.87" width="7.47" height="10.92" rx="0.95" transform="translate(20.06 87.52) rotate(-30)"/><rect class="cls-1" x="197.45" y="0.87" width="7.47" height="10.92" rx="0.95" transform="matrix(0.94, -0.34, 0.34, 0.94, 9.97, 69.19)"/><rect class="cls-1" x="169.6" y="28.72" width="7.47" height="10.92" rx="0.95" transform="translate(18.58 119.41) rotate(-40)"/><rect class="cls-2" x="197.45" y="28.72" width="7.47" height="10.92" rx="0.95" transform="translate(9.86 105.17) rotate(-30)"/><rect class="cls-1" x="141.75" y="0.87" width="7.47" height="10.92" rx="0.95" transform="translate(29.97 95) rotate(-40)"/><rect class="cls-2" x="141.75" y="28.72" width="7.47" height="10.92" rx="0.95" transform="translate(25.79 123.66) rotate(-50)"/><rect class="cls-1" x="86.06" y="0.87" width="7.47" height="10.92" rx="0.95" transform="translate(39.41 80.93) rotate(-60)"/><rect class="cls-2" x="113.9" y="0.87" width="7.47" height="10.92" rx="0.95" transform="matrix(0.64, -0.77, 0.77, 0.64, 37.17, 92.38)"/><rect class="cls-2" x="86.06" y="28.72" width="7.47" height="10.92" rx="0.95" transform="translate(26.96 106.87) rotate(-70)"/><rect class="cls-1" x="113.9" y="28.72" width="7.47" height="10.92" rx="0.95" transform="translate(29.22 118.97) rotate(-60)"/><rect class="cls-2" x="58.21" y="0.87" width="7.47" height="10.92" rx="0.95" transform="translate(34.81 62.38) rotate(-70)"/><rect class="cls-1" x="58.21" y="28.72" width="7.47" height="10.92" rx="0.95" transform="translate(17.53 89.25) rotate(-80)"/><rect class="cls-1" x="169.6" y="84.41" width="7.47" height="10.92" rx="0.95" transform="translate(8.83 195.05) rotate(-60)"/><rect class="cls-2" x="197.45" y="84.41" width="7.47" height="10.92" rx="0.95" transform="translate(3.02 186.22) rotate(-50)"/><rect class="cls-2" x="169.6" y="112.26" width="7.47" height="10.92" rx="0.95" transform="translate(3.43 240.34) rotate(-70)"/><rect class="cls-1" x="197.45" y="112.26" width="7.47" height="10.92" rx="0.95" transform="translate(-1.36 233.09) rotate(-60)"/><rect class="cls-1" x="197.45" y="56.57" width="7.47" height="10.92" rx="0.79" transform="translate(7.2 143.83) rotate(-40)"/><rect class="cls-2" x="169.6" y="56.57" width="7.47" height="10.92" rx="0.95" transform="translate(14.4 154.94) rotate(-50)"/><rect class="cls-2" x="141.75" y="84.41" width="7.47" height="10.92" rx="0.95" transform="translate(11.27 195.85) rotate(-70)"/><rect class="cls-1" x="141.75" y="112.26" width="7.47" height="10.92" rx="0.95" transform="translate(4.29 240.56) rotate(-80)"/><rect class="cls-1" x="141.75" y="56.57" width="7.47" height="10.92" rx="0.95" transform="translate(19.03 157.01) rotate(-60)"/><rect class="cls-2" x="86.06" y="84.41" width="7.47" height="10.92" rx="0.95" transform="translate(-0.08 179.67) rotate(-90)"/><rect class="cls-1" x="113.9" y="84.41" width="7.47" height="10.92" rx="0.95" transform="translate(8.7 190.12) rotate(-80)"/><rect class="cls-1" x="86.06" y="112.26" width="7.47" height="10.92" rx="0.95" transform="translate(-10.55 226.59) rotate(-100)"/><rect class="cls-2" x="113.9" y="112.26" width="7.47" height="10.92" rx="0.95" transform="translate(-0.08 235.36) rotate(-90)"/><rect class="cls-2" x="113.9" y="56.57" width="7.47" height="10.92" rx="0.79" transform="translate(19.12 151.36) rotate(-70)"/><rect class="cls-1" x="86.06" y="56.57" width="7.47" height="10.92" rx="0.95" transform="translate(13.12 139.68) rotate(-80)"/><rect class="cls-1" x="58.21" y="84.41" width="7.47" height="10.92" rx="0.95" transform="translate(-15.81 166.49) rotate(-100)"/><rect class="cls-2" x="58.21" y="112.26" width="7.47" height="10.92" rx="0.95" transform="translate(-27.49 216.2) rotate(-110)"/><rect class="cls-2" x="58.21" y="56.57" width="7.47" height="10.92" rx="0.95" transform="translate(-0.08 123.97) rotate(-90)"/><rect class="cls-2" x="2.51" y="0.87" width="7.47" height="10.92" rx="0.95" transform="translate(-0.08 12.58) rotate(-90)"/><rect class="cls-1" x="30.36" y="0.87" width="7.47" height="10.92" rx="0.95" transform="translate(21.94 38.81) rotate(-80)"/><rect class="cls-1" x="2.51" y="28.72" width="7.47" height="10.92" rx="0.95" transform="translate(-26.33 46.27) rotate(-100)"/><rect class="cls-2" x="30.36" y="28.72" width="7.47" height="10.92" rx="0.95" transform="translate(-0.08 68.28) rotate(-90)"/><rect class="cls-1" x="2.51" y="84.41" width="7.47" height="10.92" rx="0.95" transform="translate(-68.46 140.22) rotate(-120)"/><rect class="cls-2" x="30.36" y="84.41" width="7.47" height="10.92" rx="0.95" transform="translate(-38.7 152.66) rotate(-110)"/><rect class="cls-2" x="2.51" y="112.26" width="7.47" height="10.92" rx="0.95" transform="translate(-79.92 198.18) rotate(-130)"/><rect class="cls-1" x="30.36" y="112.26" width="7.47" height="10.92" rx="0.95" transform="translate(-50.81 206.11) rotate(-120)"/><rect class="cls-1" x="30.36" y="56.57" width="7.47" height="10.92" rx="0.79" transform="translate(-21.07 106.38) rotate(-100)"/><rect class="cls-2" x="2.51" y="56.57" width="7.47" height="10.92" rx="0.95" transform="translate(-49.9 89.11) rotate(-110)"/><rect class="cls-1" x="420.23" y="167.96" width="7.47" height="10.92" rx="0.95"/><rect class="cls-2" x="448.08" y="167.96" width="7.47" height="10.92" rx="0.95" transform="translate(866.65 422.66) rotate(-170)"/><rect class="cls-2" x="420.23" y="195.81" width="7.47" height="10.92" rx="0.95" transform="translate(-28.51 76.68) rotate(-10)"/><rect class="cls-1" x="448.08" y="195.81" width="7.47" height="10.92" rx="0.95"/><rect class="cls-1" x="448.08" y="140.11" width="7.47" height="10.92" rx="0.79" transform="translate(826.6 436.89) rotate(-160)"/><rect class="cls-2" x="420.23" y="140.11" width="7.47" height="10.92" rx="0.95" transform="translate(816.22 362.55) rotate(-170)"/><rect class="cls-2" x="392.38" y="167.96" width="7.47" height="10.92" rx="0.95" transform="translate(-24.1 71.42) rotate(-10)"/><rect class="cls-1" x="392.38" y="195.81" width="7.47" height="10.92" rx="0.95" transform="translate(-44.95 147.62) rotate(-20)"/><rect class="cls-1" x="392.38" y="140.11" width="7.47" height="10.92" rx="0.95"/><rect class="cls-2" x="336.69" y="167.96" width="7.47" height="10.92" rx="0.95" transform="translate(-41.1 193.45) rotate(-30)"/><rect class="cls-1" x="364.54" y="167.96" width="7.47" height="10.92" rx="0.95" transform="translate(-37.1 136.42) rotate(-20)"/><rect class="cls-1" x="336.69" y="195.81" width="7.47" height="10.92" rx="0.95" transform="translate(-49.73 265.91) rotate(-40)"/><rect class="cls-2" x="364.54" y="195.81" width="7.47" height="10.92" rx="0.95" transform="translate(-51.29 211.1) rotate(-30)"/><rect class="cls-2" x="364.54" y="140.11" width="7.47" height="10.92" rx="0.79" transform="translate(-19.68 66.16) rotate(-10)"/><rect class="cls-1" x="336.69" y="140.11" width="7.47" height="10.92" rx="0.95" transform="translate(-29.26 125.21) rotate(-20)"/><rect class="cls-1" x="308.84" y="167.96" width="7.47" height="10.92" rx="0.95" transform="translate(-38.34 241.49) rotate(-40)"/><rect class="cls-2" x="308.84" y="195.81" width="7.47" height="10.92" rx="0.95" transform="translate(-42.52 311.34) rotate(-50)"/><rect class="cls-2" x="308.84" y="140.11" width="7.47" height="10.92" rx="0.95" transform="translate(-30.91 175.79) rotate(-30)"/><rect class="cls-2" x="420.23" y="251.5" width="7.47" height="10.92" rx="0.95" transform="translate(-71.68 246.41) rotate(-30)"/><rect class="cls-1" x="448.08" y="251.5" width="7.47" height="10.92" rx="0.95" transform="translate(-60.64 170.03) rotate(-20)"/><rect class="cls-2" x="448.08" y="223.65" width="7.47" height="10.92" rx="0.79" transform="translate(-32.92 81.94) rotate(-10)"/><rect class="cls-1" x="420.23" y="223.65" width="7.47" height="10.92" rx="0.95" transform="translate(-52.79 158.82) rotate(-20)"/><rect class="cls-1" x="392.38" y="251.5" width="7.47" height="10.92" rx="0.95" transform="translate(-72.5 314.74) rotate(-40)"/><rect class="cls-2" x="392.38" y="223.65" width="7.47" height="10.92" rx="0.95" transform="translate(-61.49 228.76) rotate(-30)"/><rect class="cls-1" x="336.69" y="251.5" width="7.47" height="10.92" rx="0.95" transform="translate(-52.32 423.3) rotate(-60)"/><rect class="cls-2" x="364.54" y="251.5" width="7.47" height="10.92" rx="0.95" transform="translate(-65.29 373.9) rotate(-50)"/><rect class="cls-1" x="364.54" y="223.65" width="7.47" height="10.92" rx="0.79" transform="translate(-61.11 290.32) rotate(-40)"/><rect class="cls-2" x="336.69" y="223.65" width="7.47" height="10.92" rx="0.95" transform="translate(-53.91 342.62) rotate(-50)"/><rect class="cls-2" x="308.84" y="251.5" width="7.47" height="10.92" rx="0.95" transform="translate(-35.8 462.8) rotate(-70)"/><rect class="cls-1" x="308.84" y="223.65" width="7.47" height="10.92" rx="0.95" transform="translate(-42.13 385.26) rotate(-60)"/><rect class="cls-1" x="253.14" y="167.96" width="7.47" height="10.92" rx="0.95" transform="translate(-21.74 309.17) rotate(-60)"/><rect class="cls-2" x="280.99" y="167.96" width="7.47" height="10.92" rx="0.95" transform="translate(-31.14 280.06) rotate(-50)"/><rect class="cls-2" x="253.14" y="195.81" width="7.47" height="10.92" rx="0.95" transform="translate(-20.11 373.82) rotate(-70)"/><rect class="cls-1" x="280.99" y="195.81" width="7.47" height="10.92" rx="0.95" transform="translate(-31.94 347.22) rotate(-60)"/><rect class="cls-1" x="280.99" y="140.11" width="7.47" height="10.92" rx="0.79" transform="matrix(0.77, -0.64, 0.64, 0.77, -26.96, 217.08)"/><rect class="cls-2" x="253.14" y="140.11" width="7.47" height="10.92" rx="0.95" transform="translate(-19.75 248.78) rotate(-50)"/><rect class="cls-2" x="225.3" y="167.96" width="7.47" height="10.92" rx="0.95" transform="translate(-12.26 329.33) rotate(-70)"/><rect class="cls-1" x="225.3" y="195.81" width="7.47" height="10.92" rx="0.95" transform="translate(-8.95 391.87) rotate(-80)"/><rect class="cls-1" x="225.3" y="140.11" width="7.47" height="10.92" rx="0.95" transform="translate(-11.55 271.13) rotate(-60)"/><rect class="cls-2" x="253.14" y="251.5" width="7.47" height="10.92" rx="0.95" transform="translate(-0.08 513.84) rotate(-90)"/><rect class="cls-1" x="280.99" y="251.5" width="7.47" height="10.92" rx="0.95" transform="translate(-17.77 492.74) rotate(-80)"/><rect class="cls-2" x="280.99" y="223.65" width="7.47" height="10.92" rx="0.79" transform="translate(-27.95 418.31) rotate(-70)"/><rect class="cls-1" x="253.14" y="223.65" width="7.47" height="10.92" rx="0.95" transform="translate(-13.36 442.31) rotate(-80)"/><rect class="cls-1" x="225.3" y="251.5" width="7.47" height="10.92" rx="0.95" transform="translate(15.75 527.14) rotate(-100)"/><rect class="cls-2" x="225.3" y="223.65" width="7.47" height="10.92" rx="0.95" transform="translate(-0.08 458.15) rotate(-90)"/><rect class="cls-2" x="169.6" y="167.96" width="7.47" height="10.92" rx="0.95" transform="translate(-0.08 346.76) rotate(-90)"/><rect class="cls-1" x="197.45" y="167.96" width="7.47" height="10.92" rx="0.95" transform="translate(-4.53 341.43) rotate(-80)"/><rect class="cls-1" x="169.6" y="195.81" width="7.47" height="10.92" rx="0.95" transform="translate(5.23 406.92) rotate(-100)"/><rect class="cls-2" x="197.45" y="195.81" width="7.47" height="10.92" rx="0.95" transform="translate(-0.08 402.45) rotate(-90)"/><rect class="cls-2" x="197.45" y="140.11" width="7.47" height="10.92" rx="0.79" transform="translate(-4.42 284.83) rotate(-70)"/><rect class="cls-1" x="169.6" y="140.11" width="7.47" height="10.92" rx="0.95" transform="translate(-0.12 291) rotate(-80)"/><rect class="cls-1" x="141.75" y="167.96" width="7.47" height="10.92" rx="0.95" transform="translate(-0.03 346.81) rotate(-100)"/><rect class="cls-2" x="141.75" y="195.81" width="7.47" height="10.92" rx="0.95" transform="translate(6.12 406.82) rotate(-110)"/><rect class="cls-2" x="141.75" y="140.11" width="7.47" height="10.92" rx="0.95" transform="translate(-0.08 291.06) rotate(-90)"/><rect class="cls-1" x="86.06" y="167.96" width="7.47" height="10.92" rx="0.95" transform="translate(-15.5 337.89) rotate(-120)"/><rect class="cls-2" x="113.9" y="167.96" width="7.47" height="10.92" rx="0.95" transform="translate(-5.08 343.28) rotate(-110)"/><rect class="cls-2" x="86.06" y="195.81" width="7.47" height="10.92" rx="0.95" transform="translate(-6.67 399.42) rotate(-130)"/><rect class="cls-1" x="113.9" y="195.81" width="7.47" height="10.92" rx="0.95" transform="translate(2.16 403.78) rotate(-120)"/><rect class="cls-1" x="113.9" y="140.11" width="7.47" height="10.92" rx="0.79" transform="translate(-5.29 286.7) rotate(-100)"/><rect class="cls-2" x="86.06" y="140.11" width="7.47" height="10.92" rx="0.95" transform="translate(-16.29 279.74) rotate(-110)"/><rect class="cls-2" x="58.21" y="167.96" width="7.47" height="10.92" rx="0.95" transform="translate(-31.08 332.34) rotate(-130)"/><rect class="cls-1" x="58.21" y="195.81" width="7.47" height="10.92" rx="0.95" transform="translate(-19.97 395.26) rotate(-140)"/><rect class="cls-1" x="58.21" y="140.11" width="7.47" height="10.92" rx="0.95" transform="translate(-33.15 272) rotate(-120)"/><rect class="cls-1" x="169.6" y="251.5" width="7.47" height="10.92" rx="0.95" transform="translate(37.47 535.56) rotate(-120)"/><rect class="cls-2" x="197.45" y="251.5" width="7.47" height="10.92" rx="0.95" transform="translate(28.53 533.9) rotate(-110)"/><rect class="cls-1" x="197.45" y="223.65" width="7.47" height="10.92" rx="0.79" transform="translate(10.49 467.03) rotate(-100)"/><rect class="cls-2" x="169.6" y="223.65" width="7.47" height="10.92" rx="0.95" transform="translate(17.32 470.36) rotate(-110)"/><rect class="cls-2" x="141.75" y="251.5" width="7.47" height="10.92" rx="0.95" transform="translate(42.16 533.59) rotate(-130)"/><rect class="cls-1" x="141.75" y="223.65" width="7.47" height="10.92" rx="0.95" transform="translate(19.81 469.67) rotate(-120)"/><rect class="cls-2" x="86.06" y="251.5" width="7.47" height="10.92" rx="0.95" transform="translate(39.07 524.4) rotate(-150)"/><rect class="cls-1" x="113.9" y="251.5" width="7.47" height="10.92" rx="0.95" transform="matrix(-0.77, -0.64, 0.64, -0.77, 42.59, 529.43)"/><rect class="cls-2" x="113.9" y="223.65" width="7.47" height="10.92" rx="0.79" transform="translate(17.75 466.5) rotate(-130)"/><rect class="cls-1" x="86.06" y="223.65" width="7.47" height="10.92" rx="0.95" transform="translate(11.31 462.34) rotate(-140)"/><rect class="cls-1" x="58.21" y="251.5" width="7.47" height="10.92" rx="0.95" transform="translate(32.27 519.61) rotate(-160)"/><rect class="cls-2" x="58.21" y="223.65" width="7.47" height="10.92" rx="0.95" transform="translate(1.03 458.51) rotate(-150)"/><rect class="cls-2" x="2.51" y="167.96" width="7.47" height="10.92" rx="0.95" transform="translate(-75.05 326.73) rotate(-150)"/><rect class="cls-1" x="30.36" y="167.96" width="7.47" height="10.92" rx="0.95" transform="translate(-51.25 328.18) rotate(-140)"/><rect class="cls-1" x="2.51" y="195.81" width="7.47" height="10.92" rx="0.95" transform="translate(-56.72 392.53) rotate(-160)"/><rect class="cls-2" x="30.36" y="195.81" width="7.47" height="10.92" rx="0.95" transform="translate(-37.01 392.62) rotate(-150)"/><rect class="cls-2" x="30.36" y="140.11" width="7.47" height="10.92" rx="0.79" transform="translate(-55.5 265.26) rotate(-130)"/><rect class="cls-1" x="2.51" y="140.11" width="7.47" height="10.92" rx="0.95" transform="translate(-82.53 261.1) rotate(-140)"/><rect class="cls-1" x="2.51" y="251.5" width="7.47" height="10.92" rx="0.95" transform="translate(12.5 513.93) rotate(180)"/><rect class="cls-2" x="30.36" y="251.5" width="7.47" height="10.92" rx="0.95" transform="translate(23.06 515.94) rotate(-170)"/><rect class="cls-1" x="30.36" y="223.65" width="7.47" height="10.92" rx="0.79" transform="translate(-12.22 456.07) rotate(-160)"/><rect class="cls-2" x="2.51" y="223.65" width="7.47" height="10.92" rx="0.95" transform="translate(-27.38 455.83) rotate(-170)"/><rect class="cls-1" x="475.91" y="0.87" width="7.47" height="10.92" rx="0.95" transform="matrix(-0.17, -0.98, 0.98, -0.17, 556.71, 479.79)"/><rect class="cls-2" x="475.91" y="28.72" width="7.47" height="10.92" rx="0.95" transform="translate(611.58 496.59) rotate(-110)"/><rect class="cls-2" x="475.91" y="84.41" width="7.47" height="10.92" rx="0.95" transform="translate(719.12 515.08) rotate(-130)"/><rect class="cls-1" x="475.91" y="112.26" width="7.47" height="10.92" rx="0.95" transform="translate(771.41 516.22) rotate(-140)"/><rect class="cls-1" x="475.91" y="56.57" width="7.47" height="10.92" rx="0.79" transform="translate(665.76 508.43) rotate(-120)"/><rect class="cls-1" x="475.91" y="167.96" width="7.47" height="10.92" rx="0.95" transform="translate(871.06 500.43) rotate(-160)"/><rect class="cls-2" x="475.91" y="195.81" width="7.47" height="10.92" rx="0.95" transform="translate(917.06 482.76) rotate(-170)"/><rect class="cls-2" x="475.91" y="140.11" width="7.47" height="10.92" rx="0.79" transform="translate(822.25 511.46) rotate(-150)"/><rect class="cls-2" x="475.91" y="251.5" width="7.47" height="10.92" rx="0.95" transform="translate(-37.33 87.19) rotate(-10)"/><rect class="cls-1" x="475.91" y="223.65" width="7.47" height="10.92" rx="0.79"/><rect class="cls-1" x="528.13" y="251.42" width="7.47" height="10.92" rx="0.95" transform="translate(1063.74 513.76) rotate(180)"/><rect class="cls-1" x="528.13" y="195.72" width="7.47" height="10.92" rx="0.95" transform="translate(-36.73 194.04) rotate(-20)"/><rect class="cls-2" x="528.13" y="167.88" width="7.47" height="10.92" rx="0.95" transform="translate(-15.41 289.16) rotate(-30)"/><rect class="cls-2" x="528.13" y="223.57" width="7.47" height="10.92" rx="0.95" transform="translate(-31.69 95.84) rotate(-10)"/><rect class="cls-2" x="528.13" y="112.18" width="7.47" height="10.92" rx="0.95" transform="matrix(0.64, -0.77, 0.77, 0.64, 99.87, 449.46)"/><rect class="cls-1" x="528.13" y="84.33" width="7.47" height="10.92" rx="0.95" transform="translate(188.17 505.51) rotate(-60)"/><rect class="cls-1" x="528.13" y="140.03" width="7.47" height="10.92" rx="0.95" transform="translate(30.92 375.92) rotate(-40)"/><rect class="cls-2" x="528.13" y="56.48" width="7.47" height="10.92" rx="0.95" transform="translate(291.75 540.55) rotate(-70)"/><rect class="cls-1" x="528.13" y="28.64" width="7.47" height="10.92" rx="0.95" transform="matrix(0.17, -0.98, 0.98, 0.17, 405.93, 551.97)"/><rect class="cls-2" x="528.13" y="0.79" width="7.47" height="10.92" rx="0.95" transform="translate(525.62 538.12) rotate(-90)"/><rect class="cls-1" x="611.66" y="0.79" width="7.47" height="10.92" rx="0.95" transform="translate(302.29 536.08) rotate(-60)"/><rect class="cls-2" x="583.82" y="0.79" width="7.47" height="10.92" rx="0.95" transform="translate(380.73 556.23) rotate(-70)"/><rect class="cls-2" x="611.66" y="28.64" width="7.47" height="10.92" rx="0.95" transform="translate(193.71 483.6) rotate(-50)"/><rect class="cls-1" x="583.82" y="28.64" width="7.47" height="10.92" rx="0.95" transform="translate(264.25 525.88) rotate(-60)"/><rect class="cls-2" x="639.51" y="0.79" width="7.47" height="10.92" rx="0.95" transform="translate(224.99 494.99) rotate(-50)"/><rect class="cls-1" x="639.51" y="28.64" width="7.47" height="10.92" rx="0.95" transform="translate(128.57 421.45) rotate(-40)"/><rect class="cls-2" x="695.21" y="0.79" width="7.47" height="10.92" rx="0.95" transform="matrix(0.87, -0.5, 0.5, 0.87, 90.52, 350.31)"/><rect class="cls-1" x="667.36" y="0.79" width="7.47" height="10.92" rx="0.95" transform="translate(152.99 432.84) rotate(-40)"/><rect class="cls-1" x="695.21" y="28.64" width="7.47" height="10.92" rx="0.95" transform="translate(30.49 241.11) rotate(-20)"/><rect class="cls-2" x="667.36" y="28.64" width="7.47" height="10.92" rx="0.95" transform="translate(72.86 340.12) rotate(-30)"/><rect class="cls-1" x="723.06" y="0.79" width="7.47" height="10.92" rx="0.95" transform="translate(41.69 248.96) rotate(-20)"/><rect class="cls-2" x="723.06" y="28.64" width="7.47" height="10.92" rx="0.95" transform="translate(5.12 126.72) rotate(-10)"/><rect class="cls-2" x="611.66" y="84.33" width="7.47" height="10.92" rx="0.95" transform="matrix(0.87, -0.5, 0.5, 0.87, 37.55, 319.73)"/><rect class="cls-1" x="583.82" y="84.33" width="7.47" height="10.92" rx="0.95" transform="translate(79.74 398.68) rotate(-40)"/><rect class="cls-1" x="611.66" y="112.18" width="7.47" height="10.92" rx="0.95" transform="translate(-3.12 217.57) rotate(-20)"/><rect class="cls-2" x="583.82" y="112.18" width="7.47" height="10.92" rx="0.95" transform="translate(19.9 309.54) rotate(-30)"/><rect class="cls-2" x="583.82" y="56.48" width="7.47" height="10.92" rx="0.79" transform="translate(162.43 472.22) rotate(-50)"/><rect class="cls-1" x="611.66" y="56.48" width="7.47" height="10.92" rx="0.95" transform="translate(104.16 410.06) rotate(-40)"/><rect class="cls-1" x="639.51" y="84.33" width="7.47" height="10.92" rx="0.95" transform="translate(8.08 225.42) rotate(-20)"/><rect class="cls-2" x="639.51" y="112.18" width="7.47" height="10.92" rx="0.95" transform="translate(-10.66 113.49) rotate(-10)"/><rect class="cls-2" x="639.51" y="56.48" width="7.47" height="10.92" rx="0.95" transform="matrix(0.87, -0.5, 0.5, 0.87, 55.21, 329.92)"/><rect class="cls-1" x="695.21" y="84.33" width="7.47" height="10.92" rx="0.95" transform="translate(1397.89 179.58) rotate(180)"/><rect class="cls-2" x="667.36" y="84.33" width="7.47" height="10.92" rx="0.95" transform="translate(-5.4 117.9) rotate(-10)"/><rect class="cls-2" x="695.21" y="112.18" width="7.47" height="10.92" rx="0.95" transform="matrix(-0.98, -0.17, 0.17, -0.98, 1366.84, 354.86)"/><rect class="cls-1" x="667.36" y="112.18" width="7.47" height="10.92" rx="0.95" transform="translate(1342.19 235.28) rotate(180)"/><rect class="cls-1" x="667.36" y="56.48" width="7.47" height="10.92" rx="0.79" transform="translate(19.29 233.26) rotate(-20)"/><rect class="cls-2" x="695.21" y="56.48" width="7.47" height="10.92" rx="0.95" transform="translate(-0.14 122.31) rotate(-10)"/><rect class="cls-2" x="723.06" y="84.33" width="7.47" height="10.92" rx="0.95" transform="translate(1426.95 304.43) rotate(-170)"/><rect class="cls-1" x="723.06" y="112.18" width="7.47" height="10.92" rx="0.95" transform="translate(1369.52 476.76) rotate(-160)"/><rect class="cls-1" x="723.06" y="56.48" width="7.47" height="10.92" rx="0.95" transform="translate(1453.58 123.89) rotate(180)"/><rect class="cls-1" x="778.75" y="0.79" width="7.47" height="10.92" rx="0.95" transform="translate(1564.98 12.5) rotate(180)"/><rect class="cls-2" x="750.9" y="0.79" width="7.47" height="10.92" rx="0.95" transform="matrix(0.98, -0.17, 0.17, 0.98, 10.38, 131.14)"/><rect class="cls-2" x="778.75" y="28.64" width="7.47" height="10.92" rx="0.95" transform="matrix(-0.98, -0.17, 0.17, -0.98, 1547.17, 203.55)"/><rect class="cls-1" x="750.9" y="28.64" width="7.47" height="10.92" rx="0.95" transform="translate(1509.28 68.19) rotate(180)"/><rect class="cls-2" x="806.6" y="0.79" width="7.47" height="10.92" rx="0.95" transform="translate(1607.28 153.12) rotate(-170)"/><rect class="cls-1" x="806.6" y="28.64" width="7.47" height="10.92" rx="0.95" transform="translate(1560.14 343.29) rotate(-160)"/><rect class="cls-2" x="778.75" y="84.33" width="7.47" height="10.92" rx="0.95" transform="translate(1415.25 558.8) rotate(-150)"/><rect class="cls-1" x="750.9" y="84.33" width="7.47" height="10.92" rx="0.95" transform="translate(1433.06 432.27) rotate(-160)"/><rect class="cls-1" x="778.75" y="112.18" width="7.47" height="10.92" rx="0.95" transform="translate(1306.29 710.73) rotate(-140)"/><rect class="cls-2" x="750.9" y="112.18" width="7.47" height="10.92" rx="0.95" transform="translate(1349.36 596.84) rotate(-150)"/><rect class="cls-2" x="750.9" y="56.48" width="7.47" height="10.92" rx="0.79" transform="translate(1487.06 253.99) rotate(-170)"/><rect class="cls-1" x="778.75" y="56.48" width="7.47" height="10.92" rx="0.95" transform="translate(1496.6 387.78) rotate(-160)"/><rect class="cls-1" x="806.6" y="84.33" width="7.47" height="10.92" rx="0.95" transform="translate(1373.37 679.45) rotate(-140)"/><rect class="cls-2" x="806.6" y="112.18" width="7.47" height="10.92" rx="0.95" transform="translate(1241.09 814.01) rotate(-130)"/><rect class="cls-2" x="806.6" y="56.48" width="7.47" height="10.92" rx="0.95" transform="translate(1481.14 520.76) rotate(-150)"/><rect class="cls-2" x="862.3" y="0.79" width="7.47" height="10.92" rx="0.95" transform="translate(1612.91 444.68) rotate(-150)"/><rect class="cls-1" x="834.45" y="0.79" width="7.47" height="10.92" rx="0.95" transform="translate(1623.68 298.8) rotate(-160)"/><rect class="cls-1" x="862.3" y="28.64" width="7.47" height="10.92" rx="0.95" transform="matrix(-0.77, -0.64, 0.64, -0.77, 1507.53, 616.89)"/><rect class="cls-2" x="834.45" y="28.64" width="7.47" height="10.92" rx="0.95" transform="translate(1547.02 482.72) rotate(-150)"/><rect class="cls-1" x="890.14" y="0.79" width="7.47" height="10.92" rx="0.95" transform="translate(1574.62 585.61) rotate(-140)"/><rect class="cls-2" x="890.14" y="28.64" width="7.47" height="10.92" rx="0.95" transform="translate(1442.34 740.76) rotate(-130)"/><rect class="cls-1" x="945.84" y="0.79" width="7.47" height="10.92" rx="0.95" transform="translate(1418.95 831.73) rotate(-120)"/><rect class="cls-2" x="917.99" y="0.79" width="7.47" height="10.92" rx="0.95" transform="translate(1509.42 716.35) rotate(-130)"/><rect class="cls-2" x="945.84" y="28.64" width="7.47" height="10.92" rx="0.95" transform="translate(1242.31 938.07) rotate(-110)"/><rect class="cls-1" x="917.99" y="28.64" width="7.47" height="10.92" rx="0.95" transform="matrix(-0.5, -0.87, 0.87, -0.5, 1353.06, 849.38)"/><rect class="cls-2" x="973.69" y="0.79" width="7.47" height="10.92" rx="0.95" transform="translate(1305.85 926.86) rotate(-110)"/><rect class="cls-1" x="973.69" y="28.64" width="7.47" height="10.92" rx="0.95" transform="translate(1113.57 1002.59) rotate(-100)"/><rect class="cls-1" x="862.3" y="84.33" width="7.47" height="10.92" rx="0.95" transform="translate(1221.29 884.69) rotate(-120)"/><rect class="cls-2" x="834.45" y="84.33" width="7.47" height="10.92" rx="0.95" transform="translate(1308.17 789.6) rotate(-130)"/><rect class="cls-2" x="862.3" y="112.18" width="7.47" height="10.92" rx="0.95" transform="translate(1051.69 971.68) rotate(-110)"/><rect class="cls-1" x="834.45" y="112.18" width="7.47" height="10.92" rx="0.95" transform="translate(1155.4 902.35) rotate(-120)"/><rect class="cls-1" x="834.45" y="56.48" width="7.47" height="10.92" rx="0.79" transform="translate(1440.45 648.17) rotate(-140)"/><rect class="cls-2" x="862.3" y="56.48" width="7.47" height="10.92" rx="0.95" transform="translate(1375.26 765.18) rotate(-130)"/><rect class="cls-2" x="890.14" y="84.33" width="7.47" height="10.92" rx="0.95" transform="translate(1115.23 960.48) rotate(-110)"/><rect class="cls-1" x="890.14" y="112.18" width="7.47" height="10.92" rx="0.95" transform="translate(933.25 1018.37) rotate(-100)"/><rect class="cls-1" x="890.14" y="56.48" width="7.47" height="10.92" rx="0.95" transform="matrix(-0.5, -0.87, 0.87, -0.5, 1287.18, 867.04)"/><rect class="cls-2" x="945.84" y="84.33" width="7.47" height="10.92" rx="0.95" transform="translate(859.78 1039.37) rotate(-90)"/><rect class="cls-1" x="917.99" y="84.33" width="7.47" height="10.92" rx="0.95" transform="translate(993.36 1013.11) rotate(-100)"/><rect class="cls-1" x="945.84" y="112.18" width="7.47" height="10.92" rx="0.95" transform="translate(668.83 1032.36) rotate(-80)"/><rect class="cls-2" x="917.99" y="112.18" width="7.47" height="10.92" rx="0.95" transform="translate(804.09 1039.37) rotate(-90)"/><rect class="cls-2" x="917.99" y="56.48" width="7.47" height="10.92" rx="0.79" transform="translate(1178.77 949.27) rotate(-110)"/><rect class="cls-1" x="945.84" y="56.48" width="7.47" height="10.92" rx="0.95" transform="translate(1053.47 1007.85) rotate(-100)"/><rect class="cls-1" x="973.69" y="84.33" width="7.47" height="10.92" rx="0.95" transform="translate(719.27 1036.77) rotate(-80)"/><rect class="cls-2" x="973.69" y="112.18" width="7.47" height="10.92" rx="0.95" transform="translate(532.58 995.88) rotate(-70)"/><rect class="cls-2" x="973.69" y="56.48" width="7.47" height="10.92" rx="0.95" transform="translate(915.48 1039.37) rotate(-90)"/><rect class="cls-2" x="1029.38" y="0.79" width="7.47" height="10.92" rx="0.95" transform="translate(1026.87 1039.37) rotate(-90)"/><rect class="cls-1" x="1001.54" y="0.79" width="7.47" height="10.92" rx="0.95" transform="translate(1173.68 997.33) rotate(-100)"/><rect class="cls-1" x="1029.38" y="28.64" width="7.47" height="10.92" rx="0.95" transform="translate(820.14 1045.6) rotate(-80)"/><rect class="cls-2" x="1001.54" y="28.64" width="7.47" height="10.92" rx="0.95" transform="translate(971.18 1039.37) rotate(-90)"/><rect class="cls-1" x="1029.38" y="84.33" width="7.47" height="10.92" rx="0.95" transform="translate(438.8 939.6) rotate(-60)"/><rect class="cls-2" x="1001.54" y="84.33" width="7.47" height="10.92" rx="0.95" transform="translate(577.07 1003.73) rotate(-70)"/><rect class="cls-2" x="1029.38" y="112.18" width="7.47" height="10.92" rx="0.95" transform="translate(278.93 833.44) rotate(-50)"/><rect class="cls-1" x="1001.54" y="112.18" width="7.47" height="10.92" rx="0.95" transform="translate(400.76 929.41) rotate(-60)"/><rect class="cls-1" x="1001.54" y="56.48" width="7.47" height="10.92" rx="0.79" transform="translate(769.71 1041.19) rotate(-80)"/><rect class="cls-2" x="1029.38" y="56.48" width="7.47" height="10.92" rx="0.95" transform="translate(621.56 1011.57) rotate(-70)"/><rect class="cls-1" x="611.67" y="167.88" width="7.47" height="10.92" rx="0.95" transform="translate(1230.8 346.67) rotate(180)"/><rect class="cls-2" x="583.82" y="167.88" width="7.47" height="10.92" rx="0.95" transform="translate(-21.17 104.66) rotate(-10)"/><rect class="cls-2" x="611.67" y="195.72" width="7.47" height="10.92" rx="0.95" transform="translate(1186.52 506.17) rotate(-170)"/><rect class="cls-1" x="583.82" y="195.72" width="7.47" height="10.92" rx="0.95" transform="translate(1175.11 402.37) rotate(180)"/><rect class="cls-1" x="583.82" y="140.03" width="7.47" height="10.92" rx="0.79" transform="translate(-14.33 209.73) rotate(-20)"/><rect class="cls-2" x="611.67" y="140.03" width="7.47" height="10.92" rx="0.95" transform="translate(-15.91 109.07) rotate(-10)"/><rect class="cls-2" x="639.51" y="167.88" width="7.47" height="10.92" rx="0.95" transform="translate(1246.63 455.74) rotate(-170)"/><rect class="cls-1" x="639.51" y="195.72" width="7.47" height="10.92" rx="0.95" transform="translate(1178.9 610.24) rotate(-160)"/><rect class="cls-1" x="639.51" y="140.03" width="7.47" height="10.92" rx="0.95" transform="translate(1286.5 290.98) rotate(180)"/><rect class="cls-2" x="695.21" y="167.88" width="7.47" height="10.92" rx="0.95" transform="translate(1217.58 672.92) rotate(-150)"/><rect class="cls-1" x="667.36" y="167.88" width="7.47" height="10.92" rx="0.95" transform="matrix(-0.94, -0.34, 0.34, -0.94, 1242.44, 565.75)"/><rect class="cls-1" x="695.21" y="195.72" width="7.47" height="10.92" rx="0.95" transform="translate(1105.05 804.57) rotate(-140)"/><rect class="cls-2" x="667.36" y="195.72" width="7.47" height="10.92" rx="0.95" transform="translate(1151.69 710.96) rotate(-150)"/><rect class="cls-2" x="667.36" y="140.03" width="7.47" height="10.92" rx="0.79" transform="translate(1306.73 405.3) rotate(-170)"/><rect class="cls-1" x="695.21" y="140.03" width="7.47" height="10.92" rx="0.95" transform="translate(1305.98 521.26) rotate(-160)"/><rect class="cls-1" x="723.06" y="167.88" width="7.47" height="10.92" rx="0.95" transform="translate(1172.13 773.29) rotate(-140)"/><rect class="cls-2" x="723.06" y="195.72" width="7.47" height="10.92" rx="0.95" transform="translate(1039.85 887.26) rotate(-130)"/><rect class="cls-2" x="723.06" y="140.03" width="7.47" height="10.92" rx="0.95" transform="translate(1283.47 634.88) rotate(-150)"/><rect class="cls-2" x="611.67" y="251.42" width="7.47" height="10.92" rx="0.95" transform="translate(1019.91 787.05) rotate(-150)"/><rect class="cls-1" x="583.82" y="251.42" width="7.47" height="10.92" rx="0.95" transform="translate(1051.82 699.22) rotate(-160)"/><rect class="cls-2" x="583.82" y="223.57" width="7.47" height="10.92" rx="0.79" transform="translate(1126.41 556.61) rotate(-170)"/><rect class="cls-1" x="611.67" y="223.57" width="7.47" height="10.92" rx="0.95" transform="translate(1115.36 654.73) rotate(-160)"/><rect class="cls-1" x="639.51" y="251.42" width="7.47" height="10.92" rx="0.95" transform="translate(970.89 867.13) rotate(-140)"/><rect class="cls-2" x="639.51" y="223.57" width="7.47" height="10.92" rx="0.95" transform="translate(1085.8 749) rotate(-150)"/><rect class="cls-1" x="695.21" y="251.42" width="7.47" height="10.92" rx="0.95" transform="translate(825.95 990.62) rotate(-120)"/><rect class="cls-2" x="667.36" y="251.42" width="7.47" height="10.92" rx="0.95" transform="translate(905.69 936.09) rotate(-130)"/><rect class="cls-1" x="667.36" y="223.57" width="7.47" height="10.92" rx="0.79" transform="translate(1037.97 835.85) rotate(-140)"/><rect class="cls-2" x="695.21" y="223.57" width="7.47" height="10.92" rx="0.95" transform="translate(972.77 911.67) rotate(-130)"/><rect class="cls-2" x="723.06" y="251.42" width="7.47" height="10.92" rx="0.95" transform="translate(733.98 1027.7) rotate(-110)"/><rect class="cls-1" x="723.06" y="223.57" width="7.47" height="10.92" rx="0.95" transform="translate(891.84 972.97) rotate(-120)"/><rect class="cls-1" x="778.75" y="167.88" width="7.47" height="10.92" rx="0.95" transform="matrix(-0.5, -0.87, 0.87, -0.5, 1023.62, 937.66)"/><rect class="cls-2" x="750.9" y="167.88" width="7.47" height="10.92" rx="0.95" transform="translate(1106.93 862.84) rotate(-130)"/><rect class="cls-2" x="778.75" y="195.72" width="7.47" height="10.92" rx="0.95" transform="translate(861.07 1005.29) rotate(-110)"/><rect class="cls-1" x="750.9" y="195.72" width="7.47" height="10.92" rx="0.95" transform="matrix(-0.5, -0.87, 0.87, -0.5, 957.73, 955.31)"/><rect class="cls-1" x="750.9" y="140.03" width="7.47" height="10.92" rx="0.79" transform="translate(1239.21 742.01) rotate(-140)"/><rect class="cls-2" x="778.75" y="140.03" width="7.47" height="10.92" rx="0.95" transform="translate(1174.01 838.43) rotate(-130)"/><rect class="cls-2" x="806.6" y="167.88" width="7.47" height="10.92" rx="0.95" transform="translate(924.61 994.09) rotate(-110)"/><rect class="cls-1" x="806.6" y="195.72" width="7.47" height="10.92" rx="0.95" transform="translate(752.92 1034.15) rotate(-100)"/><rect class="cls-1" x="806.6" y="140.03" width="7.47" height="10.92" rx="0.95" transform="translate(1089.51 920) rotate(-120)"/><rect class="cls-2" x="778.75" y="251.42" width="7.47" height="10.92" rx="0.95" transform="translate(525.61 1039.37) rotate(-90)"/><rect class="cls-1" x="750.9" y="251.42" width="7.47" height="10.92" rx="0.95" transform="translate(632.71 1044.66) rotate(-100)"/><rect class="cls-2" x="750.9" y="223.57" width="7.47" height="10.92" rx="0.79" transform="translate(797.52 1016.5) rotate(-110)"/><rect class="cls-1" x="778.75" y="223.57" width="7.47" height="10.92" rx="0.95" transform="translate(692.81 1039.4) rotate(-100)"/><rect class="cls-1" x="806.6" y="251.42" width="7.47" height="10.92" rx="0.95" transform="translate(416.65 1010.3) rotate(-80)"/><rect class="cls-2" x="806.6" y="223.57" width="7.47" height="10.92" rx="0.95" transform="translate(581.31 1039.37) rotate(-90)"/><rect class="cls-2" x="862.3" y="167.88" width="7.47" height="10.92" rx="0.95" transform="translate(692.7 1039.37) rotate(-90)"/><rect class="cls-1" x="834.45" y="167.88" width="7.47" height="10.92" rx="0.95" transform="translate(813.03 1028.89) rotate(-100)"/><rect class="cls-1" x="862.3" y="195.72" width="7.47" height="10.92" rx="0.95" transform="translate(517.52 1019.12) rotate(-80)"/><rect class="cls-2" x="834.45" y="195.72" width="7.47" height="10.92" rx="0.95" transform="translate(637 1039.37) rotate(-90)"/><rect class="cls-2" x="834.45" y="140.03" width="7.47" height="10.92" rx="0.79" transform="translate(988.15 982.88) rotate(-110)"/><rect class="cls-1" x="862.3" y="140.03" width="7.47" height="10.92" rx="0.95" transform="translate(873.14 1023.63) rotate(-100)"/><rect class="cls-1" x="890.14" y="167.88" width="7.47" height="10.92" rx="0.95" transform="matrix(0.17, -0.98, 0.98, 0.17, 567.96, 1023.54)"/><rect class="cls-2" x="890.14" y="195.72" width="7.47" height="10.92" rx="0.95" transform="matrix(0.34, -0.94, 0.94, 0.34, 399.1, 972.35)"/><rect class="cls-2" x="890.14" y="140.03" width="7.47" height="10.92" rx="0.95" transform="translate(748.39 1039.37) rotate(-90)"/><rect class="cls-1" x="945.84" y="167.88" width="7.47" height="10.92" rx="0.95" transform="translate(324.68 909.03) rotate(-60)"/><rect class="cls-2" x="917.99" y="167.88" width="7.47" height="10.92" rx="0.95" transform="translate(443.6 980.19) rotate(-70)"/><rect class="cls-2" x="945.84" y="195.72" width="7.47" height="10.92" rx="0.95" transform="translate(185.09 799.28) rotate(-50)"/><rect class="cls-1" x="917.99" y="195.72" width="7.47" height="10.92" rx="0.95" transform="translate(286.63 898.83) rotate(-60)"/><rect class="cls-1" x="917.99" y="140.03" width="7.47" height="10.92" rx="0.79" transform="translate(618.39 1027.95) rotate(-80)"/><rect class="cls-2" x="945.84" y="140.03" width="7.47" height="10.92" rx="0.95" transform="translate(488.09 988.04) rotate(-70)"/><rect class="cls-2" x="973.69" y="167.88" width="7.47" height="10.92" rx="0.95" transform="translate(216.37 810.67) rotate(-50)"/><rect class="cls-1" x="973.69" y="195.72" width="7.47" height="10.92" rx="0.95" transform="translate(99.36 675.35) rotate(-40)"/><rect class="cls-1" x="973.69" y="140.03" width="7.47" height="10.92" rx="0.95" transform="translate(362.72 919.22) rotate(-60)"/><rect class="cls-1" x="862.3" y="251.42" width="7.47" height="10.92" rx="0.95" transform="translate(210.55 878.45) rotate(-60)"/><rect class="cls-2" x="834.45" y="251.42" width="7.47" height="10.92" rx="0.95" transform="translate(310.12 956.66) rotate(-70)"/><rect class="cls-1" x="834.45" y="223.57" width="7.47" height="10.92" rx="0.79" transform="translate(467.08 1014.71) rotate(-80)"/><rect class="cls-2" x="862.3" y="223.57" width="7.47" height="10.92" rx="0.95" transform="translate(354.61 964.5) rotate(-70)"/><rect class="cls-2" x="890.14" y="251.42" width="7.47" height="10.92" rx="0.95" transform="translate(122.52 776.51) rotate(-50)"/><rect class="cls-1" x="890.14" y="223.57" width="7.47" height="10.92" rx="0.95" transform="translate(248.59 888.64) rotate(-60)"/><rect class="cls-2" x="945.84" y="251.42" width="7.47" height="10.92" rx="0.95" transform="translate(-1.22 509.2) rotate(-30)"/><rect class="cls-1" x="917.99" y="251.42" width="7.47" height="10.92" rx="0.95" transform="translate(50.52 652.58) rotate(-40)"/><rect class="cls-2" x="917.99" y="223.57" width="7.47" height="10.92" rx="0.79" transform="translate(153.8 787.9) rotate(-50)"/><rect class="cls-1" x="945.84" y="223.57" width="7.47" height="10.92" rx="0.95" transform="matrix(0.77, -0.64, 0.64, 0.77, 74.94, 663.96)"/><rect class="cls-1" x="973.69" y="251.42" width="7.47" height="10.92" rx="0.95" transform="translate(-28.91 349.79) rotate(-20)"/><rect class="cls-2" x="973.69" y="223.57" width="7.47" height="10.92" rx="0.95" transform="translate(16.43 519.4) rotate(-30)"/><rect class="cls-2" x="1029.38" y="167.88" width="7.47" height="10.92" rx="0.95" transform="matrix(0.87, -0.5, 0.5, 0.87, 51.74, 539.78)"/><rect class="cls-1" x="1001.54" y="167.88" width="7.47" height="10.92" rx="0.95" transform="translate(123.77 686.73) rotate(-40)"/><rect class="cls-1" x="1029.38" y="195.72" width="7.47" height="10.92" rx="0.95" transform="translate(-6.5 365.48) rotate(-20)"/><rect class="cls-2" x="1001.54" y="195.72" width="7.47" height="10.92" rx="0.95" transform="matrix(0.87, -0.5, 0.5, 0.87, 34.09, 529.59)"/><rect class="cls-2" x="1001.54" y="140.03" width="7.47" height="10.92" rx="0.79" transform="translate(247.65 822.05) rotate(-50)"/><rect class="cls-1" x="1029.38" y="140.03" width="7.47" height="10.92" rx="0.95" transform="translate(148.19 698.12) rotate(-40)"/><rect class="cls-1" x="1029.38" y="251.42" width="7.47" height="10.92" rx="0.95"/><rect class="cls-2" x="1001.54" y="251.42" width="7.47" height="10.92" rx="0.95" transform="translate(-29.33 178.47) rotate(-10)"/><rect class="cls-1" x="1001.54" y="223.57" width="7.47" height="10.92" rx="0.79" transform="translate(-17.71 357.64) rotate(-20)"/><rect class="cls-2" x="1029.38" y="223.57" width="7.47" height="10.92" rx="0.95" transform="translate(-24.08 182.88) rotate(-10)"/><rect class="cls-1" x="555.98" y="0.79" width="7.47" height="10.92" rx="0.95" transform="translate(456.37 556.38) rotate(-80)"/><rect class="cls-2" x="555.98" y="28.64" width="7.47" height="10.92" rx="0.95" transform="translate(336.24 548.4) rotate(-70)"/><rect class="cls-2" x="555.98" y="84.33" width="7.47" height="10.92" rx="0.95" transform="translate(131.15 460.84) rotate(-50)"/><rect class="cls-1" x="555.98" y="112.18" width="7.47" height="10.92" rx="0.95" transform="translate(55.33 387.3) rotate(-40)"/><rect class="cls-1" x="555.98" y="56.48" width="7.47" height="10.92" rx="0.79" transform="translate(226.21 515.7) rotate(-60)"/><rect class="cls-1" x="555.98" y="167.88" width="7.47" height="10.92" rx="0.95" transform="translate(-25.53 201.89) rotate(-20)"/><rect class="cls-2" x="555.98" y="195.72" width="7.47" height="10.92" rx="0.95" transform="translate(-26.43 100.25) rotate(-10)"/><rect class="cls-2" x="555.98" y="140.03" width="7.47" height="10.92" rx="0.79" transform="translate(2.24 299.35) rotate(-30)"/><rect class="cls-2" x="555.98" y="251.42" width="7.47" height="10.92" rx="0.95" transform="translate(1066.33 607.05) rotate(-170)"/><rect class="cls-1" x="555.98" y="223.57" width="7.47" height="10.92" rx="0.79" transform="translate(1119.44 458.06) rotate(180)"/><rect class="cls-1" x="528.13" y="279.3" width="7.47" height="10.92" rx="0.95" transform="translate(1063.74 569.53) rotate(180)"/><rect class="cls-1" x="528.13" y="335" width="7.47" height="10.92" rx="0.95" transform="translate(148.52 -161.38) rotate(20)"/><rect class="cls-2" x="528.13" y="362.85" width="7.47" height="10.92" rx="0.95" transform="translate(255.41 -216.59) rotate(30)"/><rect class="cls-2" x="528.13" y="307.15" width="7.47" height="10.92" rx="0.95" transform="translate(62.36 -87.61) rotate(10)"/><rect class="cls-2" x="528.13" y="418.54" width="7.47" height="10.92" rx="0.95" transform="translate(514.8 -255.98) rotate(50)"/><rect class="cls-1" x="528.13" y="446.39" width="7.47" height="10.92" rx="0.95" transform="translate(657.25 -234.69) rotate(60)"/><rect class="cls-1" x="528.13" y="390.7" width="7.47" height="10.92" rx="0.95" transform="translate(379.08 -249.2) rotate(40)"/><rect class="cls-2" x="528.13" y="474.24" width="7.47" height="10.92" rx="0.95" transform="translate(800.73 -184.16) rotate(70)"/><rect class="cls-1" x="528.13" y="502.09" width="7.47" height="10.92" rx="0.95" transform="translate(939.35 -104.38) rotate(80)"/><rect class="cls-2" x="528.13" y="529.94" width="7.47" height="10.92" rx="0.95" transform="matrix(0, 1, -1, 0, 1067.27, 3.53)"/><rect class="cls-1" x="611.67" y="529.94" width="7.47" height="10.92" rx="0.95" transform="translate(771.37 -265.26) rotate(60)"/><rect class="cls-2" x="583.82" y="529.94" width="7.47" height="10.92" rx="0.95" transform="translate(889.71 -199.84) rotate(70)"/><rect class="cls-2" x="611.67" y="502.09" width="7.47" height="10.92" rx="0.95" transform="translate(608.63 -290.12) rotate(50)"/><rect class="cls-1" x="583.82" y="502.09" width="7.47" height="10.92" rx="0.95" transform="translate(733.33 -255.06) rotate(60)"/><rect class="cls-2" x="639.51" y="529.94" width="7.47" height="10.92" rx="0.95" transform="translate(639.91 -301.51) rotate(50)"/><rect class="cls-1" x="639.51" y="502.09" width="7.47" height="10.92" rx="0.95" transform="translate(476.74 -294.73) rotate(40)"/><rect class="cls-2" x="695.21" y="529.94" width="7.47" height="10.92" rx="0.95" transform="translate(361.34 -277.74) rotate(30)"/><rect class="cls-1" x="667.36" y="529.94" width="7.47" height="10.92" rx="0.95" transform="translate(501.15 -306.11) rotate(40)"/><rect class="cls-1" x="695.21" y="502.09" width="7.47" height="10.92" rx="0.95" transform="translate(215.74 -208.44) rotate(20)"/><rect class="cls-2" x="667.36" y="502.09" width="7.47" height="10.92" rx="0.95" transform="translate(343.68 -267.55) rotate(30)"/><rect class="cls-1" x="723.06" y="529.94" width="7.47" height="10.92" rx="0.95" transform="translate(226.95 -216.29) rotate(20)"/><rect class="cls-2" x="723.06" y="502.09" width="7.47" height="10.92" rx="0.95" transform="translate(99.18 -118.49) rotate(10)"/><rect class="cls-2" x="611.67" y="446.39" width="7.47" height="10.92" rx="0.95" transform="translate(308.37 -247.16) rotate(30)"/><rect class="cls-1" x="583.82" y="446.39" width="7.47" height="10.92" rx="0.95" transform="translate(427.91 -271.96) rotate(40)"/><rect class="cls-1" x="611.67" y="418.54" width="7.47" height="10.92" rx="0.95" transform="translate(182.13 -184.91) rotate(20)"/><rect class="cls-2" x="583.82" y="418.54" width="7.47" height="10.92" rx="0.95" transform="translate(290.72 -236.97) rotate(30)"/><rect class="cls-2" x="583.82" y="474.24" width="7.47" height="10.92" rx="0.79" transform="translate(577.35 -278.74) rotate(50)"/><rect class="cls-1" x="611.67" y="474.24" width="7.47" height="10.92" rx="0.95" transform="translate(452.32 -283.34) rotate(40)"/><rect class="cls-1" x="639.51" y="446.39" width="7.47" height="10.92" rx="0.95" transform="translate(193.33 -192.75) rotate(20)"/><rect class="cls-2" x="639.51" y="418.54" width="7.47" height="10.92" rx="0.95" transform="translate(83.4 -105.26) rotate(10)"/><rect class="cls-2" x="639.51" y="474.24" width="7.47" height="10.92" rx="0.95" transform="translate(326.03 -257.36) rotate(30)"/><rect class="cls-1" x="695.21" y="446.39" width="7.47" height="10.92" rx="0.95" transform="translate(1397.89 903.71) rotate(180)"/><rect class="cls-2" x="667.36" y="446.39" width="7.47" height="10.92" rx="0.95" transform="translate(88.66 -109.67) rotate(10)"/><rect class="cls-2" x="695.21" y="418.54" width="7.47" height="10.92" rx="0.95" transform="translate(1460.9 720.2) rotate(170)"/><rect class="cls-1" x="667.36" y="418.54" width="7.47" height="10.92" rx="0.95" transform="translate(1342.19 848.01) rotate(180)"/><rect class="cls-1" x="667.36" y="474.24" width="7.47" height="10.92" rx="0.79" transform="translate(204.54 -200.6) rotate(20)"/><rect class="cls-2" x="695.21" y="474.24" width="7.47" height="10.92" rx="0.95" transform="translate(93.92 -114.08) rotate(10)"/><rect class="cls-2" x="723.06" y="446.39" width="7.47" height="10.92" rx="0.95" transform="translate(1521.01 770.63) rotate(170)"/><rect class="cls-1" x="723.06" y="418.54" width="7.47" height="10.92" rx="0.95" transform="translate(1554.77 573.86) rotate(160)"/><rect class="cls-1" x="723.06" y="474.24" width="7.47" height="10.92" rx="0.95" transform="translate(1453.59 959.4) rotate(180)"/><rect class="cls-1" x="778.75" y="529.94" width="7.47" height="10.92" rx="0.95" transform="translate(1564.98 1070.79) rotate(180)"/><rect class="cls-2" x="750.9" y="529.94" width="7.47" height="10.92" rx="0.95" transform="translate(104.43 -122.91) rotate(10)"/><rect class="cls-2" x="778.75" y="502.09" width="7.47" height="10.92" rx="0.95" transform="translate(1641.22 871.51) rotate(170)"/><rect class="cls-1" x="750.9" y="502.09" width="7.47" height="10.92" rx="0.95" transform="translate(1509.28 1015.1) rotate(180)"/><rect class="cls-2" x="806.6" y="529.94" width="7.47" height="10.92" rx="0.95" transform="translate(1701.33 921.94) rotate(170)"/><rect class="cls-1" x="806.6" y="502.09" width="7.47" height="10.92" rx="0.95" transform="translate(1745.4 707.34) rotate(160)"/><rect class="cls-2" x="778.75" y="446.39" width="7.47" height="10.92" rx="0.95" transform="translate(1686.07 451.92) rotate(150)"/><rect class="cls-1" x="750.9" y="446.39" width="7.47" height="10.92" rx="0.95" transform="translate(1618.31 618.35) rotate(160)"/><rect class="cls-1" x="778.75" y="418.54" width="7.47" height="10.92" rx="0.95" transform="translate(1654.45 245.84) rotate(140)"/><rect class="cls-2" x="750.9" y="418.54" width="7.47" height="10.92" rx="0.95" transform="translate(1620.18 413.88) rotate(150)"/><rect class="cls-2" x="750.9" y="474.24" width="7.47" height="10.92" rx="0.79" transform="translate(1581.12 821.07) rotate(170)"/><rect class="cls-1" x="778.75" y="474.24" width="7.47" height="10.92" rx="0.95" transform="translate(1681.86 662.84) rotate(160)"/><rect class="cls-1" x="806.6" y="446.39" width="7.47" height="10.92" rx="0.95" transform="translate(1721.54 277.12) rotate(140)"/><rect class="cls-2" x="806.6" y="418.54" width="7.47" height="10.92" rx="0.95" transform="translate(1656.02 75.8) rotate(130)"/><rect class="cls-2" x="806.6" y="474.24" width="7.47" height="10.92" rx="0.95" transform="translate(1751.96 489.96) rotate(150)"/><rect class="cls-2" x="862.3" y="529.94" width="7.47" height="10.92" rx="0.95" transform="translate(1883.74 566.05) rotate(150)"/><rect class="cls-1" x="834.45" y="529.94" width="7.47" height="10.92" rx="0.95" transform="translate(1808.94 751.83) rotate(160)"/><rect class="cls-1" x="862.3" y="502.09" width="7.47" height="10.92" rx="0.95" transform="translate(1855.7 339.68) rotate(140)"/><rect class="cls-2" x="834.45" y="502.09" width="7.47" height="10.92" rx="0.95" transform="translate(1817.85 528.01) rotate(150)"/><rect class="cls-1" x="890.14" y="529.94" width="7.47" height="10.92" rx="0.95" transform="translate(1922.78 370.96) rotate(140)"/><rect class="cls-2" x="890.14" y="502.09" width="7.47" height="10.92" rx="0.95" transform="translate(1857.26 149.04) rotate(130)"/><rect class="cls-1" x="945.84" y="529.94" width="7.47" height="10.92" rx="0.95" transform="translate(1888.03 -19.26) rotate(120)"/><rect class="cls-2" x="917.99" y="529.94" width="7.47" height="10.92" rx="0.95" transform="translate(1924.34 173.46) rotate(130)"/><rect class="cls-2" x="945.84" y="502.09" width="7.47" height="10.92" rx="0.95" transform="translate(1751.29 -211.17) rotate(110)"/><rect class="cls-1" x="917.99" y="502.09" width="7.47" height="10.92" rx="0.95" transform="matrix(-0.5, 0.87, -0.87, -0.5, 1822.14, -36.92)"/><rect class="cls-2" x="973.69" y="529.94" width="7.47" height="10.92" rx="0.95" transform="translate(1814.83 -199.97) rotate(110)"/><rect class="cls-1" x="973.69" y="502.09" width="7.47" height="10.92" rx="0.95" transform="translate(1646.99 -366.89) rotate(100)"/><rect class="cls-1" x="862.3" y="446.39" width="7.47" height="10.92" rx="0.95" transform="translate(1690.36 -72.23) rotate(120)"/><rect class="cls-2" x="834.45" y="446.39" width="7.47" height="10.92" rx="0.95" transform="translate(1723.1 100.21) rotate(130)"/><rect class="cls-2" x="862.3" y="418.54" width="7.47" height="10.92" rx="0.95" transform="translate(1560.67 -244.78) rotate(110)"/><rect class="cls-1" x="834.45" y="418.54" width="7.47" height="10.92" rx="0.95" transform="translate(1624.48 -89.88) rotate(120)"/><rect class="cls-1" x="834.45" y="474.24" width="7.47" height="10.92" rx="0.79" transform="translate(1788.62 308.4) rotate(140)"/><rect class="cls-2" x="862.3" y="474.24" width="7.47" height="10.92" rx="0.95" transform="translate(1790.18 124.63) rotate(130)"/><rect class="cls-2" x="890.14" y="446.39" width="7.47" height="10.92" rx="0.95" transform="translate(1624.21 -233.58) rotate(110)"/><rect class="cls-1" x="890.14" y="418.54" width="7.47" height="10.92" rx="0.95" transform="translate(1466.66 -382.67) rotate(100)"/><rect class="cls-1" x="890.14" y="474.24" width="7.47" height="10.92" rx="0.95" transform="translate(1756.25 -54.57) rotate(120)"/><rect class="cls-2" x="945.84" y="446.39" width="7.47" height="10.92" rx="0.95" transform="translate(1401.43 -497.72) rotate(90)"/><rect class="cls-1" x="917.99" y="446.39" width="7.47" height="10.92" rx="0.95" transform="translate(1526.77 -377.41) rotate(100)"/><rect class="cls-1" x="945.84" y="418.54" width="7.47" height="10.92" rx="0.95" transform="translate(1202.25 -584.77) rotate(80)"/><rect class="cls-2" x="917.99" y="418.54" width="7.47" height="10.92" rx="0.95" transform="translate(1345.73 -497.72) rotate(90)"/><rect class="cls-2" x="917.99" y="474.24" width="7.47" height="10.92" rx="0.79" transform="translate(1687.75 -222.37) rotate(110)"/><rect class="cls-1" x="945.84" y="474.24" width="7.47" height="10.92" rx="0.95" transform="translate(1586.88 -372.15) rotate(100)"/><rect class="cls-1" x="973.69" y="446.39" width="7.47" height="10.92" rx="0.95" transform="translate(1252.68 -589.19) rotate(80)"/><rect class="cls-2" x="973.69" y="418.54" width="7.47" height="10.92" rx="0.95" transform="translate(1041.56 -639.49) rotate(70)"/><rect class="cls-2" x="973.69" y="474.24" width="7.47" height="10.92" rx="0.95" transform="translate(1457.12 -497.72) rotate(90)"/><rect class="cls-2" x="1029.38" y="529.93" width="7.47" height="10.92" rx="0.95" transform="translate(1568.51 -497.72) rotate(90)"/><rect class="cls-1" x="1001.54" y="529.93" width="7.47" height="10.92" rx="0.95" transform="translate(1707.1 -361.63) rotate(100)"/><rect class="cls-1" x="1029.38" y="502.09" width="7.47" height="10.92" rx="0.95" transform="translate(1353.56 -598.01) rotate(80)"/><rect class="cls-2" x="1001.54" y="502.09" width="7.47" height="10.92" rx="0.95" transform="translate(1512.82 -497.72) rotate(90)"/><rect class="cls-1" x="1029.38" y="446.39" width="7.47" height="10.92" rx="0.95" transform="translate(907.87 -668.78) rotate(60)"/><rect class="cls-2" x="1001.54" y="446.39" width="7.47" height="10.92" rx="0.95" transform="translate(1086.05 -647.34) rotate(70)"/><rect class="cls-2" x="1029.38" y="418.54" width="7.47" height="10.92" rx="0.95" transform="translate(693.85 -639.96) rotate(50)"/><rect class="cls-1" x="1001.54" y="418.54" width="7.47" height="10.92" rx="0.95" transform="translate(869.83 -658.59) rotate(60)"/><rect class="cls-1" x="1001.54" y="474.24" width="7.47" height="10.92" rx="0.79" transform="translate(1303.12 -593.6) rotate(80)"/><rect class="cls-2" x="1029.38" y="474.24" width="7.47" height="10.92" rx="0.95" transform="translate(1130.54 -655.18) rotate(70)"/><rect class="cls-1" x="611.67" y="362.85" width="7.47" height="10.92" rx="0.95" transform="translate(1230.8 736.62) rotate(180)"/><rect class="cls-2" x="583.82" y="362.85" width="7.47" height="10.92" rx="0.95" transform="matrix(0.98, 0.17, -0.17, 0.98, 72.88, -96.43)"/><rect class="cls-2" x="611.67" y="335" width="7.47" height="10.92" rx="0.95" transform="matrix(-0.98, 0.17, -0.17, -0.98, 1280.57, 568.89)"/><rect class="cls-1" x="583.82" y="335" width="7.47" height="10.92" rx="0.95" transform="translate(1175.11 680.92) rotate(180)"/><rect class="cls-1" x="583.82" y="390.7" width="7.47" height="10.92" rx="0.79" transform="translate(170.93 -177.06) rotate(20)"/><rect class="cls-2" x="611.67" y="390.7" width="7.47" height="10.92" rx="0.95" transform="translate(78.14 -100.84) rotate(10)"/><rect class="cls-2" x="639.51" y="362.85" width="7.47" height="10.92" rx="0.95" transform="translate(1340.68 619.32) rotate(170)"/><rect class="cls-1" x="639.51" y="335" width="7.47" height="10.92" rx="0.95" transform="translate(1364.15 440.39) rotate(160)"/><rect class="cls-1" x="639.51" y="390.7" width="7.47" height="10.92" rx="0.95" transform="translate(1286.5 792.31) rotate(180)"/><rect class="cls-2" x="695.21" y="362.85" width="7.47" height="10.92" rx="0.95" transform="translate(1488.4 337.8) rotate(150)"/><rect class="cls-1" x="667.36" y="362.85" width="7.47" height="10.92" rx="0.95" transform="translate(1427.69 484.88) rotate(160)"/><rect class="cls-1" x="695.21" y="335" width="7.47" height="10.92" rx="0.95" transform="translate(1453.21 152) rotate(140)"/><rect class="cls-2" x="667.36" y="335" width="7.47" height="10.92" rx="0.95" transform="translate(1422.51 299.76) rotate(150)"/><rect class="cls-2" x="667.36" y="390.7" width="7.47" height="10.92" rx="0.79" transform="translate(1400.79 669.76) rotate(170)"/><rect class="cls-1" x="695.21" y="390.7" width="7.47" height="10.92" rx="0.95" transform="translate(1491.23 529.37) rotate(160)"/><rect class="cls-1" x="723.06" y="362.85" width="7.47" height="10.92" rx="0.95" transform="translate(1520.29 183.28) rotate(140)"/><rect class="cls-2" x="723.06" y="335" width="7.47" height="10.92" rx="0.95" transform="translate(1454.77 2.55) rotate(130)"/><rect class="cls-2" x="723.06" y="390.7" width="7.47" height="10.92" rx="0.95" transform="translate(1554.29 375.84) rotate(150)"/><rect class="cls-2" x="611.67" y="279.3" width="7.47" height="10.92" rx="0.95" transform="matrix(-0.87, 0.5, -0.5, -0.87, 1290.74, 223.68)"/><rect class="cls-1" x="583.82" y="279.3" width="7.47" height="10.92" rx="0.95" transform="translate(1237.07 351.4) rotate(160)"/><rect class="cls-2" x="583.82" y="307.15" width="7.47" height="10.92" rx="0.79" transform="translate(1220.47 518.45) rotate(170)"/><rect class="cls-1" x="611.67" y="307.15" width="7.47" height="10.92" rx="0.95" transform="translate(1300.61 395.89) rotate(160)"/><rect class="cls-1" x="639.51" y="279.3" width="7.47" height="10.92" rx="0.95" transform="translate(1319.05 89.44) rotate(140)"/><rect class="cls-2" x="639.51" y="307.15" width="7.47" height="10.92" rx="0.95" transform="translate(1356.63 261.72) rotate(150)"/><rect class="cls-1" x="695.21" y="279.3" width="7.47" height="10.92" rx="0.95" transform="translate(1295.03 -178.16) rotate(120)"/><rect class="cls-2" x="667.36" y="279.3" width="7.47" height="10.92" rx="0.95" transform="translate(1320.61 -46.28) rotate(130)"/><rect class="cls-1" x="667.36" y="307.15" width="7.47" height="10.92" rx="0.79" transform="translate(1386.13 120.72) rotate(140)"/><rect class="cls-2" x="695.21" y="307.15" width="7.47" height="10.92" rx="0.95" transform="translate(1387.69 -21.87) rotate(130)"/><rect class="cls-2" x="723.06" y="279.3" width="7.47" height="10.92" rx="0.95" transform="translate(1242.96 -300.8) rotate(110)"/><rect class="cls-1" x="723.06" y="307.15" width="7.47" height="10.92" rx="0.95" transform="translate(1360.92 -160.5) rotate(120)"/><rect class="cls-1" x="778.75" y="362.85" width="7.47" height="10.92" rx="0.95" transform="translate(1492.7 -125.19) rotate(120)"/><rect class="cls-2" x="750.9" y="362.85" width="7.47" height="10.92" rx="0.95" transform="translate(1521.86 26.96) rotate(130)"/><rect class="cls-2" x="778.75" y="335" width="7.47" height="10.92" rx="0.95" transform="translate(1370.04 -278.39) rotate(110)"/><rect class="cls-1" x="750.9" y="335" width="7.47" height="10.92" rx="0.95" transform="translate(1426.81 -142.85) rotate(120)"/><rect class="cls-1" x="750.9" y="390.7" width="7.47" height="10.92" rx="0.79" transform="translate(1587.37 214.56) rotate(140)"/><rect class="cls-2" x="778.75" y="390.7" width="7.47" height="10.92" rx="0.95" transform="translate(1588.94 51.38) rotate(130)"/><rect class="cls-2" x="806.6" y="362.85" width="7.47" height="10.92" rx="0.95" transform="translate(1433.58 -267.19) rotate(110)"/><rect class="cls-1" x="806.6" y="335" width="7.47" height="10.92" rx="0.95" transform="translate(1286.34 -398.44) rotate(100)"/><rect class="cls-1" x="806.6" y="390.7" width="7.47" height="10.92" rx="0.95" transform="translate(1558.59 -107.54) rotate(120)"/><rect class="cls-2" x="778.75" y="279.3" width="7.47" height="10.92" rx="0.95" transform="translate(1067.25 -497.72) rotate(90)"/><rect class="cls-1" x="750.9" y="279.3" width="7.47" height="10.92" rx="0.95" transform="translate(1166.12 -408.96) rotate(100)"/><rect class="cls-2" x="750.9" y="307.15" width="7.47" height="10.92" rx="0.79" transform="translate(1306.5 -289.6) rotate(110)"/><rect class="cls-1" x="778.75" y="307.15" width="7.47" height="10.92" rx="0.95" transform="translate(1226.23 -403.7) rotate(100)"/><rect class="cls-1" x="806.6" y="279.3" width="7.47" height="10.92" rx="0.95" transform="translate(950.06 -562.71) rotate(80)"/><rect class="cls-2" x="806.6" y="307.15" width="7.47" height="10.92" rx="0.95" transform="translate(1122.95 -497.72) rotate(90)"/><rect class="cls-2" x="862.3" y="362.85" width="7.47" height="10.92" rx="0.95" transform="translate(1234.34 -497.72) rotate(90)"/><rect class="cls-1" x="834.45" y="362.85" width="7.47" height="10.92" rx="0.95" transform="translate(1346.45 -393.19) rotate(100)"/><rect class="cls-1" x="862.3" y="335" width="7.47" height="10.92" rx="0.95" transform="translate(1050.94 -571.53) rotate(80)"/><rect class="cls-2" x="834.45" y="335" width="7.47" height="10.92" rx="0.95" transform="translate(1178.64 -497.72) rotate(90)"/><rect class="cls-2" x="834.45" y="390.7" width="7.47" height="10.92" rx="0.79" transform="translate(1497.13 -255.99) rotate(110)"/><rect class="cls-1" x="862.3" y="390.7" width="7.47" height="10.92" rx="0.95" transform="translate(1406.56 -387.93) rotate(100)"/><rect class="cls-1" x="890.14" y="362.85" width="7.47" height="10.92" rx="0.95" transform="translate(1101.37 -575.95) rotate(80)"/><rect class="cls-2" x="890.14" y="335" width="7.47" height="10.92" rx="0.95" transform="translate(908.08 -615.96) rotate(70)"/><rect class="cls-2" x="890.14" y="390.7" width="7.47" height="10.92" rx="0.95" transform="translate(1290.04 -497.72) rotate(90)"/><rect class="cls-1" x="945.84" y="362.85" width="7.47" height="10.92" rx="0.95" transform="translate(793.75 -638.2) rotate(60)"/><rect class="cls-2" x="917.99" y="362.85" width="7.47" height="10.92" rx="0.95" transform="translate(952.57 -623.8) rotate(70)"/><rect class="cls-2" x="945.84" y="335" width="7.47" height="10.92" rx="0.95" transform="translate(600.01 -605.8) rotate(50)"/><rect class="cls-1" x="917.99" y="335" width="7.47" height="10.92" rx="0.95" transform="translate(755.71 -628.01) rotate(60)"/><rect class="cls-1" x="917.99" y="390.7" width="7.47" height="10.92" rx="0.79" transform="translate(1151.81 -580.36) rotate(80)"/><rect class="cls-2" x="945.84" y="390.7" width="7.47" height="10.92" rx="0.95" transform="matrix(0.34, 0.94, -0.94, 0.34, 997.07, -631.65)"/><rect class="cls-2" x="973.69" y="362.85" width="7.47" height="10.92" rx="0.95" transform="translate(631.29 -617.19) rotate(50)"/><rect class="cls-1" x="973.69" y="335" width="7.47" height="10.92" rx="0.95" transform="translate(447.52 -548.62) rotate(40)"/><rect class="cls-1" x="973.69" y="390.7" width="7.47" height="10.92" rx="0.95" transform="translate(831.79 -648.4) rotate(60)"/><rect class="cls-1" x="862.3" y="279.3" width="7.47" height="10.92" rx="0.95" transform="translate(679.63 -607.62) rotate(60)"/><rect class="cls-2" x="834.45" y="279.3" width="7.47" height="10.92" rx="0.95" transform="translate(819.1 -600.27) rotate(70)"/><rect class="cls-1" x="834.45" y="307.15" width="7.47" height="10.92" rx="0.79" transform="translate(1000.5 -567.12) rotate(80)"/><rect class="cls-2" x="862.3" y="307.15" width="7.47" height="10.92" rx="0.95" transform="translate(863.59 -608.11) rotate(70)"/><rect class="cls-2" x="890.14" y="279.3" width="7.47" height="10.92" rx="0.95" transform="translate(537.45 -583.03) rotate(50)"/><rect class="cls-1" x="890.14" y="307.15" width="7.47" height="10.92" rx="0.95" transform="translate(717.67 -617.82) rotate(60)"/><rect class="cls-2" x="945.84" y="279.3" width="7.47" height="10.92" rx="0.95" transform="translate(269.6 -436.64) rotate(30)"/><rect class="cls-1" x="917.99" y="279.3" width="7.47" height="10.92" rx="0.95" transform="translate(398.69 -525.85) rotate(40)"/><rect class="cls-2" x="917.99" y="307.15" width="7.47" height="10.92" rx="0.79" transform="translate(568.73 -594.41) rotate(50)"/><rect class="cls-1" x="945.84" y="307.15" width="7.47" height="10.92" rx="0.95" transform="translate(423.1 -537.24) rotate(40)"/><rect class="cls-1" x="973.69" y="279.3" width="7.47" height="10.92" rx="0.95" transform="translate(156.34 -317.12) rotate(20)"/><rect class="cls-2" x="973.69" y="307.15" width="7.47" height="10.92" rx="0.95" transform="translate(287.26 -446.83) rotate(30)"/><rect class="cls-2" x="1029.38" y="362.85" width="7.47" height="10.92" rx="0.95" transform="translate(322.57 -467.22) rotate(30)"/><rect class="cls-1" x="1001.54" y="362.85" width="7.47" height="10.92" rx="0.95" transform="translate(471.93 -560.01) rotate(40)"/><rect class="cls-1" x="1029.38" y="335" width="7.47" height="10.92" rx="0.95" transform="translate(178.75 -332.81) rotate(20)"/><rect class="cls-2" x="1001.54" y="335" width="7.47" height="10.92" rx="0.95" transform="translate(304.91 -457.02) rotate(30)"/><rect class="cls-2" x="1001.54" y="390.7" width="7.47" height="10.92" rx="0.79" transform="translate(662.57 -628.57) rotate(50)"/><rect class="cls-1" x="1029.38" y="390.7" width="7.47" height="10.92" rx="0.95" transform="translate(496.35 -571.39) rotate(40)"/><rect class="cls-2" x="1029.38" y="279.3" width="7.47" height="10.92" rx="0.95"/><rect class="cls-2" x="1001.54" y="279.3" width="7.47" height="10.92" rx="0.95" transform="translate(64.72 -170.24) rotate(10)"/><rect class="cls-1" x="1001.54" y="307.15" width="7.47" height="10.92" rx="0.79" transform="translate(167.54 -324.97) rotate(20)"/><rect class="cls-2" x="1029.38" y="307.15" width="7.47" height="10.92" rx="0.95" transform="translate(69.98 -174.65) rotate(10)"/><rect class="cls-1" x="555.98" y="529.94" width="7.47" height="10.92" rx="0.95" transform="translate(989.79 -108.79) rotate(80)"/><rect class="cls-2" x="555.98" y="502.09" width="7.47" height="10.92" rx="0.95" transform="translate(845.22 -192.01) rotate(70)"/><rect class="cls-2" x="555.98" y="446.39" width="7.47" height="10.92" rx="0.95" transform="translate(546.08 -267.36) rotate(50)"/><rect class="cls-1" x="555.98" y="418.54" width="7.47" height="10.92" rx="0.95" transform="translate(403.49 -260.58) rotate(40)"/><rect class="cls-1" x="555.98" y="474.24" width="7.47" height="10.92" rx="0.79" transform="translate(695.29 -244.88) rotate(60)"/><rect class="cls-1" x="555.98" y="362.85" width="7.47" height="10.92" rx="0.95" transform="translate(159.72 -169.22) rotate(20)"/><rect class="cls-2" x="555.98" y="335" width="7.47" height="10.92" rx="0.95" transform="translate(67.62 -92.02) rotate(10)"/><rect class="cls-2" x="555.98" y="390.7" width="7.47" height="10.92" rx="0.79" transform="translate(273.07 -226.78) rotate(30)"/><rect class="cls-2" x="555.98" y="279.3" width="7.47" height="10.92" rx="0.95" transform="translate(1160.38 468.01) rotate(170)"/><rect class="cls-1" x="555.98" y="307.15" width="7.47" height="10.92" rx="0.79" transform="translate(1119.44 625.23) rotate(180)"/></g></g></svg>