<svg xmlns="http://www.w3.org/2000/svg" xmlns:xlink="http://www.w3.org/1999/xlink" viewBox="0 0 64.43 64.43"><defs><style>.cls-1{fill:none;}.cls-2{clip-path:url(#clip-path);}.cls-3{fill:#546770;}.cls-4{fill:#fbac18;}</style><clipPath id="clip-path"><rect class="cls-1" width="64.43" height="64.43"/></clipPath></defs><g id="Слой_2" data-name="Слой 2"><g id="icon-work"><g class="cls-2"><path class="cls-3" d="M0,0V64.43H64.43V0ZM33,31.71H18.68V17.46H46.46V31.71Zm6.51,31.12H18.68V48.72H39.53Zm23.3-47.12H33V1.6H62.83ZM1.6,1.6H31.42V15.71H1.6Zm0,15.86H17.08V31.71H1.6ZM31.42,47.13H1.6V33.31H31.42ZM1.6,48.72H17.08V62.83H1.6ZM62.83,62.83H41.13v-19a2.67,2.67,0,0,1,.7-2A3.29,3.29,0,0,1,43.89,41H62.83Zm0-23.41H43.91a4.8,4.8,0,0,0-3.19,1.23,4.19,4.19,0,0,0-1.19,3.14v3.33H33V33.31H62.83Zm-14.77-22H62.83V31.71H48.06Z"/></g><g class="cls-2"><path class="cls-4" d="M46.09,50.9l4.83-4.84a1.19,1.19,0,0,0,0-1.69,1.2,1.2,0,0,0-1.7,0v0L44.39,49.2a1.2,1.2,0,1,0,1.69,1.71h0m10.45.78L51.7,56.51a1.2,1.2,0,1,0,1.69,1.71h0l4.84-4.84a1.19,1.19,0,0,0,0-1.69,1.21,1.21,0,0,0-1.7,0v0m.1-7.32L45.22,55.78a1.2,1.2,0,0,0,1.7,1.7L58.34,46.06a1.19,1.19,0,0,0,0-1.69,1.2,1.2,0,0,0-1.7,0v0"/></g></g></g></svg>