<svg xmlns="http://www.w3.org/2000/svg" viewBox="0 0 360.18 475.54"><defs><style>.cls-1{fill:#fff;}.cls-2{fill:#546770;}</style></defs><g id="Слой_2" data-name="Слой 2"><g id="Layer_1" data-name="Layer 1"><path class="cls-1" d="M333.18,26.82H262.24L237.47,2.05a7,7,0,0,0-4.95-2H127.66a7,7,0,0,0-5,2.05L97.94,26.82H27a27,27,0,0,0-27,27V448.54a27,27,0,0,0,27,27H333.18a27,27,0,0,0,27-27V53.82A27,27,0,0,0,333.18,26.82Z"/><path class="cls-2" d="M333.18,26.82H262.24L237.47,2.05a7,7,0,0,0-4.95-2H127.66a7,7,0,0,0-5,2.05L97.94,26.82H27a27,27,0,0,0-27,27V448.54a27,27,0,0,0,27,27H333.18a27,27,0,0,0,27-27V53.82A27,27,0,0,0,333.18,26.82ZM310.06,76.94V425.42H50.13V76.94ZM130.56,14h99.06l22.73,22.72V57.94a5,5,0,0,1-5,5H112.84a5,5,0,0,1-5-5V36.72ZM346.18,448.54a13,13,0,0,1-13,13H27a13,13,0,0,1-13-13V53.82a13,13,0,0,1,13-13H93.84V57.94a18.34,18.34,0,0,0,.75,5H43.13a7,7,0,0,0-7,7h0V432.42a7,7,0,0,0,7,7H317.06a7,7,0,0,0,7-7h0V69.94a7,7,0,0,0-7-7H265.59a18.75,18.75,0,0,0,.76-5V40.82h66.83a13,13,0,0,1,13,13Z"/><path class="cls-2" d="M162.57,45.47h35.05a7,7,0,0,0,0-14H162.57a7,7,0,0,0,0,14Z"/><path class="cls-2" d="M180.09,142.88h88.55a7,7,0,0,0,0-14H180.09a7,7,0,0,0,0,14Z"/><path class="cls-2" d="M104.78,158.34a7,7,0,0,0,9.9,0l35-35A7,7,0,1,0,140.25,113a6,6,0,0,0-.44.43l-30.08,30.08L96.49,130.25a7,7,0,1,0-9.89,9.92Z"/><path class="cls-2" d="M180.09,296.62h88.55a7,7,0,0,0,0-14H180.09a7,7,0,0,0,0,14Z"/><path class="cls-2" d="M104.78,312.08a7,7,0,0,0,9.9,0h0l35-35a7,7,0,0,0-9.89-9.89l-30.08,30.07L96.49,284a7,7,0,0,0-9.9,9.89Z"/><path class="cls-2" d="M180.09,219.75h88.55a7,7,0,0,0,0-14H180.09a7,7,0,0,0,0,14Z"/><path class="cls-2" d="M104.78,235.21a7,7,0,0,0,9.9,0h0l35-35A7,7,0,1,0,140,190.1c-.06.06-.12.11-.17.17l-30.08,30.08L96.49,207.12a7,7,0,1,0-9.9,9.9Z"/><path class="cls-2" d="M180.09,373.49h88.55a7,7,0,0,0,0-14H180.09a7,7,0,0,0,0,14Z"/><path class="cls-2" d="M104.78,389a7,7,0,0,0,9.9,0h0l35-35.05A7,7,0,0,0,139.8,344L109.72,374.1,96.49,360.86a7,7,0,1,0-9.9,9.9Z"/></g></g></svg>