<svg xmlns="http://www.w3.org/2000/svg" viewBox="0 0 422 422"><defs><style>.cls-1,.cls-2{fill:#546770;}.cls-2{opacity:0.3;}</style></defs><g id="Слой_2" data-name="Слой 2"><g id="Layer_1" data-name="Layer 1"><path class="cls-1" d="M211,251.69a23.85,23.85,0,1,0-23.84-23.85h0A23.87,23.87,0,0,0,211,251.69ZM211,218a9.85,9.85,0,1,1-9.84,9.84h0A9.85,9.85,0,0,1,211,218Z"/><path class="cls-1" d="M417.56,300.48,342.46,271V245.55l5.13,3.18a19.77,19.77,0,0,0,20.8-33.6l-53-32.85a111.63,111.63,0,0,0,4.34-13.14h25.78a7,7,0,0,0,7-7V120.81a7,7,0,0,0-7-7H319.7A110.74,110.74,0,0,0,307.4,84.2L325.64,66a7,7,0,0,0,0-9.89h0L296.41,26.84a7,7,0,0,0-9.89,0h0L268.27,45.07a110.75,110.75,0,0,0-29.62-12.28V7a7,7,0,0,0-7-7H190.33a7,7,0,0,0-7,7V32.78a110.7,110.7,0,0,0-29.62,12.28L135.47,26.82a7,7,0,0,0-9.89,0h0L96.34,56.05a7,7,0,0,0,0,9.9h0L114.6,84.2a110.81,110.81,0,0,0-12.3,29.6H76.52a7,7,0,0,0-7,7v41.34a7,7,0,0,0,7,7H102.3a111.63,111.63,0,0,0,4.34,13.14l-53,32.83a19.77,19.77,0,0,0,5.88,36,20.09,20.09,0,0,0,4.57.53,19.61,19.61,0,0,0,10.37-3l5.12-3.17V271L4.44,300.48A7,7,0,0,0,0,307V415a7,7,0,0,0,7,7H415a7,7,0,0,0,7-7V307A7,7,0,0,0,417.56,300.48ZM114.76,160.77a7,7,0,0,0-6.86-5.63H83.52V127.8H107.9a7,7,0,0,0,6.86-5.63,97,97,0,0,1,14.56-35.1,7,7,0,0,0-.88-8.83L111.2,61l19.32-19.33,17.25,17.24a7,7,0,0,0,8.83.89,97.13,97.13,0,0,1,35.1-14.55,7,7,0,0,0,5.63-6.86V14h27.33V38.37a7,7,0,0,0,5.64,6.87A97,97,0,0,1,265.4,59.8a7,7,0,0,0,8.84-.87l17.24-17.24L310.8,61,293.56,78.24a7,7,0,0,0-.88,8.83,97,97,0,0,1,14.56,35.1,7,7,0,0,0,6.86,5.63h24.38v27.33H314.1a7,7,0,0,0-6.86,5.63,98.84,98.84,0,0,1-3.95,14l-25.83-16a68.67,68.67,0,1,0-132.92,0l-25.83,16a97.41,97.41,0,0,1-3.95-14ZM157.17,151a54.67,54.67,0,1,1,107.67,0L221.4,124.12a19.65,19.65,0,0,0-20.8,0ZM67,236.82A5.77,5.77,0,0,1,61,227h0l147-91a5.83,5.83,0,0,1,6.08,0l147,91a5.77,5.77,0,0,1,1.86,7.94A5.86,5.86,0,0,1,355,236.8L214.68,150a7,7,0,0,0-7.36,0ZM14,311.77l65.54-25.71V408H14Zm79.54-74.89L211,164.17l117.46,72.72V408.56H266.28V319a7,7,0,0,0-7-7H162.72a7,7,0,0,0-7,7v89.55H93.54ZM252.28,408.55H169.72V326h82.56ZM408,408H342.46V286.06L408,311.77Z"/><path class="cls-2" d="M417.56,300.48,342.46,271V245.55l5.13,3.18a19.77,19.77,0,0,0,20.8-33.6l-53-32.85a111.63,111.63,0,0,0,4.34-13.14h25.78a7,7,0,0,0,7-7V120.81a7,7,0,0,0-7-7H319.7A110.74,110.74,0,0,0,307.4,84.2L325.64,66a7,7,0,0,0,0-9.89h0L296.41,26.84a7,7,0,0,0-9.89,0h0L268.27,45.07a110.75,110.75,0,0,0-29.62-12.28V7a7,7,0,0,0-7-7H190.33a7,7,0,0,0-7,7V32.78a110.7,110.7,0,0,0-29.62,12.28L135.47,26.82a7,7,0,0,0-9.89,0h0L96.34,56.05a7,7,0,0,0,0,9.9h0L114.6,84.2a110.81,110.81,0,0,0-12.3,29.6H76.52a7,7,0,0,0-7,7v41.34a7,7,0,0,0,7,7H102.3a111.63,111.63,0,0,0,4.34,13.14l-53,32.83a19.77,19.77,0,0,0,5.88,36,20.09,20.09,0,0,0,4.57.53,19.64,19.64,0,0,0,10.37-3l5.12-3.17V271L4.44,300.48A7,7,0,0,0,0,307V415a7,7,0,0,0,7,7H415a7,7,0,0,0,7-7V307A7,7,0,0,0,417.56,300.48Z"/></g></g></svg>