<svg xmlns="http://www.w3.org/2000/svg" viewBox="0 0 329.6 456.7"><defs><style>.cls-1,.cls-2{fill:#546770;}.cls-2{opacity:0.3;}</style></defs><g id="Слой_2" data-name="Слой 2"><g id="Layer_1" data-name="Layer 1"><path class="cls-1" d="M268.8,328.7v-1.6H312a17.76,17.76,0,0,0,17.6-17.6V263.9A17.76,17.76,0,0,0,312,246.3H268.8V199.1a17.76,17.76,0,0,0-17.6-17.6H144c-4,0-7.2.8-9.6,3.2-3.2-1.6-6.4-3.2-9.6-3.2H17.6A17.76,17.76,0,0,0,0,199.1v45.6a17.76,17.76,0,0,0,17.6,17.6H60.8v48.8H17.6A17.76,17.76,0,0,0,0,328.7v45.6a17.76,17.76,0,0,0,17.6,17.6H60.8v47.2a17.76,17.76,0,0,0,17.6,17.6H185.6c4,0,7.2-.8,9.6-3.2,3.2,1.6,6.4,3.2,9.6,3.2H312a17.76,17.76,0,0,0,17.6-17.6V393.5A17.76,17.76,0,0,0,312,375.9H268.8V328.7ZM144,196.7H251.2a1.72,1.72,0,0,1,1.6,1.6v45.6a1.72,1.72,0,0,1-1.6,1.6H144.8a1.72,1.72,0,0,1-1.6-1.6V198.3C142.4,197.5,143.2,196.7,144,196.7Zm0,66.4h40.8a1.72,1.72,0,0,1,1.6,1.6v45.6a1.72,1.72,0,0,1-1.6,1.6H78.4a1.72,1.72,0,0,1-1.6-1.6V264.7a1.72,1.72,0,0,1,1.6-1.6H144ZM17.6,246.3a1.72,1.72,0,0,1-1.6-1.6V199.1a1.72,1.72,0,0,1,1.6-1.6H124.8a1.72,1.72,0,0,1,1.6,1.6v45.6a1.72,1.72,0,0,1-1.6,1.6H17.6Zm0,131.2a1.72,1.72,0,0,1-1.6-1.6V330.3a1.72,1.72,0,0,1,1.6-1.6H124.8a1.72,1.72,0,0,1,1.6,1.6v45.6a1.72,1.72,0,0,1-1.6,1.6H17.6Zm168,65.6H78.4a1.72,1.72,0,0,1-1.6-1.6V395.9a1.72,1.72,0,0,1,1.6-1.6H184.8a1.72,1.72,0,0,1,1.6,1.6v45.6C187.2,442.3,186.4,443.1,185.6,443.1Zm0-66.4H144.8a1.72,1.72,0,0,1-1.6-1.6V329.5a1.72,1.72,0,0,1,1.6-1.6H251.2a1.72,1.72,0,0,1,1.6,1.6v45.6a1.72,1.72,0,0,1-1.6,1.6H185.6ZM312,393.5a1.72,1.72,0,0,1,1.6,1.6v45.6a1.72,1.72,0,0,1-1.6,1.6H204.8a1.72,1.72,0,0,1-1.6-1.6V395.1a1.72,1.72,0,0,1,1.6-1.6H312Zm-60.8-81.6H204.8a1.72,1.72,0,0,1-1.6-1.6V264.7a1.72,1.72,0,0,1,1.6-1.6H312a1.72,1.72,0,0,1,1.6,1.6v45.6a1.72,1.72,0,0,1-1.6,1.6Z"/><path class="cls-1" d="M174.4,158.3l-24-92a9.66,9.66,0,0,0-5.6-5.6c-2.4-.8-5.6,0-8,2.4l-20,19.2V68.7a7.28,7.28,0,0,0-3.2-6.4l-8.8-7.2a18.4,18.4,0,0,0-4-20.8L68,4.7c-7.2-6.4-18.4-6.4-24.8.8L41.6,7.1c-6.4,7.2-6.4,18.4.8,24.8L75.2,61.5a16.28,16.28,0,0,0,12,4.8H88c1.6,0,3.2-.8,4.8-.8l8,6.4V97.5L70.4,127.9c-2.4,1.6-3.2,4.8-2.4,8a6.8,6.8,0,0,0,5.6,5.6L164,168.7h2.4a7.26,7.26,0,0,0,5.6-2.4C174.4,163.9,175.2,161.5,174.4,158.3ZM89.6,48.7,88,50.3a2,2,0,0,1-3.2,0l-32-29.6a1.5,1.5,0,0,1,0-2.4l1.6-1.6a1.5,1.5,0,0,1,2.4,0L89.6,46.3A1.5,1.5,0,0,1,89.6,48.7Zm1.6,80.8,17.6-17.6,16.8,16a7.73,7.73,0,0,0,11.2,0,7.73,7.73,0,0,0,0-11.2L120,101.5l17.6-17.6,17.6,64.8Z"/><path class="cls-2" d="M144,196.74H251.2a1.72,1.72,0,0,1,1.6,1.6v45.6a1.72,1.72,0,0,1-1.6,1.6H144.8a1.72,1.72,0,0,1-1.6-1.6v-45.6C142.4,197.54,143.2,196.74,144,196.74Z"/><path class="cls-2" d="M144,263.14h40.8a1.72,1.72,0,0,1,1.6,1.6v45.6a1.72,1.72,0,0,1-1.6,1.6H78.4a1.72,1.72,0,0,1-1.6-1.6v-45.6a1.72,1.72,0,0,1,1.6-1.6H144Z"/><path class="cls-2" d="M17.6,246.34a1.72,1.72,0,0,1-1.6-1.6v-45.6a1.72,1.72,0,0,1,1.6-1.6H124.8a1.72,1.72,0,0,1,1.6,1.6v45.6a1.72,1.72,0,0,1-1.6,1.6H17.6Z"/><path class="cls-2" d="M17.6,377.54a1.72,1.72,0,0,1-1.6-1.6v-45.6a1.72,1.72,0,0,1,1.6-1.6H124.8a1.72,1.72,0,0,1,1.6,1.6v45.6a1.72,1.72,0,0,1-1.6,1.6H17.6Z"/><path class="cls-2" d="M185.6,443.14H78.4a1.72,1.72,0,0,1-1.6-1.6v-45.6a1.72,1.72,0,0,1,1.6-1.6H184.8a1.72,1.72,0,0,1,1.6,1.6v45.6C187.2,442.34,186.4,443.14,185.6,443.14Z"/><path class="cls-2" d="M185.6,376.74H144.8a1.72,1.72,0,0,1-1.6-1.6v-45.6a1.72,1.72,0,0,1,1.6-1.6H251.2a1.72,1.72,0,0,1,1.6,1.6v45.6a1.72,1.72,0,0,1-1.6,1.6H185.6Z"/><path class="cls-2" d="M312,393.54a1.72,1.72,0,0,1,1.6,1.6v45.6a1.72,1.72,0,0,1-1.6,1.6H204.8a1.72,1.72,0,0,1-1.6-1.6v-45.6a1.72,1.72,0,0,1,1.6-1.6H312Z"/><path class="cls-2" d="M251.2,311.94H204.8a1.72,1.72,0,0,1-1.6-1.6v-45.6a1.72,1.72,0,0,1,1.6-1.6H312a1.72,1.72,0,0,1,1.6,1.6v45.6a1.72,1.72,0,0,1-1.6,1.6Z"/><path class="cls-2" d="M89.6,48.74,88,50.34a2,2,0,0,1-3.2,0l-32-29.6a1.5,1.5,0,0,1,0-2.4l1.6-1.6a1.5,1.5,0,0,1,2.4,0l32.8,29.6A1.5,1.5,0,0,1,89.6,48.74Z"/><path class="cls-2" d="M91.2,129.54l17.6-17.6,16.8,16a7.73,7.73,0,0,0,11.2,0,7.73,7.73,0,0,0,0-11.2L120,101.54l17.6-17.6,17.6,64.8Z"/></g></g></svg>