<svg xmlns="http://www.w3.org/2000/svg" viewBox="0 0 522.57 444.92"><defs><style>.cls-1,.cls-2{fill:#546770;}.cls-2{opacity:0.3;}</style></defs><g id="Слой_2" data-name="Слой 2"><g id="Layer_1" data-name="Layer 1"><path class="cls-1" d="M515.05,187a7.53,7.53,0,0,0,7.52-7.53v-86A7.54,7.54,0,0,0,515.05,86H438V7.52A7.5,7.5,0,0,0,430.47,0H92.09a7.5,7.5,0,0,0-7.51,7.52V86H7.52A7.54,7.54,0,0,0,0,93.49v86A7.53,7.53,0,0,0,7.52,187H84.58v70.92H7.52A7.53,7.53,0,0,0,0,265.44v86a7.52,7.52,0,0,0,7.52,7.52H84.58v78.45a7.52,7.52,0,0,0,7.51,7.54H430.47a7.52,7.52,0,0,0,7.52-7.54V358.93h77.06a7.52,7.52,0,0,0,7.52-7.52v-86a7.53,7.53,0,0,0-7.52-7.53H438V187Zm-7.54-15.05H353.38V101H507.51Zm-323.27,0V101H338.32v70.92Zm154.08,172H184.24V273H338.32ZM268.8,15H423V86H268.8ZM99.61,15H253.77V86H99.61ZM15.05,101H169.19v70.92H15.05Zm84.56,86H253.77v70.92H99.61ZM15.05,273H169.19V343.9H15.05ZM253.77,429.87H99.61V358.93H253.77Zm169.19,0H268.8V358.93H423Zm84.55-86H353.38V273H507.51Zm-84.55-86H268.8V187H423Z"/><path class="cls-2" d="M515.05,187a7.53,7.53,0,0,0,7.52-7.53v-86A7.54,7.54,0,0,0,515.05,86H438V7.52A7.5,7.5,0,0,0,430.47,0H92.09a7.5,7.5,0,0,0-7.51,7.52V86H7.52A7.54,7.54,0,0,0,0,93.49v86A7.53,7.53,0,0,0,7.52,187H84.58v70.92H7.52A7.53,7.53,0,0,0,0,265.44v86a7.52,7.52,0,0,0,7.52,7.52H84.58v78.45a7.52,7.52,0,0,0,7.51,7.54H430.47a7.52,7.52,0,0,0,7.52-7.54V358.93h77.06a7.52,7.52,0,0,0,7.52-7.52v-86a7.53,7.53,0,0,0-7.52-7.53H438V187Z"/></g></g></svg>