<svg xmlns="http://www.w3.org/2000/svg" viewBox="0 0 387.28 370.39"><defs><style>.cls-1,.cls-2{fill:#546770;}.cls-2{opacity:0.3;}</style></defs><g id="Слой_2" data-name="Слой 2"><g id="Layer_1" data-name="Layer 1"><path class="cls-1" d="M143.32,271.62a7,7,0,0,1-5.9-10.77l100.27-157.2a7,7,0,0,1,11.81,7.54L149.24,268.39A7,7,0,0,1,143.32,271.62Z"/><path class="cls-1" d="M137.16,153.32a32.54,32.54,0,1,1,43.68-14.53,32.54,32.54,0,0,1-43.68,14.53Zm-2-37.4A18.54,18.54,0,1,0,160,107.65a18.54,18.54,0,0,0-24.87,8.27h0Z"/><path class="cls-1" d="M223.89,275.3a32.53,32.53,0,1,1,43.66-14.52h0A32.56,32.56,0,0,1,223.89,275.3Zm-2-37.38a18.54,18.54,0,1,0,24.6-8.19A18.54,18.54,0,0,0,221.89,237.92Z"/><path class="cls-1" d="M247.38,370.39c-6.4,0-6.08-1.37-53.74-19.3l-46.64,18a19.83,19.83,0,0,1-23.7-7.7L96.13,319.42l-48.29-12.9a19.88,19.88,0,0,1-14.63-20.13l2.62-49.91L4.38,197.64a19.86,19.86,0,0,1,0-24.88l31.45-38.84L33.21,84A19.87,19.87,0,0,1,47.85,63.85L96.13,51,123.3,9A19.87,19.87,0,0,1,147,1.3l46.64,18,46.64-18A19.83,19.83,0,0,1,264,9l27.17,42,48.28,12.9A19.88,19.88,0,0,1,354.07,84l-2.62,49.91,31.45,38.84a19.86,19.86,0,0,1,0,24.88l-31.45,38.84,2.62,49.91a19.87,19.87,0,0,1-14.64,20.14l-48.28,12.9L264,361.36A19.7,19.7,0,0,1,247.38,370.39Zm-53.74-34.31c47.64,16.6,54,24.74,58.58,17.68l30.11-46.48L335.82,293a5.79,5.79,0,0,0,4.27-5.87l-2.91-55.28,34.86-43a5.8,5.8,0,0,0,0-7.26l-34.86-43,2.91-55.28a5.8,5.8,0,0,0-4.27-5.88L282.33,63.1l-30.1-46.48a5.8,5.8,0,0,0-6.91-2.25L193.64,34.29,142,14.39a5.79,5.79,0,0,0-6.91,2.24L105,63.09,51.46,77.38a5.81,5.81,0,0,0-4.27,5.88l2.91,55.28-34.84,43a5.78,5.78,0,0,0,0,7.26l34.84,43-2.9,55.28A5.78,5.78,0,0,0,51.46,293L105,307.28l30.1,46.48A5.8,5.8,0,0,0,142,356Z"/><path class="cls-2" d="M193.45,336.91c47.64,16.6,54,24.74,58.58,17.68l30.11-46.48,53.49-14.29A5.78,5.78,0,0,0,339.9,288L337,232.67l34.86-43a5.8,5.8,0,0,0,0-7.26l-34.86-43,2.91-55.28a5.8,5.8,0,0,0-4.27-5.88L282.14,63.93,252,17.45a5.79,5.79,0,0,0-6.91-2.25L193.45,35.12l-51.68-19.9a5.79,5.79,0,0,0-6.91,2.24l-30.1,46.46L51.27,78.21A5.81,5.81,0,0,0,47,84.09l2.91,55.28-34.84,43a5.78,5.78,0,0,0,0,7.26l34.84,43L47,288a5.78,5.78,0,0,0,4.26,5.87l53.49,14.29,30.1,46.48a5.81,5.81,0,0,0,6.91,2.24Z"/></g></g></svg>